<svg width="43" height="23" viewBox="0 0 43 23" fill="none" xmlns="http://www.w3.org/2000/svg">
<mask id="mask0_69_3678" style="mask-type:luminance" maskUnits="userSpaceOnUse" x="0" y="0" width="43" height="23">
<path d="M38.208 0H4.00679C1.7939 0 0 1.5841 0 3.53818V19.4019C0 21.356 1.7939 22.9401 4.00679 22.9401H38.208C40.4208 22.9401 42.2147 21.356 42.2147 19.4019V3.53818C42.2147 1.5841 40.4208 0 38.208 0Z" fill="white"/>
</mask>
<g mask="url(#mask0_69_3678)">
<path d="M40.6363 20.5412C40.6363 21.0784 40.3947 21.5935 39.9646 21.9733C39.5345 22.3531 38.9511 22.5665 38.3429 22.5665H4.13528C3.52701 22.5665 2.94366 22.3531 2.51354 21.9733C2.08343 21.5935 1.8418 21.0784 1.8418 20.5412V0.965926C1.8418 0.428796 2.08343 -0.0863351 2.51354 -0.466143C2.94366 -0.845952 3.52701 -1.05933 4.13528 -1.05933H38.3437C38.9519 -1.05933 39.5353 -0.845952 39.9654 -0.466143C40.3955 -0.0863351 40.6371 0.428796 40.6371 0.965926L40.6363 20.5412Z" fill="#306FC5"/>
<path opacity="0.15" d="M3.47176 20.5412V0.965928C3.47176 0.69973 3.53119 0.436143 3.64665 0.190243C3.76211 -0.0556563 3.93133 -0.279044 4.14464 -0.467143C4.35795 -0.655242 4.61116 -0.804362 4.88979 -0.905974C5.16842 -1.00759 5.467 -1.0597 5.76845 -1.05932H4.13528C3.52701 -1.05932 2.94366 -0.84595 2.51354 -0.466141C2.08343 -0.0863331 1.8418 0.428798 1.8418 0.965928L1.8418 20.5412C1.8418 21.0784 2.08343 21.5935 2.51354 21.9733C2.94366 22.3531 3.52701 22.5665 4.13528 22.5665H5.76845C5.467 22.5669 5.16842 22.5148 4.88979 22.4131C4.61116 22.3115 4.35795 22.1624 4.14464 21.9743C3.93133 21.7862 3.76211 21.5628 3.64665 21.3169C3.53119 21.071 3.47176 20.8074 3.47176 20.5412Z" fill="#202121"/>
<path d="M7.49414 8.39468H8.6529L8.07352 7.09192L7.49414 8.39468Z" fill="white"/>
<path d="M13.6592 12.7686V13.3736H15.6089V14.0218H13.6592V14.7195H15.8228L16.8237 13.7423L15.8757 12.765L13.6592 12.7686Z" fill="white"/>
<path d="M28.8852 7.09192L28.2529 8.39468H29.4646L28.8852 7.09192Z" fill="white"/>
<path d="M19.2961 15.0938V12.4423L17.9258 13.745L19.2961 15.0938Z" fill="white"/>
<path d="M21.8775 13.1874C21.8629 13.0642 21.7937 12.9509 21.6851 12.8725C21.5764 12.794 21.437 12.7566 21.2973 12.7685H20.1914V13.6056H21.351C21.6667 13.6056 21.8775 13.4662 21.8775 13.1874Z" fill="white"/>
<path d="M25.5651 13.5122C25.6212 13.4746 25.6654 13.425 25.6935 13.368C25.7216 13.3109 25.7326 13.2485 25.7254 13.1867C25.7507 13.1246 25.7481 13.0564 25.7184 12.9959C25.6886 12.9354 25.6338 12.8872 25.5651 12.8612C25.4299 12.8198 25.2863 12.8039 25.1436 12.8145H24.0898V13.5589H25.1436C25.2863 13.5695 25.4299 13.5536 25.5651 13.5122Z" fill="white"/>
<path d="M33.1529 5.88042V6.43875L32.8372 5.88042H30.361V6.43875L30.0444 5.88042H26.6723C26.1623 5.86982 25.6568 5.96686 25.1978 6.16348V5.88042H22.8266V6.16348C22.541 5.96848 22.1863 5.86941 21.8257 5.88396H13.3425L12.7623 7.04731L12.1838 5.88042H9.49681V6.43875L9.23316 5.88042H6.91483L5.86104 8.06914L4.64939 10.4418L4.62695 10.4885H7.37L7.38923 10.4418L7.70577 9.74411H8.39093L8.70667 10.4885H11.7622V9.93022L12.0259 10.4885H13.5533L13.8169 9.93022V10.4885H21.1405V9.27707H21.2463C21.3513 9.27707 21.3513 9.27707 21.3513 9.4186V10.4418H25.1449V10.163C25.5879 10.3528 26.075 10.4483 26.5673 10.4418H28.1484L28.4641 9.69741H29.2046L29.5203 10.4418H32.5703V9.74411L33.0447 10.4418H35.5209V5.88042H33.1529ZM15.2922 9.79081H14.4492V7.2313L14.3963 7.33815L13.171 9.79152H12.3945L11.13 7.23271V9.79152H9.33894L8.97031 9.09379H7.17848L6.80985 9.79152H5.88509L7.44373 6.5364H8.75876L10.2341 9.65V6.5364H11.63L11.6549 6.5831L12.32 7.86039L12.8008 8.81782L12.8176 8.7697L13.8714 6.5364H15.2938V9.79152L15.2922 9.79081ZM18.928 7.23201H16.8725V7.83703H18.8759V8.48806H16.8725V9.13979H18.9272V9.83752H15.9774V6.53357H18.928V7.23201ZM22.6856 8.43498H22.6904C22.7088 8.45235 22.726 8.47079 22.7417 8.49018C22.8696 8.6492 22.9352 8.84079 22.9284 9.03577V9.04921C22.9284 9.04921 22.9284 9.05417 22.9284 9.05629C22.9284 9.05841 22.9284 9.05629 22.9284 9.06053C22.9284 9.08601 22.9284 9.11219 22.9284 9.1405V9.79152H22.1382V9.4186C22.1618 9.19221 22.1058 8.9649 21.978 8.76757C21.9338 8.72778 21.8813 8.69604 21.8233 8.67417C21.6692 8.62608 21.5046 8.61033 21.3425 8.62817H20.4025V9.79152H19.5082V6.5364H21.5116C21.8708 6.49942 22.2348 6.5483 22.5654 6.67793C22.7033 6.75326 22.8153 6.86044 22.8893 6.9879C22.9634 7.11535 22.9965 7.25824 22.9853 7.40113C22.9876 7.58315 22.9289 7.76171 22.8167 7.91442C22.7045 8.06712 22.5438 8.18717 22.3546 8.25949C22.4804 8.28768 22.5949 8.34595 22.6856 8.42791V8.43498ZM24.4598 9.79435H23.5638V6.53923H24.4598V9.79435ZM34.734 9.79435H33.5744L31.8916 7.32824V9.37543L31.8859 9.37048V9.79506H30.9924H30.0973L29.7816 9.09733H27.9385L27.6227 9.84176H26.6194C26.1601 9.86134 25.709 9.72858 25.3549 9.46955C25.1797 9.30062 25.0467 9.10107 24.9644 8.88384C24.8821 8.66662 24.8524 8.43655 24.8773 8.20854C24.8478 7.73746 25.0168 7.27342 25.3517 6.90579C25.528 6.76373 25.737 6.65694 25.9644 6.5927C26.1917 6.52847 26.4321 6.5083 26.6691 6.53357H27.5121V7.2313H26.6723C26.4254 7.21392 26.1803 7.28049 25.9872 7.41741C25.7989 7.62859 25.7053 7.8936 25.7243 8.16184C25.7028 8.30261 25.7151 8.4458 25.7604 8.5821C25.8057 8.7184 25.883 8.84476 25.9872 8.95297C26.0726 9.02045 26.1727 9.07178 26.2815 9.10378C26.3902 9.13579 26.5052 9.1478 26.6194 9.13908H26.988L28.1997 6.58027H29.5171L30.9924 9.69387V6.58027H32.3099L33.8373 8.85957V6.58027H34.734V9.79011V9.79435Z" fill="white"/>
<path d="M21.9339 7.89081C21.9498 7.87585 21.9635 7.85921 21.9748 7.84127C22.0477 7.73532 22.0737 7.6093 22.0477 7.48746C22.0464 7.47313 22.0437 7.45893 22.0397 7.445C22.0397 7.44146 22.0397 7.43792 22.0397 7.43438C22.0271 7.39952 22.0063 7.36739 21.9786 7.34008C21.951 7.31277 21.9172 7.2909 21.8794 7.27587C21.7441 7.23467 21.6006 7.21876 21.4579 7.22917H20.4033V7.9736H21.4571C21.5998 7.98416 21.7433 7.96825 21.8786 7.9269C21.8944 7.91946 21.9089 7.91018 21.9219 7.8993L21.9339 7.89081Z" fill="white"/>
<path d="M37.8437 14.4435C37.8445 14.1337 37.7539 13.8291 37.5809 13.5596V11.4657V11.3242H35.0389C34.7725 11.3578 34.5211 11.4541 34.3113 11.603V11.3242H31.8888C31.512 11.3096 31.1407 11.4079 30.835 11.603V11.3242H26.5141V11.603C26.1683 11.4094 25.7645 11.3123 25.3553 11.3242H22.5105V11.603C22.1505 11.398 21.7256 11.3003 21.2981 11.3242H18.1375L17.3995 12.0219L16.7143 11.3242H11.9727V16.0236H16.6077L17.3698 15.3507L18.0301 16.0236H20.9807V14.9523H21.2444C21.6548 14.9743 22.0662 14.9262 22.456 14.8107V16.0668H24.8272V14.8567H24.9322C25.0925 14.8567 25.0925 14.8567 25.0925 14.9983V16.0682H32.2574C32.6843 16.088 33.1077 15.9904 33.4691 15.7887V16.0682H35.7345C36.1723 16.0957 36.6102 16.0151 36.9991 15.8354C37.2434 15.7019 37.4472 15.518 37.593 15.2994C37.7388 15.0808 37.822 14.8341 37.8357 14.5808C37.8357 14.5645 37.8405 14.5489 37.8421 14.5326C37.8437 14.5036 37.8437 14.4739 37.8437 14.4435ZM21.2476 14.1647H20.1922V15.3768H18.4605L17.4523 14.3529L17.4035 14.3027L16.2407 15.3768H12.8686V12.1217H16.2936L17.2296 13.0268L17.4259 13.2164L17.4523 13.1917L18.559 12.1217H21.3509C21.6229 12.0887 21.8999 12.1288 22.1457 12.2367C22.3915 12.3446 22.5949 12.5154 22.7293 12.7268C22.7593 12.8332 22.7741 12.9426 22.7734 13.0523C22.7734 13.9779 22.0361 14.164 21.246 14.164L21.2476 14.1647ZM26.5165 14.118C26.6374 14.3009 26.6933 14.5117 26.6768 14.723V15.374H25.7768V14.9523C25.8061 14.7254 25.7497 14.4963 25.6166 14.3005C25.5116 14.159 25.3008 14.159 24.9843 14.159H24.0379V15.3768H23.1428V12.0708H25.1462C25.5054 12.0381 25.868 12.0868 26.2 12.2123C26.3484 12.2863 26.471 12.3949 26.5545 12.5261C26.638 12.6573 26.6792 12.8063 26.6736 12.9567C26.6812 13.1431 26.6249 13.3272 26.5121 13.4849C26.3993 13.6426 26.2352 13.7666 26.0413 13.8406C26.2287 13.8854 26.3946 13.9828 26.5141 14.118H26.5165ZM30.1507 12.7678H28.0952V13.3728H30.0986V14.0246H28.0952V14.6763H30.1507V15.3768H27.1993V12.0708H30.1507V12.7678ZM32.3624 15.3768H30.6796V14.6763H32.3624C32.4279 14.6859 32.4949 14.6826 32.5587 14.6664C32.6225 14.6502 32.6813 14.6217 32.731 14.5829C32.7985 14.5201 32.8361 14.4369 32.8361 14.3504C32.8361 14.2639 32.7985 14.1807 32.731 14.118C32.6431 14.0519 32.5297 14.0185 32.4145 14.0246C31.5715 13.9779 30.5714 14.0246 30.5714 13.0013C30.5714 12.5357 30.8871 12.0241 31.8359 12.0241H33.5749V12.8152H31.9409C31.8156 12.8043 31.6891 12.8204 31.5723 12.8619C31.4673 12.9086 31.4673 13.0034 31.4673 13.0947C31.4673 13.2363 31.5723 13.2808 31.6781 13.3268C31.7774 13.3648 31.8858 13.3808 31.9938 13.3735H32.4682C32.6477 13.3583 32.8289 13.3752 33.0009 13.4232C33.1729 13.4712 33.3321 13.5494 33.4691 13.653C33.658 13.8457 33.7528 14.0966 33.7327 14.3508C33.7319 15.0478 33.2583 15.3768 32.3624 15.3768ZM36.8933 15.0506C36.5874 15.2838 36.1898 15.401 35.7866 15.3768H34.1038V14.6763H35.7866C35.8521 14.686 35.9191 14.6826 35.9829 14.6665C36.0467 14.6503 36.1056 14.6217 36.1552 14.5829C36.2229 14.5202 36.2606 14.437 36.2606 14.3504C36.2606 14.2639 36.2229 14.1806 36.1552 14.118C36.0676 14.052 35.9545 14.0185 35.8395 14.0246C34.9965 13.9779 33.9964 14.0246 33.9964 13.0013C33.9929 12.7599 34.0936 12.5263 34.2779 12.3479C34.4623 12.1696 34.7166 12.0599 34.9893 12.0411C35.0793 12.0299 35.17 12.0242 35.2609 12.0241H36.9999V12.8152H35.3659C35.2406 12.8043 35.1141 12.8203 34.9973 12.8619C34.931 12.9255 34.8934 13.0083 34.8915 13.0947C34.8915 13.2363 34.9444 13.2808 35.1023 13.3268C35.2016 13.3648 35.31 13.3808 35.418 13.3735H35.8924C36.0828 13.3694 36.2726 13.3946 36.4533 13.4478C36.6375 13.5043 36.802 13.6016 36.9311 13.7305C37.0603 13.8594 37.1496 14.0155 37.1906 14.1838C37.201 14.239 37.2063 14.2948 37.2066 14.3508C37.2109 14.4797 37.1854 14.608 37.1315 14.7279C37.0776 14.8477 36.9966 14.9566 36.8933 15.0478V15.0506Z" fill="white"/>
</g>
</svg>
