<svg width="258" height="155" viewBox="0 0 258 155" fill="none" xmlns="http://www.w3.org/2000/svg">
<g clip-path="url(#clip0_90_6069)">
<path d="M43.2941 147.543C43.0874 147.553 42.8826 147.498 42.7077 147.388C42.5328 147.277 42.3961 147.115 42.3162 146.924C42.2364 146.733 42.2172 146.521 42.2612 146.319C42.3053 146.117 42.4105 145.933 42.5625 145.792L42.6316 145.517L42.6042 145.45C42.396 144.958 42.047 144.538 41.6012 144.244C41.1553 143.949 40.6325 143.793 40.0983 143.795C39.5641 143.797 39.0424 143.957 38.5987 144.255C38.1551 144.553 37.8093 144.975 37.6047 145.469C36.7869 147.44 35.7461 149.415 35.4898 151.499C35.3769 152.421 35.4246 153.355 35.6307 154.26C33.7102 150.066 32.713 145.509 32.7066 140.896C32.7061 139.738 32.7704 138.581 32.8989 137.431C33.0051 136.488 33.1526 135.552 33.3415 134.622C34.3708 129.578 36.5809 124.85 39.7901 120.826C41.3434 119.978 42.5996 118.674 43.3894 117.089C43.6755 116.519 43.8777 115.911 43.9897 115.283C43.8147 115.306 43.329 112.635 43.4613 112.471C43.2172 112.1 42.78 111.916 42.5133 111.554C41.1871 109.754 39.3594 110.068 38.4057 112.514C36.3677 113.544 36.3479 115.251 37.5986 116.893C38.3942 117.937 38.5035 119.351 39.2016 120.47C39.1297 120.562 39.0549 120.65 38.9834 120.743C37.6709 122.433 36.5271 124.247 35.5682 126.16C35.8015 124.017 35.5232 121.849 34.7561 119.834C33.9785 117.957 32.5214 116.376 31.238 114.753C29.6965 112.803 26.5358 113.654 26.264 116.125C26.2614 116.149 26.2589 116.173 26.2565 116.197C26.4482 116.305 26.6348 116.419 26.8162 116.54C27.0456 116.693 27.2233 116.912 27.3261 117.168C27.4289 117.424 27.452 117.706 27.3924 117.975C27.3327 118.245 27.1931 118.49 26.9918 118.679C26.7906 118.868 26.537 118.991 26.2644 119.033L26.2364 119.038C26.3044 119.725 26.4246 120.407 26.5959 121.076C24.9497 127.449 28.5037 129.77 33.5787 129.874C33.6909 129.932 33.7998 129.989 33.912 130.044C32.9486 132.777 32.3443 135.625 32.1145 138.514C31.9843 140.219 31.992 141.932 32.1375 143.635L32.1289 143.575C31.7612 141.68 30.7517 139.971 29.2709 138.735C27.0715 136.927 23.964 136.261 21.5909 134.807C21.3388 134.645 21.0456 134.559 20.7459 134.558C20.4463 134.557 20.1527 134.642 19.8997 134.803C19.6468 134.964 19.4451 135.194 19.3184 135.466C19.1916 135.737 19.1452 136.04 19.1845 136.337C19.1876 136.358 19.1908 136.379 19.1942 136.4C19.5478 136.545 19.8922 136.711 20.2252 136.898C20.417 137.005 20.6035 137.12 20.785 137.24C21.0143 137.394 21.192 137.613 21.2949 137.869C21.3977 138.125 21.4207 138.407 21.3611 138.676C21.3014 138.946 21.1618 139.191 20.9606 139.38C20.7593 139.568 20.5057 139.692 20.2331 139.734L20.2051 139.738L20.1476 139.747C20.7519 141.191 21.6001 142.521 22.6551 143.678C23.6843 149.241 28.1058 149.769 32.8353 148.149H32.8382C33.3559 150.406 34.1066 152.604 35.0782 154.706H43.095C43.1237 154.616 43.1496 154.526 43.1755 154.435C42.4336 154.482 41.6888 154.438 40.9578 154.303C41.5524 153.573 42.147 152.837 42.7416 152.108C42.7544 152.095 42.7664 152.08 42.7775 152.065C43.0791 151.691 43.3836 151.321 43.6853 150.947C43.7013 149.801 43.57 148.658 43.2945 147.546L43.2941 147.543Z" fill="#F2F2F2"/>
<path d="M210.683 147.543C210.89 147.553 211.094 147.498 211.269 147.388C211.444 147.277 211.581 147.115 211.661 146.924C211.741 146.733 211.76 146.521 211.716 146.319C211.672 146.117 211.567 145.933 211.415 145.792L211.345 145.517L211.373 145.45C211.581 144.958 211.93 144.538 212.376 144.244C212.822 143.949 213.345 143.793 213.879 143.795C214.413 143.797 214.935 143.957 215.378 144.255C215.822 144.553 216.168 144.975 216.372 145.469C217.19 147.44 218.231 149.415 218.487 151.499C218.6 152.421 218.552 153.355 218.346 154.26C220.267 150.066 221.264 145.509 221.27 140.896C221.271 139.738 221.207 138.581 221.078 137.431C220.972 136.488 220.824 135.552 220.636 134.622C219.606 129.578 217.396 124.85 214.187 120.826C212.634 119.978 211.377 118.674 210.588 117.089C210.302 116.519 210.099 115.911 209.987 115.283C210.162 115.306 210.648 112.635 210.516 112.471C210.76 112.1 211.199 111.916 211.464 111.554C212.79 109.754 214.618 110.068 215.571 112.514C217.609 113.544 217.629 115.251 216.378 116.893C215.583 117.937 215.474 119.351 214.775 120.47C214.847 120.562 214.922 120.65 214.994 120.743C216.306 122.433 217.45 124.247 218.409 126.16C218.176 124.017 218.454 121.849 219.221 119.834C219.999 117.957 221.456 116.376 222.739 114.753C224.281 112.803 227.441 113.654 227.713 116.125C227.716 116.149 227.718 116.173 227.721 116.197C227.529 116.305 227.342 116.419 227.161 116.54C226.931 116.693 226.754 116.912 226.651 117.169C226.548 117.425 226.525 117.706 226.585 117.976C226.644 118.245 226.784 118.491 226.985 118.679C227.186 118.868 227.44 118.992 227.713 119.034L227.741 119.038C227.673 119.726 227.552 120.407 227.381 121.077C229.028 127.449 225.473 129.77 220.398 129.875C220.286 129.932 220.177 129.99 220.065 130.044C221.028 132.778 221.633 135.625 221.863 138.515C221.993 140.219 221.985 141.932 221.84 143.635L221.848 143.575C222.216 141.681 223.225 139.971 224.706 138.736C226.906 136.927 230.013 136.261 232.386 134.807C232.638 134.645 232.931 134.559 233.231 134.558C233.531 134.558 233.824 134.643 234.077 134.803C234.33 134.964 234.532 135.194 234.659 135.466C234.785 135.738 234.832 136.04 234.793 136.337C234.789 136.359 234.786 136.38 234.783 136.401C234.429 136.545 234.085 136.711 233.752 136.898C233.56 137.006 233.374 137.12 233.192 137.241C232.963 137.394 232.785 137.613 232.682 137.869C232.579 138.126 232.556 138.407 232.616 138.676C232.676 138.946 232.815 139.191 233.017 139.38C233.218 139.569 233.471 139.692 233.744 139.734L233.772 139.739L233.83 139.747C233.225 141.192 232.377 142.521 231.322 143.678C230.292 149.241 225.871 149.769 221.142 148.149H221.139C220.62 150.406 219.868 152.603 218.896 154.705H210.884C210.855 154.615 210.829 154.525 210.803 154.434C211.545 154.481 212.29 154.437 213.021 154.302C212.426 153.572 211.832 152.836 211.237 152.107C211.224 152.094 211.212 152.079 211.201 152.064C210.9 151.69 210.595 151.32 210.294 150.946C210.278 149.8 210.409 148.657 210.684 147.545L210.683 147.543Z" fill="#F2F2F2"/>
<path d="M52.5117 154.526H65.4443C67.6562 147.071 65.4561 129.454 68.3716 122.253C73.965 108.446 81.1104 93.8781 94.4474 87.1368C100.142 84.258 106.351 83.1339 112.692 83.195C121.451 83.2782 130.457 85.6319 138.702 88.751C142.075 90.0241 145.416 91.4239 148.745 92.8532C161.286 98.2473 173.691 104.122 187.177 105.711C204.243 107.719 224.308 100.076 228.969 83.6139C232.528 71.0104 226.12 57.9254 219.401 46.6691C212.682 35.4129 205.171 23.3696 206.397 10.3365C206.401 10.2926 206.406 10.2447 206.415 10.2008C206.876 5.51998 209.669 2.1558 213.569 -0.00109863H196.587C196.363 12.1562 203.39 22.8875 209.713 33.483C216.432 44.7375 222.839 57.8254 219.281 70.4303C214.62 86.8881 176.024 67.5962 158.958 65.5836C154.138 65.0194 161.794 67.0273 157.199 65.5836C149.991 63.322 149.193 84.0662 142.179 81.0209C137.812 79.1223 133.443 77.2368 129.013 75.5613C127.18 74.8657 125.307 74.2137 123.411 73.6103C123.407 73.6103 123.407 73.6103 123.403 73.6059C110.677 69.5725 96.7597 68.0017 85.0012 73.8334C84.9221 73.8726 84.8384 73.9122 84.7593 73.9514C71.422 80.6884 64.277 95.2566 58.6836 109.063C54.0626 120.476 54.7895 142.486 52.5117 154.526Z" fill="#F2F2F2"/>
<path d="M124.463 154.144C157.267 154.144 183.86 127.525 183.86 94.6892C183.86 61.8534 157.267 35.2348 124.463 35.2348C91.6584 35.2348 65.0654 61.8534 65.0654 94.6892C65.0654 127.525 91.6584 154.144 124.463 154.144Z" fill="white"/>
<path d="M124.292 154.526C65.5248 155.877 64.2363 127.93 64.2363 94.6892C64.2363 61.4479 91.2536 34.4057 124.462 34.4057C157.671 34.4057 184.688 61.449 184.688 94.6892C184.688 127.929 157.501 154.526 124.292 154.526ZM124.462 36.0653C92.1671 36.0653 66.4372 62.3698 65.8936 94.6899C65.3878 124.753 97.2935 162.268 124.462 153.316C139.032 137.254 180.224 119.955 183.031 94.6899C186.599 62.5613 156.757 36.0653 124.462 36.0653Z" fill="#3F3D56"/>
<path d="M116.36 125.632C115.334 125.632 114.323 125.393 113.406 124.934C112.488 124.475 111.691 123.808 111.075 122.987L94.8711 101.36C94.3365 100.666 93.9448 99.8734 93.719 99.027C93.4931 98.1807 93.4374 97.2979 93.5553 96.4298C93.6731 95.5618 93.9621 94.7258 94.4054 93.9705C94.8487 93.2151 95.4375 92.5555 96.1376 92.0298C96.8377 91.5042 97.6352 91.123 98.4837 90.9084C99.3322 90.6939 100.215 90.6502 101.08 90.7799C101.946 90.9097 102.777 91.2102 103.526 91.6642C104.274 92.1182 104.925 92.7164 105.441 93.4243L116.042 107.572L143.271 66.6905C143.752 65.9678 144.371 65.3472 145.092 64.8639C145.813 64.3807 146.622 64.0443 147.473 63.874C148.324 63.7037 149.2 63.7029 150.051 63.8715C150.902 64.0401 151.712 64.3749 152.434 64.8567C153.156 65.3386 153.776 65.958 154.259 66.6797C154.742 67.4014 155.078 68.2113 155.248 69.063C155.418 69.9147 155.419 70.7916 155.25 71.6436C155.082 72.4956 154.747 73.3061 154.266 74.0288L121.857 122.688C121.271 123.568 120.482 124.294 119.558 124.806C118.633 125.318 117.599 125.601 116.543 125.631C116.482 125.63 116.42 125.632 116.36 125.632Z" fill="#F2F2F2"/>
<path d="M2.43329e-06 154.572C-0.000187544 154.628 0.0107486 154.684 0.0321803 154.736C0.053612 154.788 0.0851166 154.835 0.124879 154.875C0.164642 154.915 0.211876 154.946 0.263865 154.968C0.315854 154.989 0.371572 155 0.427804 155H257.57C257.684 155 257.793 154.955 257.873 154.875C257.953 154.794 257.998 154.685 257.998 154.572C257.998 154.458 257.953 154.349 257.873 154.269C257.793 154.189 257.684 154.144 257.57 154.144H0.427804C0.371585 154.143 0.315893 154.154 0.263926 154.176C0.211958 154.197 0.164737 154.229 0.124984 154.269C0.0852304 154.308 0.0537276 154.356 0.032279 154.408C0.0108304 154.46 -0.000139835 154.515 2.43329e-06 154.572Z" fill="#CCCCCC"/>
<path d="M162.392 150.374H158.914L157.261 136.946H162.394L162.392 150.374Z" fill="#FFB6B6"/>
<path d="M162.514 154.006H151.819V153.87C151.819 152.765 152.258 151.706 153.039 150.924C153.819 150.143 154.878 149.704 155.982 149.703L157.935 148.22L161.581 149.704H162.516L162.514 154.006Z" fill="#2F2E41"/>
<path d="M147.272 133.732L144.059 135.065L137.392 123.296L142.133 121.328L147.272 133.732Z" fill="#FFB6B6"/>
<path d="M148.774 137.04L138.895 141.142L138.843 141.017C138.42 139.996 138.42 138.849 138.842 137.827C139.264 136.806 140.074 135.995 141.093 135.571L142.33 133.452L146.265 133.425L147.128 133.067L148.774 137.04Z" fill="#2F2E41"/>
<path d="M166.368 73.9871L141.686 76.5682L138.384 87.6992L126.95 106.091C126.95 106.091 134.929 119.532 134.18 119.386C133.43 119.24 134.928 122.903 135.977 122.691C137.027 122.478 138.117 124.867 137.391 125.292C136.666 125.716 139.575 129.308 139.575 129.308L144.021 125.314C144.967 118.173 143.824 111.82 139.754 106.566L152.492 92.8007L154.907 91.7975L156.824 142.876L163.916 142.993C165.873 132.917 166.856 123.849 165.326 117.379C165.326 117.379 165.546 97.944 166.385 98.1567C167.224 98.3693 166.512 95.8375 166.512 95.8375C166.512 95.8375 165.778 93.6813 166.68 92.7867C167.583 91.8921 167.019 86.6309 167.019 86.6309C168.51 81.6524 168.062 77.5416 166.368 73.9871Z" fill="#2F2E41"/>
<path d="M147.391 32.9105L154.215 31.1408L157.4 26.7435L164.964 27.6744L166.574 33.6723L171.96 36.8029C171.96 36.8029 168.983 68.3151 169.691 70.0453C170.399 71.7754 172.938 71.6325 170.77 73.8632C168.602 76.0939 168.314 75.1946 168.818 77.6236C169.321 80.0525 172.988 82.6218 168.818 82.5963C164.647 82.5707 139.483 82.2109 140.202 79.3321C140.921 76.4534 140.909 77.1842 141.993 75.3796C143.077 73.575 143.807 74.5833 143.442 71.9201C143.078 69.2569 143.437 67.458 143.437 66.0186C143.437 64.5793 144.642 51.4993 144.642 51.4993L147.391 32.9105Z" fill="#E6E6E6"/>
<path d="M161.163 25.9311C165.59 25.9311 169.179 22.3387 169.179 17.9073C169.179 13.4759 165.59 9.88348 161.163 9.88348C156.735 9.88348 153.146 13.4759 153.146 17.9073C153.146 22.3387 156.735 25.9311 161.163 25.9311Z" fill="#FFB6B6"/>
<path d="M152.763 13.0511C153.467 13.6204 153.306 16.3894 154.09 15.9382C154.874 15.4869 155.037 14.6787 155.94 14.6701C156.677 14.7107 157.371 15.0253 157.888 15.552C157.984 15.6391 158.075 15.7302 158.164 15.8201C158.245 15.7917 158.326 15.7658 158.41 15.7446C159.044 15.5894 159.713 15.6837 160.279 16.008C159.757 16.0458 159.259 16.2472 158.857 16.5837C159.029 16.777 159.204 16.9716 159.388 17.1512C160.923 18.6571 164.071 17.0533 166.187 16.6917C164.426 18.6183 164.772 19.6938 165.211 22.2692L165.212 22.4099C165.303 21.8162 167.203 21.8457 166.889 22.6338C166.496 23.4123 166.004 24.1366 165.425 24.7889C168.013 22.9936 170.104 20.519 170.566 17.5294C170.661 16.9007 170.845 16.2595 170.667 15.6467C170.591 15.3368 170.414 15.0609 170.165 14.862C169.916 14.6631 169.608 14.5525 169.289 14.5474C169.578 13.6304 169.612 12.6523 169.39 11.7171C169.167 10.7819 168.696 9.92454 168.025 9.2362C167.355 8.54787 166.51 8.05427 165.582 7.8079C164.654 7.56153 163.676 7.57159 162.753 7.83701C161.91 8.1358 161.088 8.48993 160.292 8.8971C159.49 9.30655 158.581 9.46061 157.688 9.33863C157.132 9.22348 156.569 8.93525 156.024 9.09862C155.392 9.28825 155.121 9.95576 154.868 10.6006C155.343 10.7741 155.756 11.0857 156.054 11.4955C155.563 11.3141 155.027 11.2923 154.522 11.4333C154.513 11.435 154.504 11.4375 154.495 11.4408C153.922 12.4664 153.889 12.7179 152.763 13.0511Z" fill="#2F2E41"/>
<path d="M155.406 28.9915C151.3 28.6608 147.552 31.8037 145.844 35.5547C144.136 39.3057 144.022 43.5616 143.938 47.6836L143.682 60.4987C143.644 62.3947 143.606 64.2911 143.511 66.1842C143.463 68.0273 143.231 69.8609 142.82 71.6581C141.983 74.9561 140.141 77.8949 138.326 80.7723C142.972 82.1779 147.696 83.3074 152.475 84.1548C154.861 76.4286 157.275 68.48 156.689 60.4141C156.378 56.146 155.231 51.979 154.795 47.7217C154.178 41.6926 154.996 35.6188 155.813 29.6133" fill="#3F3D56"/>
<path d="M165.372 29.7123C169.439 30.3668 172.335 34.3111 173.105 38.3611C173.875 42.4112 172.975 46.5717 172.077 50.5958L169.288 63.1039C168.875 64.955 168.461 66.806 168.104 68.6686C167.757 70.4779 169.212 72.7981 169.229 74.642C169.26 78.0446 168.6 80.8467 169.679 84.0735C164.833 84.3347 159.976 84.3088 155.133 83.9961C154.648 75.9234 154.189 67.6286 156.673 59.933C157.987 55.8607 160.088 52.0855 161.523 48.0539C163.553 42.3439 164.199 36.251 164.83 30.2215" fill="#3F3D56"/>
<path d="M168.084 87.8827C167.781 87.3559 167.697 86.7318 167.847 86.1434C167.998 85.5549 168.372 85.0485 168.89 84.7319C168.996 84.6692 169.108 84.6154 169.223 84.5711L168.703 66.8959L174.322 65.4645L172.18 86.0554C172.326 86.5476 172.306 87.0744 172.122 87.5538C171.938 88.0332 171.6 88.4381 171.162 88.7053C170.912 88.855 170.634 88.9538 170.345 88.996C170.056 89.0383 169.762 89.0231 169.479 88.9515C169.195 88.8799 168.929 88.7531 168.695 88.5785C168.461 88.4039 168.264 88.1848 168.114 87.9338C168.104 87.9165 168.094 87.8995 168.084 87.8827Z" fill="#FFB6B6"/>
<path d="M167.674 36.7728C167.674 36.7728 171.595 33.4536 174.894 40.0902C178.194 46.7268 176.35 61.8888 175.886 62.6977C175.421 63.5066 175.138 62.3796 175.392 64.5365C175.599 66.2907 174.369 66.0712 174.81 66.4458C175.974 67.4329 172.715 67.5455 174.389 68.4152C176.062 69.285 168.573 69.448 168.573 69.448C168.573 69.448 167.667 68.8003 168.296 66.3584C168.649 64.987 169.534 64.485 168.59 63.8506C167.647 63.2162 169.566 61.2543 169.566 60.8225C169.566 60.3907 166.574 50.9762 166.574 50.9762L167.674 36.7728Z" fill="#3F3D56"/>
<path d="M135.225 118.532C134.2 118.532 133.188 118.293 132.271 117.834C131.354 117.374 130.556 116.708 129.941 115.886L113.736 94.2595C112.685 92.8563 112.234 91.0926 112.481 89.3562C112.729 87.6199 113.656 86.0533 115.058 85.0009C116.46 83.9486 118.222 83.4968 119.957 83.7449C121.691 83.993 123.256 84.9207 124.308 86.3239L134.909 100.472L162.138 59.5901C163.11 58.1306 164.621 57.1174 166.34 56.7734C168.058 56.4294 169.842 56.7828 171.301 57.7558C172.759 58.7287 173.771 60.2416 174.114 61.9616C174.458 63.6816 174.105 65.4678 173.133 66.9273L140.723 115.587C140.137 116.467 139.349 117.193 138.424 117.705C137.499 118.217 136.466 118.5 135.409 118.53C135.348 118.531 135.286 118.532 135.225 118.532Z" fill="#2C7242"/>
<path d="M147.578 84.8111C147.908 84.3018 148.027 83.6834 147.91 83.0876C147.792 82.4917 147.446 81.9655 146.947 81.6207C146.844 81.5519 146.736 81.4917 146.623 81.4408L148.117 63.8225L142.587 62.082L143.589 82.76C143.415 83.2433 143.406 83.7705 143.564 84.2594C143.721 84.7483 144.035 85.1713 144.458 85.4624C144.7 85.6258 144.972 85.7398 145.258 85.798C145.544 85.8562 145.839 85.8574 146.126 85.8015C146.412 85.7456 146.685 85.6338 146.929 85.4724C147.172 85.311 147.381 85.1031 147.544 84.8608C147.556 84.8449 147.567 84.8284 147.578 84.8111Z" fill="#FFB6B6"/>
<path d="M150.814 33.84C150.814 33.84 147.082 30.3089 143.421 36.7547C139.76 43.2006 140.764 58.4393 141.183 59.273C141.602 60.1068 141.948 58.997 141.574 61.1363C141.271 62.8765 142.511 62.7254 142.05 63.0748C140.834 63.996 144.081 64.2885 142.362 65.0643C140.643 65.8402 148.112 66.417 148.112 66.417C148.112 66.417 149.052 65.8204 148.559 63.3475C148.282 61.9585 147.426 61.4087 148.403 60.8286C149.38 60.2485 147.574 58.182 147.596 57.752C147.618 57.3219 151.126 48.0858 151.126 48.0858L150.814 33.84Z" fill="#3F3D56"/>
</g>
<defs>
<clipPath id="clip0_90_6069">
<rect width="258" height="155" fill="white"/>
</clipPath>
</defs>
</svg>
