<svg width="32" height="20" viewBox="0 0 32 20" fill="none" xmlns="http://www.w3.org/2000/svg">
<g clip-path="url(#clip0_11_1221)">
<path d="M32 10H0V20H32V10Z" fill="black"/>
<path d="M32 0H0V10H32V0Z" fill="#CE1126"/>
<path d="M32 6.66602H0V13.3323H32V6.66602Z" fill="white"/>
<path d="M16.0003 12.7976C16.604 12.7976 17.1811 12.7502 17.5192 12.6565C17.6621 12.6313 17.6621 12.5576 17.6621 12.4639C17.8051 12.4165 17.7315 12.2534 17.8317 12.2534C17.7315 12.2786 17.7101 12.086 17.5885 12.1123C17.5885 11.945 17.4189 11.9239 17.276 11.9713C16.9891 12.066 16.4813 12.0871 15.996 12.0871C15.5139 12.066 15.0104 12.066 14.716 11.9713C14.5731 11.9239 14.4035 11.946 14.4035 12.1123C14.2819 12.0871 14.2605 12.2797 14.1603 12.2534C14.2605 12.2534 14.1859 12.4208 14.3299 12.4639C14.3299 12.5586 14.3299 12.6313 14.4771 12.6565C14.8109 12.7513 15.388 12.7976 15.9917 12.7976H16.0003Z" fill="white"/>
<path fill-rule="evenodd" clip-rule="evenodd" d="M17.621 12.0752C17.6446 12.0772 17.6653 12.0857 17.6834 12.0978C17.7092 12.1153 17.7295 12.1404 17.7457 12.1608C17.7468 12.1623 17.748 12.1637 17.7491 12.1651C17.7651 12.1854 17.7772 12.2006 17.7902 12.2108C17.7973 12.2163 17.8034 12.2194 17.8096 12.2202C17.8165 12.2189 17.8237 12.2182 17.8312 12.2182C17.8492 12.2182 17.8644 12.2315 17.8666 12.2491C17.8689 12.2667 17.8575 12.2833 17.84 12.2877C17.8328 12.2895 17.8259 12.2905 17.8192 12.2909C17.8192 12.2909 17.8191 12.291 17.819 12.291C17.8177 12.2918 17.8158 12.2933 17.8134 12.2974C17.8079 12.3067 17.8047 12.3194 17.7994 12.3401C17.7987 12.3431 17.7979 12.3463 17.797 12.3497C17.7909 12.3733 17.7824 12.4033 17.764 12.4306C17.7487 12.4534 17.7273 12.4733 17.6972 12.4877C17.6969 12.5259 17.6942 12.5673 17.6753 12.6025C17.6504 12.6488 17.6029 12.6773 17.5267 12.6911C17.1834 12.7858 16.6032 12.833 15.9997 12.833H15.9912C15.388 12.833 14.8077 12.7869 14.4685 12.6911C14.3907 12.6774 14.342 12.6495 14.3164 12.6033C14.2969 12.5682 14.294 12.5268 14.2936 12.4884C14.2635 12.4747 14.2419 12.4552 14.2265 12.4326C14.2079 12.4053 14.1994 12.375 14.1934 12.3511C14.1925 12.3473 14.1916 12.3437 14.1907 12.3403C14.1857 12.3199 14.1825 12.3071 14.1771 12.2976C14.1747 12.2934 14.1728 12.2918 14.1715 12.291C14.1648 12.2906 14.1578 12.2895 14.1505 12.2876C14.1332 12.283 14.1219 12.2665 14.1243 12.2489C14.1266 12.2314 14.1418 12.2182 14.1597 12.2182C14.1674 12.2182 14.1748 12.2189 14.1819 12.2204C14.188 12.2196 14.1939 12.2166 14.2008 12.2113C14.2138 12.2012 14.226 12.1858 14.2423 12.1652C14.2432 12.1641 14.2442 12.1629 14.2452 12.1616C14.2613 12.1412 14.2816 12.1161 14.3074 12.0985C14.3254 12.0862 14.3461 12.0776 14.3698 12.0754C14.3746 12.0437 14.3857 12.016 14.4027 11.9929C14.4259 11.9612 14.4582 11.9405 14.494 11.9284C14.5642 11.9047 14.6508 11.9128 14.7267 11.9379C14.8693 11.9838 15.0648 12.0073 15.2874 12.0217C15.4314 12.0311 15.5848 12.0366 15.7408 12.0421C15.8255 12.0451 15.911 12.0482 15.9962 12.0519C16.2382 12.0519 16.4852 12.0466 16.7071 12.0297C16.9298 12.0126 17.1249 11.9839 17.2641 11.9379L17.2754 11.9714L17.2641 11.938C17.3398 11.9129 17.4265 11.9044 17.4968 11.928C17.5326 11.94 17.565 11.9607 17.5882 11.9925C17.6052 12.0157 17.6163 12.0433 17.621 12.0752ZM14.2424 12.2687C14.2433 12.268 14.2441 12.2674 14.245 12.2667C14.2652 12.251 14.2827 12.2289 14.2972 12.2104C14.2987 12.2086 14.3001 12.2068 14.3014 12.2051C14.3183 12.1838 14.3325 12.1671 14.348 12.1565C14.3617 12.1472 14.376 12.1429 14.3955 12.1469C14.4061 12.1491 14.4171 12.1465 14.4254 12.1398C14.4338 12.1331 14.4386 12.1231 14.4386 12.1124C14.4386 12.0769 14.4476 12.052 14.4606 12.0343C14.4736 12.0165 14.4926 12.0034 14.5172 11.9951C14.5674 11.9781 14.637 11.9826 14.7041 12.0048L14.7041 12.0048L14.7044 12.0049C14.8561 12.0538 15.0595 12.0776 15.2827 12.0921C15.4277 12.1015 15.583 12.1071 15.7398 12.1127C15.8245 12.1157 15.9097 12.1187 15.9939 12.1224C15.9944 12.1224 15.9949 12.1224 15.9954 12.1224C16.2385 12.1224 16.4878 12.1172 16.7126 12.1C16.9368 12.0828 17.139 12.0536 17.2868 12.0048L17.2868 12.0048C17.354 11.9826 17.4235 11.9779 17.4738 11.9948C17.4983 12.003 17.5172 12.016 17.5303 12.0338C17.5432 12.0515 17.5522 12.0766 17.5522 12.1124C17.5522 12.1231 17.5571 12.1332 17.5656 12.1399C17.574 12.1466 17.585 12.1492 17.5956 12.1469C17.6152 12.1427 17.6294 12.1468 17.643 12.156C17.6584 12.1665 17.6725 12.183 17.6894 12.2043C17.6909 12.2061 17.6923 12.208 17.6939 12.2099C17.7083 12.2283 17.7257 12.2503 17.7458 12.266C17.7466 12.2667 17.7474 12.2673 17.7483 12.268C17.7394 12.2856 17.7341 12.3067 17.7298 12.3239C17.7291 12.3268 17.7284 12.3297 17.7277 12.3323C17.7218 12.3554 17.7156 12.3751 17.7045 12.3916C17.6941 12.4071 17.6784 12.4213 17.6502 12.4306C17.6356 12.4354 17.6258 12.4489 17.6258 12.464C17.6258 12.5135 17.625 12.5455 17.6121 12.5695C17.6014 12.5895 17.5781 12.6103 17.5123 12.6219C17.5112 12.6221 17.5101 12.6224 17.509 12.6227C17.1758 12.715 16.6027 12.7624 15.9997 12.7624H15.9912C15.388 12.7624 14.8151 12.7161 14.4864 12.6228C14.4851 12.6224 14.4839 12.6221 14.4826 12.6219C14.4143 12.6102 14.39 12.5893 14.379 12.5694C14.3659 12.5458 14.365 12.5141 14.365 12.464C14.365 12.4485 14.3547 12.4348 14.3397 12.4303C14.3115 12.4218 14.296 12.4082 14.2858 12.3932C14.2748 12.377 14.2686 12.3574 14.2628 12.3341C14.2621 12.3313 14.2613 12.3283 14.2606 12.3252C14.2564 12.3077 14.2512 12.2864 14.2424 12.2687Z" fill="#C09300"/>
<path d="M16.0248 10.0701L18.0962 11.9648L17.949 8.52585C17.9277 7.99954 17.4669 8.12375 17.133 8.31533C16.7949 8.52585 16.4088 8.52585 16.0002 8.38796C15.5928 8.52901 15.2056 8.52901 14.8674 8.31533C14.5336 8.12691 14.0738 8.00691 14.0514 8.52585L13.9042 11.9732L16.0248 10.0785V10.0701Z" fill="white"/>
<path fill-rule="evenodd" clip-rule="evenodd" d="M17.8741 8.23304C17.9293 8.29676 17.9628 8.39237 17.9683 8.52642L17.9683 8.52646M16.0293 10.1014L13.9172 11.9886C13.9114 11.9938 13.9031 11.995 13.8961 11.9917C13.8891 11.9885 13.8848 11.9814 13.8851 11.9738L14.0323 8.52642L14.0323 8.52642C14.038 8.39413 14.0717 8.29962 14.1269 8.23651C14.1825 8.17307 14.2577 8.14373 14.3413 8.1378C14.5067 8.12606 14.7094 8.20564 14.877 8.30025L14.8778 8.30072L14.8778 8.30074C15.2095 8.51033 15.5901 8.51124 15.9939 8.37145C15.998 8.37004 16.0024 8.37002 16.0065 8.3714C16.4115 8.5081 16.7911 8.50719 17.1228 8.30067L17.1234 8.30031L17.1234 8.30032C17.291 8.20414 17.4939 8.12265 17.6596 8.13384C17.7433 8.1395 17.8186 8.16894 17.8741 8.23304M16.0293 10.1014L18.0832 11.9801C18.0889 11.9853 18.0973 11.9866 18.1043 11.9834C18.1114 11.9801 18.1158 11.973 18.1155 11.9654L17.9683 8.52646M16.0056 10.0714V10.0714C16.0056 10.0639 16.0101 10.0571 16.0171 10.0541C16.0241 10.0511 16.0323 10.0524 16.0379 10.0575L18.0751 11.921L17.9299 8.52802L17.9299 8.52798C17.9247 8.3989 17.8926 8.31268 17.8449 8.25766C17.7976 8.20301 17.7329 8.17678 17.657 8.17165C17.5035 8.16128 17.3092 8.23758 17.143 8.33291C16.8003 8.54616 16.41 8.54631 16.0003 8.40937C15.5917 8.54946 15.2003 8.54932 14.8575 8.33291C14.6914 8.23921 14.4974 8.16471 14.344 8.17559C14.2681 8.18098 14.2034 8.20717 14.156 8.26129C14.1083 8.31574 14.0761 8.40084 14.0707 8.52802C14.0707 8.52802 14.0707 8.52803 14.0707 8.52803L13.9254 11.9302L16.0056 10.0714Z" fill="#C09300"/>
<path d="M16.6028 8.97473L16.6722 10.6358L16.8674 10.8242L16.7938 8.99578C16.7294 9.00093 16.6645 8.99378 16.6028 8.97473Z" fill="#C09300"/>
<path d="M16.0961 10.4484L16.3873 11.7548L16.2913 11.8484L16.191 11.7758L16.0257 10.6105L16.095 11.7758L16.0001 11.8948L15.9041 11.7748L15.9734 10.6095L15.8081 11.7748L15.7078 11.8474L15.6129 11.7537L15.9041 10.4474L16.0961 10.4484Z" fill="#C09300"/>
<path fill-rule="evenodd" clip-rule="evenodd" d="M15.8916 10.4315L16.1094 10.4327L16.4052 11.7599L16.2932 11.8691L16.1765 11.7846L16.0653 11.0012L16.1117 11.7809L16.0005 11.9202L15.8881 11.7798L15.9345 11.0001L15.8234 11.7835L15.7066 11.8681L15.5958 11.7587L15.8916 10.4315ZM15.9173 10.4632L15.6308 11.7486L15.7098 11.8266L15.7936 11.766L15.958 10.6073L15.9898 10.6104L15.9208 11.7697L16.0005 11.8692L16.0791 11.7707L16.0101 10.6115L16.0419 10.6083L16.2063 11.767L16.2901 11.8277L16.3702 11.7496L16.0836 10.4642L15.9173 10.4632Z" fill="#C09300"/>
<path d="M14.2934 8.40234L14.1505 11.755L13.9073 11.9655L14.0545 8.51813C14.1262 8.46538 14.2072 8.42613 14.2934 8.40234Z" fill="#C09300"/>
<path d="M14.5815 8.64155L14.4599 11.4468L14.2167 11.6921L14.3639 8.45312C14.4119 8.50049 14.5549 8.61628 14.5773 8.64155H14.5815Z" fill="#C09300"/>
<path d="M14.8456 8.85394L14.7506 11.1929L14.5554 11.3813L14.677 8.71289C14.725 8.76026 14.82 8.82868 14.8466 8.85394H14.8456Z" fill="#C09300"/>
<path d="M15.1315 8.97473L15.0397 10.9684L14.8488 11.121L14.9448 8.9021C15.0045 8.93548 15.0688 8.95996 15.1357 8.97473H15.1315Z" fill="#C09300"/>
<path d="M15.3966 8.97467L15.3273 10.6315L15.1321 10.8199L15.2057 8.99151C15.2701 8.99665 15.3349 8.98951 15.3966 8.97046V8.97467Z" fill="#C09300"/>
<path d="M17.7067 8.40234L17.8496 11.755L18.0928 11.9655L17.9456 8.51813C17.8738 8.46538 17.7928 8.42613 17.7067 8.40234Z" fill="#C09300"/>
<path d="M17.4183 8.64155L17.5399 11.4468L17.7831 11.6921L17.6359 8.45312C17.5879 8.50049 17.445 8.61628 17.4226 8.64155H17.4183Z" fill="#C09300"/>
<path d="M17.1543 8.85394L17.2492 11.1929L17.4444 11.3813L17.3228 8.71289C17.2748 8.76026 17.1799 8.82868 17.1532 8.85394H17.1543Z" fill="#C09300"/>
<path d="M16.8679 8.97473L16.9639 10.9684L17.1549 11.121L17.0589 8.9021C16.9992 8.93548 16.9348 8.95996 16.8679 8.97473Z" fill="#C09300"/>
<path d="M15.3492 9.87605L14.7722 11.8961L15.5668 12.0161L15.9039 10.4961L15.3482 9.875L15.3492 9.87605Z" fill="white"/>
<path fill-rule="evenodd" clip-rule="evenodd" d="M15.3357 9.86032C15.3429 9.8537 15.3541 9.85387 15.361 9.86071L15.362 9.86176C15.3628 9.86246 15.3634 9.86321 15.364 9.86399L15.9175 10.4826C15.9213 10.4868 15.9228 10.4927 15.9216 10.4982L15.5845 12.0182C15.5825 12.0275 15.5735 12.0335 15.5641 12.0321L14.7694 11.9121C14.7643 11.9113 14.7597 11.9084 14.7569 11.9041C14.7541 11.8998 14.7533 11.8945 14.7547 11.8896L15.3301 9.8753C15.3295 9.86991 15.3314 9.86432 15.3357 9.86032ZM15.3576 9.91097L14.7952 11.8798L15.5528 11.9942L15.8842 10.4995L15.3576 9.91097Z" fill="#C09300"/>
<path d="M16.6505 9.87605L17.2276 11.8971L16.434 12.0171L16.0948 10.4961L16.6505 9.875V9.87605Z" fill="white"/>
<path fill-rule="evenodd" clip-rule="evenodd" d="M16.6685 9.87165C16.6679 9.86492 16.6634 9.85906 16.6569 9.85663C16.6498 9.85399 16.6419 9.85594 16.6369 9.86152L16.0811 10.4826C16.0773 10.4869 16.0758 10.4927 16.077 10.4983L16.4162 12.0193C16.4183 12.0285 16.4272 12.0346 16.4367 12.0332L17.2303 11.9132C17.2354 11.9124 17.24 11.9095 17.2428 11.9052C17.2456 11.9008 17.2464 11.8956 17.245 11.8906L16.6685 9.87165ZM16.6418 9.91007L16.1144 10.4994L16.448 11.9952L17.2045 11.8808L16.6418 9.91007Z" fill="#C09300"/>
<path fill-rule="evenodd" clip-rule="evenodd" d="M16.3834 10.3652C16.3907 10.3577 16.4028 10.3574 16.4105 10.3646L16.7656 10.6991L16.8243 10.5575C16.8283 10.5478 16.8395 10.5431 16.8493 10.5471C16.8591 10.5511 16.8638 10.5621 16.8598 10.5718L16.7905 10.7392C16.7881 10.745 16.7829 10.7492 16.7767 10.7505C16.7705 10.7518 16.7641 10.75 16.7595 10.7457L16.384 10.392C16.3763 10.3848 16.376 10.3728 16.3834 10.3652Z" fill="#C09300"/>
<path fill-rule="evenodd" clip-rule="evenodd" d="M16.7618 10.9048C16.7685 10.9031 16.7755 10.9051 16.7803 10.9099L17.0277 11.1604C17.0325 11.1652 17.0343 11.1722 17.0325 11.1786L16.9067 11.6344C16.9046 11.6417 16.8984 11.6471 16.8908 11.6482C16.8832 11.6493 16.8757 11.6458 16.8717 11.6393L16.7196 11.3924L16.6376 11.6406C16.6353 11.6475 16.6291 11.6526 16.6218 11.6535C16.6144 11.6544 16.6072 11.6511 16.6032 11.6449L16.4479 11.4064L16.3725 11.7586C16.3703 11.7689 16.3601 11.7754 16.3498 11.7732C16.3394 11.7711 16.3328 11.761 16.3349 11.7508L16.4172 11.3665L16.1564 10.9746C16.1505 10.9658 16.153 10.9541 16.1619 10.9483C16.1707 10.9426 16.1826 10.945 16.1884 10.9538L16.4274 11.3127L16.4927 10.9566C16.4941 10.9492 16.4998 10.9432 16.5072 10.9415C16.5147 10.9398 16.5225 10.9426 16.527 10.9487L16.6808 11.1535L16.7481 10.918C16.7499 10.9115 16.7552 10.9064 16.7618 10.9048ZM16.4589 11.3532L16.6136 11.5909L16.696 11.3415C16.6983 11.3344 16.7046 11.3294 16.7121 11.3285C16.7195 11.3277 16.7268 11.3312 16.7307 11.3375L16.8813 11.582L16.9926 11.1791L16.776 10.9598L16.7071 11.2009C16.7052 11.2079 16.6993 11.2131 16.6921 11.2144C16.6849 11.2157 16.6776 11.2128 16.6732 11.207L16.5226 11.0064L16.4589 11.3532Z" fill="#C09300"/>
<path fill-rule="evenodd" clip-rule="evenodd" d="M15.617 10.3652C15.6243 10.3728 15.624 10.3848 15.6164 10.392L15.2409 10.7457C15.2363 10.75 15.2298 10.7518 15.2236 10.7505C15.2174 10.7492 15.2123 10.745 15.2099 10.7392L15.1405 10.5718C15.1365 10.5621 15.1412 10.5511 15.151 10.5471C15.1609 10.5431 15.1721 10.5478 15.1761 10.5575L15.2348 10.6991L15.5898 10.3646C15.5975 10.3574 15.6097 10.3577 15.617 10.3652Z" fill="#C09300"/>
<path fill-rule="evenodd" clip-rule="evenodd" d="M15.4153 10.1251C15.4259 10.124 15.4354 10.1315 15.4365 10.1419L15.5103 10.821L15.72 10.5503C15.7264 10.542 15.7385 10.5404 15.7469 10.5468C15.7553 10.5531 15.757 10.565 15.7505 10.5734L15.5116 10.8818C15.5068 10.8879 15.4987 10.8906 15.4912 10.8885C15.4836 10.8864 15.4781 10.88 15.4772 10.8723L15.3983 10.146C15.3972 10.1356 15.4048 10.1262 15.4153 10.1251Z" fill="#C09300"/>
<path fill-rule="evenodd" clip-rule="evenodd" d="M15.6338 10.6649C15.644 10.662 15.6546 10.6678 15.6576 10.6779L15.7877 11.1221C15.7907 11.1321 15.7848 11.1426 15.7746 11.1455C15.7644 11.1485 15.7538 11.1427 15.7508 11.1326L15.6207 10.6884C15.6177 10.6783 15.6236 10.6678 15.6338 10.6649Z" fill="#C09300"/>
<path fill-rule="evenodd" clip-rule="evenodd" d="M15.2311 10.9048C15.2377 10.9064 15.2429 10.9115 15.2448 10.918L15.3121 11.1535L15.4658 10.9487C15.4704 10.9426 15.4782 10.9398 15.4856 10.9415C15.4931 10.9432 15.4988 10.9492 15.5001 10.9566L15.5655 11.3127L15.8044 10.9538C15.8102 10.945 15.8221 10.9426 15.831 10.9483C15.8399 10.9541 15.8423 10.9658 15.8365 10.9746L15.5756 11.3665L15.6579 11.7508C15.6601 11.761 15.6535 11.7711 15.6431 11.7732C15.6327 11.7754 15.6225 11.7689 15.6203 11.7586L15.5449 11.4064L15.3897 11.6449C15.3857 11.6511 15.3784 11.6544 15.3711 11.6535C15.3637 11.6526 15.3576 11.6475 15.3553 11.6406L15.2733 11.3924L15.1211 11.6393C15.1171 11.6458 15.1096 11.6493 15.102 11.6482C15.0944 11.6471 15.0882 11.6417 15.0862 11.6344L14.9603 11.1786C14.9585 11.1722 14.9604 11.1652 14.9651 11.1604L15.2126 10.9099C15.2174 10.9051 15.2244 10.9031 15.2311 10.9048ZM15.5339 11.3532L15.3792 11.5909L15.2968 11.3415C15.2945 11.3344 15.2883 11.3294 15.2808 11.3285C15.2734 11.3277 15.2661 11.3312 15.2622 11.3375L15.1115 11.582L15.0003 11.1791L15.2169 10.9598L15.2857 11.2009C15.2877 11.2079 15.2935 11.2131 15.3007 11.2144C15.3079 11.2157 15.3153 11.2128 15.3196 11.207L15.4703 11.0064L15.5339 11.3532Z" fill="#C09300"/>
<path fill-rule="evenodd" clip-rule="evenodd" d="M15.1036 11.6075C15.1109 11.6087 15.1168 11.6138 15.1189 11.6207L15.2128 11.9217L15.3336 11.7188C15.3375 11.7123 15.3447 11.7087 15.3522 11.7095C15.3597 11.7103 15.3661 11.7154 15.3684 11.7224L15.4644 12.0098C15.4677 12.0197 15.4623 12.0304 15.4522 12.0337C15.4421 12.037 15.4313 12.0316 15.428 12.0217L15.3452 11.7741L15.2238 11.978C15.22 11.9844 15.2126 11.988 15.205 11.9872C15.1975 11.9863 15.1911 11.9811 15.1889 11.9739L15.0937 11.6685L14.9562 11.8593C14.9501 11.8679 14.9381 11.8699 14.9295 11.8638C14.9208 11.8577 14.9188 11.8459 14.9249 11.8374L15.0849 11.6153C15.0892 11.6094 15.0964 11.6064 15.1036 11.6075Z" fill="#C09300"/>
<path fill-rule="evenodd" clip-rule="evenodd" d="M16.9041 11.6075C16.9113 11.6064 16.9186 11.6094 16.9228 11.6153L17.0828 11.8374C17.089 11.8459 17.0869 11.8577 17.0783 11.8638C17.0696 11.8699 17.0577 11.8679 17.0515 11.8593L16.9141 11.6685L16.8188 11.9739C16.8166 11.9811 16.8103 11.9863 16.8027 11.9872C16.7952 11.988 16.7878 11.9844 16.7839 11.978L16.6625 11.7741L16.5798 12.0217C16.5765 12.0316 16.5656 12.037 16.5556 12.0337C16.5455 12.0304 16.54 12.0197 16.5433 12.0098L16.6393 11.7224C16.6417 11.7154 16.648 11.7103 16.6555 11.7095C16.663 11.7087 16.6703 11.7123 16.6741 11.7188L16.795 11.9217L16.8888 11.6207C16.891 11.6138 16.8969 11.6087 16.9041 11.6075Z" fill="#C09300"/>
<path d="M15.1799 11.895C15.372 11.9264 15.5672 11.9348 15.7613 11.9203C15.8562 11.9203 15.9266 12.0834 15.7357 12.1087C15.543 12.1244 15.3491 12.1159 15.1586 12.0834C15.037 12.0624 14.7725 12.015 14.6029 11.9677C14.4333 11.895 14.5549 11.7571 14.6509 11.775C14.8248 11.83 15.0033 11.8702 15.1842 11.895H15.1799Z" fill="white"/>
<path fill-rule="evenodd" clip-rule="evenodd" d="M14.6094 11.9492C14.5703 11.9322 14.5509 11.9128 14.5427 11.8957C14.5347 11.879 14.5361 11.8617 14.5444 11.8454C14.553 11.8287 14.5687 11.8135 14.588 11.8035C14.6068 11.7938 14.6276 11.7897 14.6462 11.7929C14.818 11.8471 14.9941 11.887 15.1727 11.912C15.174 11.9125 15.1754 11.9129 15.1768 11.9131C15.3701 11.9447 15.5666 11.9532 15.762 11.9387C15.7985 11.9391 15.8322 11.9715 15.8366 12.0068C15.8388 12.0234 15.8343 12.0403 15.8199 12.0547C15.8052 12.0696 15.7785 12.0833 15.7336 12.0893C15.5428 12.1048 15.3507 12.0964 15.1619 12.0642C15.0405 12.0432 14.7779 11.9961 14.6094 11.9492ZM15.1923 11.8772C15.3798 11.9071 15.5704 11.915 15.7598 11.9008L15.7613 11.9007V11.9008C15.8195 11.9008 15.8681 11.9497 15.8747 12.0021C15.8782 12.0294 15.8704 12.0581 15.8473 12.0813C15.8246 12.1041 15.7886 12.1202 15.7383 12.1269L15.7373 12.127L15.7373 12.127C15.543 12.1428 15.3475 12.1343 15.1554 12.1015L15.1553 12.1015C15.0339 12.0805 14.7684 12.033 14.5977 11.9853C14.5968 11.9851 14.596 11.9848 14.5953 11.9845C14.5503 11.9652 14.5216 11.9404 14.508 11.9119C14.4941 11.883 14.4973 11.8533 14.5102 11.8283C14.5228 11.8036 14.5449 11.7831 14.5701 11.77C14.5954 11.7569 14.6254 11.7504 14.6545 11.7558C14.6552 11.756 14.656 11.7562 14.6568 11.7564C14.8297 11.8111 15.007 11.851 15.1869 11.8757C15.1888 11.8759 15.1906 11.8765 15.1923 11.8772Z" fill="#C09300"/>
<path d="M16.8205 11.895C16.6299 11.9263 16.4361 11.9348 16.2434 11.9203C16.1432 11.9203 16.0738 12.0834 16.2648 12.1087C16.4574 12.1244 16.6513 12.1159 16.8418 12.0834C16.9634 12.0624 17.228 12.015 17.3976 11.9677C17.5672 11.895 17.4456 11.7571 17.3496 11.775C17.1756 11.83 16.9972 11.8702 16.8162 11.895H16.8205Z" fill="white"/>
<path fill-rule="evenodd" clip-rule="evenodd" d="M17.4925 11.9119C17.4789 11.9404 17.4502 11.9652 17.4052 11.9845C17.4045 11.9848 17.4036 11.9851 17.4028 11.9853C17.2321 12.033 16.9666 12.0805 16.8452 12.1015L16.8451 12.1015C16.653 12.1343 16.4575 12.1429 16.2632 12.127L16.2622 12.1269L16.2622 12.1269C16.2119 12.1202 16.1759 12.1042 16.1531 12.0813C16.1299 12.0581 16.1222 12.0293 16.1259 12.0019C16.1331 11.9491 16.1832 11.9008 16.2435 11.9008H16.2449L16.2449 11.9008C16.433 11.9149 16.6221 11.907 16.8082 11.8772C16.8099 11.8765 16.8117 11.8759 16.8136 11.8757C16.9935 11.851 17.1708 11.8111 17.3437 11.7564C17.3445 11.7562 17.3453 11.756 17.346 11.7558C17.3751 11.7504 17.4051 11.7569 17.4304 11.77C17.4556 11.7831 17.4777 11.8036 17.4903 11.8283C17.5032 11.8533 17.5064 11.883 17.4925 11.9119ZM16.8278 11.912C16.8265 11.9125 16.8251 11.9129 16.8237 11.9131C16.6318 11.9446 16.4367 11.9532 16.2428 11.9387C16.2031 11.939 16.1687 11.9721 16.164 12.007C16.1617 12.0235 16.1661 12.0403 16.1805 12.0547C16.1953 12.0695 16.222 12.0833 16.2669 12.0893C16.4577 12.1048 16.6498 12.0964 16.8386 12.0642C16.96 12.0432 17.2226 11.9961 17.3911 11.9492C17.4302 11.9322 17.4496 11.9128 17.4578 11.8957C17.4658 11.879 17.4644 11.8617 17.4561 11.8454C17.4475 11.8287 17.4317 11.8135 17.4125 11.8035C17.3937 11.7938 17.3729 11.7897 17.3543 11.7929C17.1825 11.8471 17.0064 11.887 16.8278 11.912Z" fill="#C09300"/>
<path d="M14.5813 11.8018C14.5515 11.7985 14.5215 11.8032 14.4942 11.8152C14.4669 11.8273 14.4434 11.8463 14.426 11.8704C14.4087 11.8945 14.3983 11.9227 14.3957 11.9521C14.3932 11.9815 14.3987 12.011 14.4117 12.0376C14.433 11.9902 14.5333 11.9902 14.5546 11.9439C14.5802 11.8713 14.5333 11.8713 14.5802 11.8029L14.5813 11.8018Z" fill="white"/>
<path fill-rule="evenodd" clip-rule="evenodd" d="M14.4864 11.7971C14.5168 11.7836 14.5504 11.7785 14.5835 11.7822C14.5908 11.783 14.597 11.7878 14.5995 11.7947C14.6019 11.8015 14.6002 11.809 14.5952 11.8141C14.5849 11.8293 14.5806 11.8396 14.5788 11.8471C14.577 11.8545 14.5773 11.8605 14.5785 11.8682C14.5787 11.8697 14.579 11.8713 14.5793 11.873C14.5805 11.8801 14.582 11.8894 14.5821 11.8999C14.5822 11.9136 14.5799 11.9293 14.5728 11.9493C14.5726 11.9499 14.5724 11.9504 14.5722 11.9509C14.5644 11.9677 14.5502 11.9789 14.5359 11.987C14.5221 11.9949 14.506 12.0011 14.4915 12.0067C14.491 12.0069 14.4906 12.007 14.4902 12.0072C14.4747 12.0132 14.461 12.0185 14.4498 12.025C14.4387 12.0314 14.4323 12.0378 14.4293 12.0445C14.4263 12.0512 14.4195 12.0556 14.412 12.0557C14.4045 12.0558 14.3977 12.0516 14.3944 12.045C14.38 12.0153 14.3739 11.9824 14.3767 11.9496C14.3795 11.9168 14.3912 11.8854 14.4105 11.8586C14.4298 11.8318 14.456 11.8105 14.4864 11.7971ZM14.548 11.8196C14.5322 11.8212 14.5167 11.8252 14.5021 11.8317C14.478 11.8424 14.4571 11.8592 14.4418 11.8805C14.4265 11.9018 14.4172 11.9268 14.415 11.9528C14.4136 11.9687 14.4149 11.9846 14.4187 12C14.4225 11.9971 14.4264 11.9946 14.4304 11.9923C14.4446 11.9841 14.4612 11.9777 14.476 11.972L14.4762 11.9719C14.4918 11.9659 14.5055 11.9606 14.5167 11.9542C14.5275 11.9481 14.5338 11.9421 14.5369 11.9359C14.5424 11.9201 14.5437 11.9089 14.5437 11.9001C14.5436 11.8929 14.5427 11.8873 14.5416 11.8806C14.5412 11.8785 14.5409 11.8762 14.5405 11.8738C14.539 11.8638 14.538 11.8524 14.5414 11.8383C14.5428 11.8324 14.545 11.8262 14.548 11.8196Z" fill="#C09300"/>
<path d="M15.1584 12.2382C15.1584 12.1446 15.2533 12.1561 15.2533 12.0614C15.2533 12.014 15.2277 11.9414 15.1797 11.9414C15.1552 11.9437 15.1323 11.9543 15.1148 11.9714C15.0973 11.9884 15.0863 12.0109 15.0837 12.0351C15.0624 12.1298 15.1584 12.1446 15.1584 12.2382Z" fill="white"/>
<path fill-rule="evenodd" clip-rule="evenodd" d="M15.1779 11.922C15.1785 11.9219 15.1791 11.9219 15.1798 11.9219C15.2148 11.9219 15.2382 11.9483 15.2517 11.9745C15.2655 12.0014 15.2726 12.0344 15.2726 12.0608C15.2726 12.088 15.2657 12.1086 15.2547 12.1255C15.2443 12.1415 15.2306 12.1534 15.2191 12.1634L15.2186 12.1638C15.2064 12.1745 15.1966 12.1831 15.1894 12.1941C15.1826 12.2045 15.1776 12.2178 15.1776 12.2377C15.1776 12.2481 15.169 12.2566 15.1584 12.2566C15.1478 12.2566 15.1392 12.2481 15.1392 12.2377C15.1392 12.2006 15.1221 12.1788 15.1017 12.1529C15.1004 12.1513 15.0992 12.1497 15.0979 12.1481C15.0872 12.1344 15.0755 12.1187 15.0684 12.0996C15.0612 12.0801 15.059 12.058 15.0648 12.0314C15.0681 12.0033 15.0809 11.9772 15.1013 11.9573C15.122 11.9371 15.149 11.9247 15.1779 11.922ZM15.16 12.1694C15.1698 12.1558 15.1819 12.1452 15.1923 12.1362C15.1926 12.1359 15.1929 12.1357 15.1932 12.1354C15.2053 12.1249 15.2151 12.1161 15.2224 12.105C15.2292 12.0945 15.2342 12.081 15.2342 12.0608C15.2342 12.0399 15.2284 12.0129 15.2174 11.9916C15.2063 11.9701 15.1932 11.9602 15.1806 11.9598C15.1609 11.9619 15.1424 11.9705 15.1283 11.9842C15.114 11.9982 15.105 12.0167 15.1028 12.0365C15.1028 12.0372 15.1027 12.0379 15.1025 12.0386C15.0979 12.0589 15.0998 12.0739 15.1045 12.0865C15.1093 12.0997 15.1177 12.1114 15.1283 12.1249C15.1297 12.1267 15.1312 12.1286 15.1327 12.1305C15.1417 12.1419 15.1517 12.1545 15.16 12.1694Z" fill="#C09300"/>
<path d="M15.8451 11.9688C15.9881 11.9688 15.9742 12.1572 15.9049 12.2519C15.9049 12.1835 15.7833 12.1572 15.7833 12.1109C15.7833 12.0382 15.8899 12.0382 15.8451 11.9698V11.9688Z" fill="white"/>
<path fill-rule="evenodd" clip-rule="evenodd" d="M15.826 11.9684C15.826 11.9579 15.8346 11.9495 15.8452 11.9495C15.8856 11.9495 15.9169 11.963 15.9387 11.9866C15.9601 12.0097 15.9706 12.0405 15.9737 12.0727C15.9799 12.1364 15.9577 12.2118 15.9205 12.2627C15.9156 12.2693 15.9069 12.2721 15.899 12.2696C15.8911 12.2671 15.8857 12.2598 15.8857 12.2516C15.8857 12.2405 15.8809 12.2303 15.8715 12.2197C15.8618 12.2088 15.8483 12.1987 15.8331 12.1883C15.8304 12.1864 15.8277 12.1846 15.8249 12.1827C15.8127 12.1744 15.7997 12.1656 15.7895 12.1566C15.7773 12.1458 15.7641 12.1306 15.7641 12.1105C15.7641 12.0681 15.7935 12.0444 15.8128 12.0287C15.8149 12.027 15.8168 12.0254 15.8186 12.024C15.8294 12.015 15.8344 12.0093 15.8362 12.0041C15.8374 12.0007 15.8383 11.9939 15.829 11.9797C15.827 11.9767 15.826 11.9731 15.826 11.9695V11.9684ZM15.9104 12.0121C15.9016 12.0027 15.8901 11.9951 15.8747 11.991C15.876 11.9996 15.8754 12.008 15.8726 12.0162C15.867 12.0325 15.8538 12.0442 15.8435 12.0529C15.8416 12.0544 15.8398 12.0559 15.838 12.0574C15.8173 12.0746 15.8025 12.0868 15.8025 12.1105C15.8025 12.1135 15.8045 12.119 15.8151 12.1283C15.8233 12.1356 15.8336 12.1426 15.8456 12.1508C15.8487 12.1528 15.8518 12.155 15.8551 12.1572C15.8703 12.1677 15.8872 12.18 15.9003 12.1947C15.9036 12.1984 15.9068 12.2023 15.9096 12.2065C15.9291 12.1663 15.9396 12.1178 15.9355 12.0763C15.9329 12.0494 15.9244 12.0273 15.9104 12.0121Z" fill="#C09300"/>
<path d="M17.4183 11.8018C17.4481 11.7985 17.4781 11.8032 17.5054 11.8152C17.5327 11.8273 17.5562 11.8463 17.5735 11.8704C17.5908 11.8945 17.6013 11.9227 17.6038 11.9521C17.6064 11.9815 17.6009 12.011 17.5879 12.0376C17.5666 11.9902 17.4663 11.9902 17.445 11.9439C17.4194 11.8713 17.4663 11.8713 17.4194 11.8029L17.4183 11.8018Z" fill="white"/>
<path fill-rule="evenodd" clip-rule="evenodd" d="M17.4517 11.8196C17.4547 11.8262 17.4569 11.8324 17.4583 11.8383C17.4617 11.8524 17.4607 11.8638 17.4592 11.8738C17.4589 11.8762 17.4585 11.8785 17.4581 11.8806C17.457 11.8873 17.4561 11.8929 17.456 11.9001C17.456 11.9089 17.4574 11.9201 17.4628 11.9359C17.4659 11.9421 17.4722 11.9481 17.483 11.9542C17.4942 11.9606 17.5079 11.9659 17.5235 11.9719L17.5237 11.972C17.5385 11.9777 17.5551 11.9841 17.5694 11.9923C17.5733 11.9946 17.5773 11.9971 17.581 12C17.5848 11.9846 17.5861 11.9687 17.5847 11.9528C17.5825 11.9268 17.5732 11.9018 17.5579 11.8805C17.5426 11.8592 17.5218 11.8424 17.4976 11.8317C17.483 11.8252 17.4675 11.8212 17.4517 11.8196ZM17.4045 11.8141C17.3995 11.809 17.3979 11.8015 17.4003 11.7947C17.4027 11.7878 17.4089 11.783 17.4162 11.7822C17.4494 11.7785 17.4829 11.7836 17.5133 11.7971C17.5437 11.8105 17.5699 11.8318 17.5892 11.8586C17.6085 11.8854 17.6202 11.9168 17.623 11.9496C17.6258 11.9824 17.6197 12.0153 17.6053 12.045C17.602 12.0516 17.5952 12.0558 17.5877 12.0557C17.5802 12.0556 17.5735 12.0512 17.5704 12.0445C17.5674 12.0378 17.561 12.0314 17.5499 12.025C17.5387 12.0185 17.525 12.0132 17.5095 12.0072C17.5091 12.007 17.5087 12.0069 17.5083 12.0067C17.4937 12.0011 17.4776 11.9949 17.4638 11.987C17.4495 11.9789 17.4353 11.9677 17.4276 11.9509C17.4273 11.9504 17.4271 11.9499 17.4269 11.9493C17.4199 11.9293 17.4176 11.9136 17.4176 11.8999C17.4177 11.8894 17.4193 11.8801 17.4205 11.873C17.4208 11.8713 17.421 11.8697 17.4212 11.8682C17.4224 11.8605 17.4228 11.8545 17.421 11.8471C17.4191 11.8396 17.4148 11.8293 17.4045 11.8141Z" fill="#C09300"/>
<path d="M16.8419 12.2382C16.8419 12.1446 16.7469 12.1561 16.7469 12.0614C16.7469 12.014 16.7725 11.9414 16.8205 11.9414C16.845 11.9437 16.868 11.9543 16.8855 11.9714C16.903 11.9884 16.914 12.0109 16.9165 12.0351C16.9379 12.1298 16.8429 12.1404 16.8429 12.2372L16.8419 12.2382Z" fill="white"/>
<path fill-rule="evenodd" clip-rule="evenodd" d="M16.783 11.9916C16.772 12.0129 16.7662 12.0399 16.7662 12.0608C16.7662 12.081 16.7712 12.0945 16.778 12.105C16.7853 12.1161 16.7951 12.1249 16.8072 12.1354C16.8075 12.1357 16.8078 12.1359 16.8081 12.1362C16.8184 12.1452 16.8304 12.1556 16.8403 12.1692C16.8488 12.153 16.8594 12.1398 16.8689 12.1279C16.8702 12.1263 16.8715 12.1247 16.8727 12.1231C16.8832 12.1098 16.8914 12.0987 16.8961 12.0859C16.9007 12.0737 16.9025 12.059 16.8979 12.0386C16.8977 12.0379 16.8976 12.0372 16.8976 12.0365C16.8954 12.0167 16.8864 11.9982 16.8721 11.9842C16.858 11.9705 16.8395 11.9619 16.8198 11.9598C16.8072 11.9602 16.7941 11.9701 16.783 11.9916ZM16.7487 11.9745C16.7622 11.9483 16.7856 11.9219 16.8206 11.9219C16.8212 11.9219 16.8219 11.9219 16.8225 11.922C16.8514 11.9247 16.8784 11.9371 16.8991 11.9573C16.9195 11.9772 16.9323 12.0033 16.9356 12.0314C16.9414 12.0579 16.9393 12.0798 16.9322 12.099C16.9251 12.1179 16.9135 12.1331 16.903 12.1464C16.9019 12.1478 16.9008 12.1491 16.8998 12.1505C16.8796 12.1758 16.8622 12.1976 16.8622 12.2366C16.8622 12.2416 16.8602 12.2465 16.8566 12.25L16.8556 12.2511C16.8501 12.2565 16.8418 12.2581 16.8346 12.2552C16.8275 12.2522 16.8228 12.2453 16.8228 12.2377C16.8228 12.2178 16.8178 12.2045 16.811 12.1941C16.8038 12.1831 16.794 12.1745 16.7818 12.1638L16.7813 12.1634C16.7698 12.1534 16.7561 12.1415 16.7457 12.1255C16.7347 12.1086 16.7278 12.088 16.7278 12.0608C16.7278 12.0344 16.7349 12.0014 16.7487 11.9745Z" fill="#C09300"/>
<path d="M16.1548 11.9688C16.0119 11.9688 16.0257 12.1572 16.0951 12.2519C16.0951 12.1835 16.2167 12.1572 16.2167 12.1109C16.2135 12.0372 16.1068 12.0372 16.1548 11.9688Z" fill="white"/>
<path fill-rule="evenodd" clip-rule="evenodd" d="M16.0613 11.9866C16.0831 11.963 16.1144 11.9495 16.1548 11.9495C16.162 11.9495 16.1685 11.9534 16.1718 11.9596C16.1751 11.9659 16.1747 11.9734 16.1706 11.9792C16.1604 11.9937 16.1612 12.0005 16.1622 12.0036C16.1637 12.0085 16.1683 12.014 16.179 12.0231C16.181 12.0247 16.1831 12.0264 16.1853 12.0283C16.2048 12.044 16.234 12.0677 16.2359 12.1097L16.2359 12.1105H16.2359C16.2359 12.1306 16.2227 12.1458 16.2105 12.1566C16.2003 12.1656 16.1873 12.1744 16.1751 12.1827C16.1723 12.1846 16.1696 12.1864 16.1669 12.1883C16.1517 12.1987 16.1382 12.2088 16.1285 12.2197C16.119 12.2303 16.1143 12.2405 16.1143 12.2516C16.1143 12.2598 16.1089 12.2671 16.101 12.2696C16.0931 12.2721 16.0844 12.2693 16.0795 12.2627C16.0423 12.2118 16.02 12.1364 16.0262 12.0727C16.0294 12.0405 16.0399 12.0097 16.0613 11.9866ZM16.0904 12.2065C16.0709 12.1663 16.0604 12.1178 16.0645 12.0763C16.0671 12.0494 16.0756 12.0273 16.0896 12.0121C16.0981 12.003 16.1092 11.9956 16.1239 11.9914C16.1226 11.9992 16.1231 12.0069 16.1254 12.0146C16.1305 12.0313 16.1437 12.0432 16.1541 12.0519C16.1564 12.0538 16.1586 12.0557 16.1608 12.0575C16.181 12.0743 16.1962 12.0869 16.1975 12.1108C16.1973 12.1139 16.1951 12.1193 16.1849 12.1283C16.1767 12.1356 16.1664 12.1426 16.1544 12.1508C16.1513 12.1528 16.1482 12.155 16.1449 12.1572C16.1297 12.1677 16.1127 12.18 16.0997 12.1947C16.0964 12.1984 16.0932 12.2023 16.0904 12.2065Z" fill="#C09300"/>
<path fill-rule="evenodd" clip-rule="evenodd" d="M14.6282 11.8359C14.6828 11.8359 14.7358 11.8534 14.7793 11.886C14.7845 11.8899 14.786 11.8969 14.783 11.9026C14.7799 11.9083 14.7731 11.911 14.767 11.9089L14.624 11.8616C14.6178 11.8595 14.6141 11.8533 14.6151 11.847C14.6162 11.8406 14.6217 11.8359 14.6282 11.8359Z" fill="#C09300"/>
<path fill-rule="evenodd" clip-rule="evenodd" d="M14.8541 11.9188C14.8554 11.9121 14.8617 11.9075 14.8686 11.9083C14.9289 11.9148 14.9876 11.9312 15.0425 11.9568C15.0487 11.9598 15.0517 11.9669 15.0492 11.9734C15.0468 11.9798 15.0398 11.9833 15.0331 11.9814L14.8635 11.934C14.8569 11.9322 14.8527 11.9256 14.8541 11.9188Z" fill="#C09300"/>
<path fill-rule="evenodd" clip-rule="evenodd" d="M15.5613 12.0253C15.6175 12.0058 15.6772 11.9984 15.7366 12.0036C15.7433 12.0042 15.7486 12.0097 15.7487 12.0164C15.7488 12.0232 15.7438 12.0289 15.737 12.0297L15.5674 12.0508C15.5607 12.0516 15.5544 12.0473 15.5528 12.0408C15.5512 12.0342 15.5549 12.0276 15.5613 12.0253Z" fill="#C09300"/>
<path fill-rule="evenodd" clip-rule="evenodd" d="M15.2907 12.0053C15.3189 11.9916 15.3499 11.9844 15.3814 11.9844C15.4129 11.9844 15.4439 11.9916 15.4721 12.0053C15.4777 12.0081 15.4806 12.0142 15.4792 12.0201C15.4778 12.0261 15.4724 12.0303 15.4662 12.0303H15.2966C15.2904 12.0303 15.285 12.0261 15.2836 12.0201C15.2822 12.0142 15.2851 12.0081 15.2907 12.0053Z" fill="#C09300"/>
<path d="M17.3718 11.8477C17.3203 11.8483 17.2703 11.8649 17.2288 11.895L17.3718 11.8477Z" fill="white"/>
<path fill-rule="evenodd" clip-rule="evenodd" d="M17.3851 11.8469C17.3862 11.8533 17.3824 11.8595 17.3762 11.8616L17.2333 11.9089C17.2271 11.911 17.2202 11.9083 17.2172 11.9025C17.2142 11.8968 17.2158 11.8897 17.2211 11.8859C17.2648 11.8541 17.3175 11.8366 17.3718 11.8359C17.3784 11.8359 17.384 11.8405 17.3851 11.8469Z" fill="#C09300"/>
<path d="M17.1333 11.9219C17.0745 11.9283 17.0172 11.9443 16.9637 11.9692L17.1333 11.9219Z" fill="white"/>
<path fill-rule="evenodd" clip-rule="evenodd" d="M17.1456 11.9188C17.1469 11.9256 17.1428 11.9322 17.1362 11.934L16.9666 11.9814C16.9599 11.9833 16.9529 11.9798 16.9504 11.9734C16.948 11.9669 16.951 11.9598 16.9572 11.9568C17.012 11.9312 17.0708 11.9148 17.1311 11.9083C17.138 11.9075 17.1443 11.9121 17.1456 11.9188Z" fill="#C09300"/>
<path d="M16.2641 12.0172C16.3215 12.0122 16.3793 12.0193 16.4337 12.0382L16.2641 12.0172Z" fill="white"/>
<path fill-rule="evenodd" clip-rule="evenodd" d="M16.2632 12.0036C16.3225 11.9984 16.3822 12.0058 16.4384 12.0253C16.4448 12.0275 16.4485 12.0342 16.4469 12.0407C16.4454 12.0473 16.4391 12.0516 16.4323 12.0508L16.2627 12.0297C16.2559 12.0289 16.2509 12.0231 16.251 12.0164C16.2512 12.0097 16.2564 12.0042 16.2632 12.0036Z" fill="#C09300"/>
<path d="M16.5333 12.0158C16.5596 12.0029 16.5886 11.9962 16.6181 11.9962C16.6475 11.9962 16.6765 12.0029 16.7029 12.0158H16.5333Z" fill="white"/>
<path fill-rule="evenodd" clip-rule="evenodd" d="M16.5276 12.0053C16.5558 11.9916 16.5868 11.9844 16.6183 11.9844C16.6498 11.9844 16.6808 11.9916 16.709 12.0053C16.7145 12.0081 16.7175 12.0142 16.7161 12.0201C16.7146 12.0261 16.7093 12.0303 16.7031 12.0303H16.5335C16.5273 12.0303 16.5219 12.0261 16.5205 12.0201C16.5191 12.0142 16.522 12.0081 16.5276 12.0053Z" fill="#C09300"/>
<path fill-rule="evenodd" clip-rule="evenodd" d="M16.5891 10.1251C16.5997 10.1262 16.6073 10.1356 16.6062 10.146L16.5272 10.8723C16.5264 10.88 16.5209 10.8864 16.5133 10.8885C16.5057 10.8906 16.4977 10.8879 16.4929 10.8818L16.2539 10.5734C16.2475 10.565 16.2491 10.5531 16.2575 10.5468C16.266 10.5404 16.278 10.542 16.2845 10.5503L16.4942 10.821L16.568 10.1419C16.5691 10.1315 16.5786 10.124 16.5891 10.1251Z" fill="#C09300"/>
<path d="M15.9996 10.8123C16.2863 10.5958 16.5174 10.3158 16.6742 9.99488C16.831 9.67395 16.909 9.32113 16.902 8.96493C16.8767 8.96991 16.851 8.97238 16.8252 8.97229C16.6183 8.97229 16.1244 8.85545 16.0092 8.70703C15.8855 8.84177 15.3809 8.97229 15.1751 8.97229C15.1493 8.97244 15.1235 8.96997 15.0983 8.96493C15.0909 9.32108 15.1686 9.67393 15.3252 9.99489C15.4818 10.3159 15.7129 10.5959 15.9996 10.8123Z" fill="white"/>
<path fill-rule="evenodd" clip-rule="evenodd" d="M16.0108 8.67969L16.0236 8.69623C16.0499 8.73006 16.0993 8.76376 16.1644 8.79526C16.229 8.82652 16.307 8.85472 16.3882 8.87842C16.5511 8.92592 16.7245 8.95468 16.8256 8.95468L16.8257 8.95468C16.8503 8.95476 16.8749 8.9524 16.899 8.94765L16.9196 8.94359L16.92 8.96435C16.9271 9.32327 16.8485 9.6788 16.6905 10.0022C16.5325 10.3256 16.2997 10.6077 16.0107 10.8258L16 10.8121L15.9893 10.8258C15.7004 10.6078 15.4676 10.3256 15.3098 10.0022C15.152 9.67877 15.0737 9.32321 15.0811 8.96433L15.0815 8.94354L15.1022 8.94766C15.1263 8.95247 15.1508 8.95482 15.1754 8.95468L15.1755 8.95468C15.2759 8.95468 15.4516 8.92259 15.6183 8.87331C15.7014 8.84873 15.7817 8.82006 15.8486 8.78933C15.9161 8.75837 15.9681 8.72613 15.9966 8.69512L16.0108 8.67969ZM16 10.7901C16.2796 10.5765 16.5052 10.3016 16.6588 9.9871C16.8114 9.6747 16.8888 9.33184 16.8851 8.98525C16.8654 8.98809 16.8455 8.98948 16.8256 8.98942C16.7198 8.98941 16.5429 8.95975 16.3783 8.91173C16.2958 8.88767 16.2158 8.85883 16.1489 8.82644C16.0908 8.79834 16.0411 8.76685 16.0086 8.73241C15.9743 8.76367 15.9231 8.79346 15.8635 8.82082C15.7946 8.85246 15.7126 8.88169 15.6284 8.90658C15.4605 8.95624 15.281 8.98941 15.1756 8.98942C15.1556 8.98953 15.1357 8.98815 15.116 8.98528C15.112 9.33182 15.1891 9.6747 15.3415 9.98712C15.495 10.3016 15.7205 10.5765 16 10.7901ZM15.1756 8.98942C15.1755 8.98942 15.1755 8.98942 15.1755 8.98942V8.97205L15.1756 8.98942C15.1756 8.98942 15.1756 8.98942 15.1756 8.98942ZM16.8256 8.98942C16.8256 8.98942 16.8256 8.98942 16.8256 8.98942L16.8256 8.97205V8.98942C16.8256 8.98942 16.8256 8.98942 16.8256 8.98942Z" fill="#C09300"/>
<path d="M16.8233 9.04453H16.7977C16.61 9.04453 16.1737 8.9498 16.0063 8.80664C15.8303 8.93822 15.3865 9.04453 15.202 9.04453H15.1764C15.1764 9.08559 15.1764 9.12875 15.1764 9.16875C15.1867 9.31581 15.2121 9.46147 15.2521 9.60348C15.3738 10.0428 15.6356 10.4318 15.9988 10.713C16.362 10.4314 16.6237 10.0421 16.7455 9.60243C16.7855 9.46041 16.8109 9.31476 16.8212 9.16769C16.8212 9.1298 16.8212 9.08769 16.8212 9.04664L16.8233 9.04453Z" fill="white"/>
<path d="M15.6793 8.54883H14.9657V10.9751H15.6793V8.54883Z" fill="#C09300"/>
<path d="M17.0523 8.54883H16.3014V10.9751H17.0523V8.54883Z" fill="#C09300"/>
<path fill-rule="evenodd" clip-rule="evenodd" d="M16.3563 10.6649C16.3665 10.6678 16.3723 10.6783 16.3694 10.6884L16.2392 11.1326C16.2363 11.1427 16.2257 11.1485 16.2155 11.1455C16.2053 11.1426 16.1994 11.1321 16.2024 11.1221L16.3325 10.6779C16.3354 10.6678 16.3461 10.662 16.3563 10.6649Z" fill="#C09300"/>
<path d="M14.5891 12.2253C14.5856 12.2249 14.5823 12.2237 14.5794 12.2218C14.5764 12.22 14.5739 12.2175 14.572 12.2146C14.57 12.2117 14.5688 12.2085 14.5682 12.205C14.5677 12.2016 14.5679 12.1981 14.5689 12.1948C14.5689 12.1769 14.5881 12.1664 14.603 12.1706C14.6179 12.1748 14.6286 12.1895 14.6286 12.1959C14.6286 12.2022 14.6201 12.218 14.6169 12.218H14.6115C14.6083 12.2193 14.6049 12.22 14.6014 12.22C14.5979 12.22 14.5945 12.2193 14.5913 12.218L14.5891 12.2253ZM16.251 12.3422C16.2469 12.3398 16.2434 12.3366 16.2406 12.3328C16.2379 12.329 16.236 12.3247 16.235 12.3201C16.2363 12.3129 16.2396 12.3063 16.2445 12.3009C16.2494 12.2955 16.2557 12.2916 16.2627 12.2895C16.2722 12.2915 16.2811 12.2958 16.2883 12.3022C16.2908 12.3044 16.2929 12.3072 16.2942 12.3103C16.2956 12.3134 16.2963 12.3167 16.2963 12.3201C16.2963 12.3234 16.2956 12.3268 16.2942 12.3299C16.2929 12.3329 16.2908 12.3357 16.2883 12.338C16.2777 12.342 16.2659 12.342 16.2553 12.338L16.251 12.3422ZM16.2617 12.4159C16.2562 12.4146 16.2514 12.4115 16.2481 12.4071C16.2447 12.4026 16.2431 12.3972 16.2435 12.3917C16.2435 12.3769 16.2435 12.3748 16.2595 12.3664L16.2702 12.3601H16.2809C16.2958 12.3664 16.3022 12.3738 16.3022 12.3832C16.3019 12.389 16.3 12.3945 16.2966 12.3992C16.2932 12.4039 16.2884 12.4075 16.283 12.4095C16.2798 12.4115 16.2761 12.4125 16.2723 12.4125C16.2686 12.4125 16.2649 12.4115 16.2617 12.4095V12.4159ZM14.6201 12.3243C14.6275 12.318 14.6275 12.3106 14.6201 12.3074C14.6126 12.3043 14.6126 12.3074 14.603 12.3074C14.5934 12.3074 14.5923 12.3138 14.5923 12.318C14.5923 12.3222 14.5923 12.3253 14.6115 12.3264H14.6201V12.3243ZM14.875 12.4559L14.8377 12.4474C14.8057 12.4411 14.7566 12.4306 14.7427 12.4264L14.7203 12.4211L14.6809 12.4095L14.6467 12.4001L14.6147 12.3906H14.6009H14.5891C14.582 12.3877 14.5744 12.3859 14.5667 12.3853C14.5598 12.3853 14.553 12.3837 14.5467 12.3808C14.5405 12.3779 14.5349 12.3737 14.5305 12.3685C14.5277 12.3648 14.5262 12.3604 14.5262 12.3559C14.5262 12.3513 14.5277 12.3469 14.5305 12.3432C14.5311 12.339 14.5311 12.3348 14.5305 12.3306C14.5297 12.3282 14.5297 12.3256 14.5305 12.3232C14.531 12.3212 14.531 12.319 14.5305 12.3169C14.5348 12.308 14.5406 12.2998 14.5475 12.2927C14.5571 12.2835 14.5694 12.2776 14.5827 12.2759C14.5869 12.2772 14.5914 12.2772 14.5955 12.2759C14.6021 12.2739 14.6092 12.2739 14.6158 12.2759H14.6318L14.6382 12.2653C14.6414 12.2602 14.6436 12.2545 14.6446 12.2485C14.6438 12.2443 14.6438 12.24 14.6446 12.2359C14.6473 12.2298 14.6495 12.2234 14.651 12.2169C14.6535 12.2016 14.6582 12.1867 14.6649 12.1727C14.6649 12.1727 14.6649 12.1674 14.6649 12.159C14.6624 12.1553 14.6586 12.1526 14.6542 12.1517C14.6457 12.1521 14.6375 12.1551 14.6307 12.1601C14.6242 12.1676 14.6151 12.1725 14.6051 12.1738C14.5992 12.1734 14.5934 12.1717 14.5882 12.1688C14.583 12.1659 14.5786 12.1618 14.5753 12.1569C14.5753 12.1495 14.5753 12.1495 14.5753 12.1401C14.5773 12.1351 14.5811 12.131 14.5859 12.1285C14.5987 12.1242 14.6126 12.1242 14.6254 12.1285C14.6254 12.1285 14.6318 12.1285 14.6446 12.1285H14.6606H14.6713C14.6766 12.1285 14.6819 12.1285 14.6819 12.1285C14.685 12.1274 14.6884 12.1274 14.6915 12.1285C14.695 12.1293 14.6987 12.1293 14.7022 12.1285C14.7053 12.1274 14.7087 12.1274 14.7118 12.1285C14.7118 12.1285 14.7193 12.1285 14.7225 12.1348C14.7257 12.1411 14.7225 12.1432 14.7225 12.1559C14.7211 12.1634 14.719 12.1709 14.7161 12.178C14.7149 12.1835 14.7149 12.1893 14.7161 12.1948C14.7177 12.1992 14.7177 12.2041 14.7161 12.2085C14.7152 12.2116 14.7152 12.2149 14.7161 12.218C14.717 12.2207 14.717 12.2237 14.7161 12.2264C14.7131 12.2316 14.7113 12.2373 14.7107 12.2432C14.7115 12.2492 14.7115 12.2552 14.7107 12.2611C14.7099 12.266 14.7099 12.271 14.7107 12.2759C14.7118 12.28 14.7118 12.2843 14.7107 12.2885C14.7096 12.2915 14.7096 12.2949 14.7107 12.298C14.7117 12.3028 14.7117 12.3078 14.7107 12.3127C14.708 12.3187 14.7062 12.3251 14.7054 12.3317C14.7063 12.3369 14.7063 12.3422 14.7054 12.3474C14.7046 12.3523 14.7046 12.3573 14.7054 12.3622C14.7063 12.3674 14.7063 12.3727 14.7054 12.378C14.7054 12.378 14.7054 12.3832 14.7054 12.3885C14.7118 12.3939 14.7193 12.398 14.7274 12.4005C14.7354 12.403 14.7439 12.404 14.7523 12.4032C14.7683 12.4032 14.7683 12.4032 14.7747 12.3959C14.7785 12.3909 14.7811 12.3851 14.7822 12.379C14.7815 12.3738 14.7815 12.3685 14.7822 12.3632C14.7833 12.3573 14.7833 12.3512 14.7822 12.3453C14.7822 12.3338 14.7822 12.3327 14.7737 12.3274C14.7651 12.3222 14.7662 12.3211 14.7683 12.3159C14.7709 12.3124 14.7743 12.3097 14.7782 12.3079C14.7821 12.306 14.7864 12.3052 14.7907 12.3053H14.7993L14.8099 12.3001L14.8238 12.2906C14.8334 12.2822 14.8398 12.2811 14.8451 12.2906C14.8505 12.3001 14.8451 12.2969 14.8451 12.3064C14.8441 12.313 14.8441 12.3198 14.8451 12.3264C14.8463 12.3305 14.8463 12.3349 14.8451 12.339C14.8426 12.3429 14.8408 12.3472 14.8398 12.3516C14.8384 12.3577 14.8366 12.3637 14.8345 12.3695C14.8336 12.3751 14.8336 12.3808 14.8345 12.3864C14.8355 12.3919 14.8355 12.3977 14.8345 12.4032C14.8281 12.4159 14.8291 12.4232 14.8345 12.4264H14.8441H14.859C14.8653 12.4253 14.8718 12.4253 14.8782 12.4264C14.8861 12.4292 14.8943 12.4309 14.9027 12.4316C14.9166 12.4316 14.9177 12.4317 14.923 12.4264C14.9277 12.4209 14.9309 12.4144 14.9326 12.4074V12.3906C14.9335 12.386 14.9331 12.3813 14.9316 12.3769C14.9301 12.3725 14.9275 12.3685 14.9241 12.3653C14.9113 12.3538 14.9166 12.339 14.9337 12.339C14.9448 12.3371 14.9554 12.3328 14.9646 12.3264C14.9785 12.3138 14.987 12.3106 14.9955 12.3148C14.998 12.3174 14.9994 12.3208 14.9994 12.3243C14.9994 12.3278 14.998 12.3312 14.9955 12.3338C14.9928 12.3395 14.9906 12.3455 14.9891 12.3516L14.9817 12.3801C14.9817 12.3885 14.9753 12.4032 14.9742 12.4127C14.9731 12.4222 14.9689 12.4359 14.9667 12.4422C14.9661 12.4478 14.9661 12.4534 14.9667 12.459C14.9674 12.4639 14.9674 12.4689 14.9667 12.4738C14.9593 12.4906 14.9475 12.4948 14.9241 12.4864L14.875 12.4559ZM14.5827 12.4559C14.5678 12.4422 14.5699 12.4316 14.5923 12.4159C14.6147 12.4001 14.6073 12.4095 14.6179 12.4159C14.6286 12.4222 14.635 12.4401 14.6179 12.4538C14.6155 12.4563 14.6125 12.4584 14.6092 12.4596C14.6059 12.4609 14.6023 12.4614 14.5987 12.4611C14.5951 12.4615 14.5914 12.4609 14.588 12.4594C14.5846 12.4579 14.5817 12.4556 14.5795 12.4527L14.5827 12.4559ZM14.6745 12.4832C14.6709 12.4825 14.6676 12.4811 14.6646 12.479C14.6617 12.4769 14.6592 12.4742 14.6574 12.4712C14.6556 12.4681 14.6545 12.4647 14.6541 12.4611C14.6537 12.4576 14.6541 12.454 14.6553 12.4506C14.6553 12.438 14.6617 12.4359 14.6809 12.4359C14.7001 12.4359 14.7065 12.4359 14.7065 12.458C14.7065 12.4801 14.7065 12.4706 14.7001 12.4759C14.6964 12.4788 14.6921 12.4809 14.6874 12.482C14.6828 12.4831 14.678 12.4831 14.6734 12.4822L14.6745 12.4832ZM17.3699 12.4832C17.3671 12.4817 17.3649 12.4793 17.3634 12.4765C17.3618 12.4738 17.3612 12.4706 17.3614 12.4674C17.3614 12.4548 17.3689 12.4464 17.3838 12.439C17.3987 12.4316 17.4126 12.4306 17.4211 12.4443C17.4297 12.458 17.4307 12.4695 17.4211 12.4822C17.4115 12.4948 17.4126 12.4895 17.3977 12.4895C17.3827 12.4895 17.3806 12.4895 17.3731 12.4832H17.3699ZM14.7971 12.518C14.7918 12.5167 14.787 12.5135 14.7839 12.5091C14.7807 12.5046 14.7794 12.4992 14.7801 12.4938C14.7801 12.4843 14.7801 12.4822 14.7875 12.4769C14.7926 12.4732 14.7984 12.4707 14.8046 12.4695C14.8072 12.4682 14.8102 12.4676 14.8131 12.4676C14.8161 12.4676 14.819 12.4682 14.8217 12.4695C14.8387 12.4811 14.8419 12.4927 14.8323 12.5032C14.8283 12.5087 14.8226 12.5127 14.816 12.5146C14.8094 12.5165 14.8024 12.5162 14.7961 12.5138L14.7971 12.518ZM15.4606 12.5474L15.4521 12.5401V12.5264C15.4511 12.5176 15.4511 12.5088 15.4521 12.5001C15.4532 12.492 15.4532 12.4839 15.4521 12.4759C15.4509 12.4675 15.4509 12.459 15.4521 12.4506C15.4552 12.4367 15.4573 12.4227 15.4585 12.4085C15.4595 12.3958 15.4612 12.3831 15.4638 12.3706C15.4646 12.3647 15.4646 12.3586 15.4638 12.3527C15.4627 12.344 15.4627 12.3351 15.4638 12.3264C15.4653 12.3149 15.4653 12.3032 15.4638 12.2916C15.4629 12.2825 15.4629 12.2734 15.4638 12.2643C15.4643 12.2601 15.4643 12.2558 15.4638 12.2516C15.4638 12.2464 15.4713 12.2338 15.4745 12.2338C15.4787 12.2369 15.4823 12.2409 15.4851 12.2453C15.4912 12.2533 15.498 12.2607 15.5054 12.2674C15.5342 12.2938 15.5331 12.2916 15.5235 12.3001L15.515 12.3064L15.5065 12.3127C15.504 12.3149 15.5021 12.3177 15.501 12.3209C15.4998 12.324 15.4995 12.3273 15.5001 12.3306C15.5011 12.3372 15.5011 12.344 15.5001 12.3506C15.4952 12.3727 15.4927 12.3953 15.4926 12.418C15.4934 12.4228 15.4934 12.4278 15.4926 12.4327C15.4915 12.4443 15.4915 12.4559 15.4926 12.4674C15.4937 12.479 15.4937 12.4906 15.4926 12.5022C15.4918 12.506 15.4918 12.5099 15.4926 12.5138C15.4934 12.5274 15.4901 12.541 15.483 12.5527C15.4809 12.5548 15.4784 12.5564 15.4756 12.5573C15.4729 12.5582 15.4699 12.5584 15.467 12.558C15.4634 12.5583 15.4598 12.5579 15.4565 12.5566C15.4531 12.5553 15.4502 12.5533 15.4478 12.5506L15.4606 12.5474ZM16.3395 12.5274H16.3513V12.5053H16.3417C16.3389 12.5047 16.3361 12.5049 16.3334 12.5058C16.3308 12.5068 16.3285 12.5084 16.3267 12.5106C16.3182 12.5201 16.3171 12.5264 16.3267 12.5306H16.3321H16.3438L16.3395 12.5274ZM16.2702 12.5738C16.2702 12.5674 16.2702 12.5653 16.2702 12.5538C16.2708 12.545 16.2708 12.5362 16.2702 12.5274C16.2691 12.5212 16.2691 12.5148 16.2702 12.5085C16.271 12.5047 16.271 12.5007 16.2702 12.4969C16.2702 12.4917 16.2702 12.4874 16.2787 12.4811C16.2822 12.4782 16.2851 12.4746 16.2873 12.4706C16.2928 12.4633 16.3001 12.4575 16.3086 12.4538H16.315C16.3184 12.4526 16.3222 12.4526 16.3257 12.4538C16.3295 12.4548 16.3335 12.4548 16.3374 12.4538C16.3427 12.4538 16.3438 12.4474 16.3427 12.4306C16.3441 12.4212 16.3441 12.4116 16.3427 12.4022C16.3419 12.3973 16.3419 12.3923 16.3427 12.3874C16.3427 12.3874 16.3427 12.3727 16.3427 12.3601C16.3427 12.3474 16.3427 12.3369 16.3353 12.3317L16.3203 12.3159C16.3203 12.3159 16.3065 12.3032 16.3086 12.3022C16.3232 12.2867 16.3389 12.2723 16.3555 12.259C16.3591 12.2584 16.3627 12.2588 16.366 12.2603C16.3692 12.2618 16.3719 12.2643 16.3737 12.2674C16.3745 12.2769 16.3745 12.2864 16.3737 12.2959C16.3737 12.3085 16.3737 12.3253 16.3737 12.3317C16.3737 12.338 16.3737 12.3611 16.3737 12.3811C16.3728 12.3958 16.3728 12.4106 16.3737 12.4253C16.3745 12.439 16.3745 12.4527 16.3737 12.4664C16.3728 12.4804 16.3728 12.4945 16.3737 12.5085C16.3746 12.5121 16.3763 12.5154 16.3786 12.5182C16.381 12.5211 16.3839 12.5235 16.3872 12.5252C16.3905 12.5268 16.3942 12.5278 16.3979 12.528C16.4016 12.5283 16.4054 12.5277 16.4089 12.5264H16.4302C16.4526 12.5264 16.4537 12.5264 16.4515 12.4906C16.4494 12.4548 16.4515 12.4653 16.4441 12.459C16.441 12.4552 16.4369 12.4523 16.4323 12.4506C16.4292 12.4499 16.4265 12.4481 16.4245 12.4456C16.4226 12.4431 16.4216 12.4401 16.4217 12.4369C16.4217 12.4369 16.4334 12.4201 16.4409 12.418L16.4558 12.4085C16.4686 12.398 16.4771 12.3969 16.4846 12.4085C16.4921 12.4201 16.4899 12.4169 16.4921 12.4453C16.4916 12.4582 16.4934 12.471 16.4974 12.4832C16.4996 12.4926 16.4996 12.5023 16.4974 12.5117C16.4956 12.5214 16.4956 12.5314 16.4974 12.5411C16.4988 12.5433 16.4996 12.5459 16.4996 12.5485C16.4996 12.5511 16.4988 12.5537 16.4974 12.5559V12.5674C16.4974 12.5738 16.4974 12.5748 16.4707 12.5748H16.4451H16.4153C16.3759 12.5749 16.3367 12.5781 16.2979 12.5843C16.2979 12.5843 16.2873 12.5843 16.267 12.5843H16.2403V12.5769L16.2702 12.5738ZM15.2483 12.3959C15.2547 12.3959 15.2547 12.3864 15.2483 12.3853C15.2442 12.3833 15.2408 12.3801 15.2386 12.3762C15.2363 12.3722 15.2352 12.3677 15.2355 12.3632C15.2355 12.3432 15.2249 12.3422 15.2078 12.3632L15.1907 12.378L15.1833 12.3843L15.1886 12.3895C15.1935 12.3943 15.1993 12.398 15.2057 12.4004C15.2122 12.4027 15.2191 12.4037 15.2259 12.4032C15.2329 12.4052 15.2403 12.4052 15.2473 12.4032L15.2483 12.3959ZM15.3187 12.6064H15.3123C15.3051 12.6001 15.2968 12.5951 15.2878 12.5917C15.2878 12.5917 15.2878 12.5916 15.2878 12.5853L15.2814 12.5653C15.2814 12.5517 15.2814 12.5411 15.2814 12.539C15.2814 12.5369 15.2814 12.5306 15.2814 12.5264C15.2747 12.5247 15.2678 12.5247 15.2611 12.5264C15.2398 12.5264 15.2377 12.5264 15.2302 12.518C15.2227 12.5095 15.2238 12.5106 15.2217 12.499C15.221 12.4926 15.2188 12.4865 15.2153 12.4811C15.2153 12.4811 15.2035 12.4759 15.2025 12.4811H15.1939C15.1918 12.4814 15.1898 12.4822 15.1881 12.4835C15.1864 12.4848 15.1851 12.4865 15.1843 12.4885C15.182 12.493 15.1791 12.4973 15.1758 12.5011C15.1705 12.5085 15.1694 12.5085 15.1555 12.5085C15.1481 12.5096 15.1405 12.5096 15.1331 12.5085C15.119 12.5042 15.1042 12.502 15.0894 12.5022C15.0542 12.5022 15.0382 12.5022 15.035 12.5106C15.0248 12.5278 15.009 12.5411 14.9902 12.5485H14.971H14.9593H14.9326C14.907 12.5485 14.8985 12.5411 14.8974 12.5327C14.8963 12.5243 14.9123 12.5201 14.9187 12.5222C14.9251 12.5243 14.9358 12.5222 14.9358 12.5222C14.9358 12.5222 14.9411 12.5222 14.9475 12.5222C14.9528 12.5215 14.9579 12.5197 14.9625 12.5169C14.9655 12.5158 14.969 12.5158 14.9721 12.5169C14.9774 12.5169 14.9795 12.5169 14.9849 12.5064C14.9876 12.5025 14.9898 12.4983 14.9913 12.4938C14.9906 12.491 14.9906 12.4881 14.9913 12.4853C14.9926 12.4809 14.9926 12.4761 14.9913 12.4717C14.9904 12.4657 14.9904 12.4597 14.9913 12.4538C14.9913 12.4453 14.9913 12.4432 14.9913 12.4295C14.9895 12.4235 14.9866 12.4178 14.9827 12.4127C14.9801 12.4101 14.9783 12.4068 14.9774 12.4032C14.9774 12.3927 14.9774 12.3822 14.9934 12.3653C14.9941 12.3619 14.9941 12.3583 14.9934 12.3548C14.9939 12.3516 14.9956 12.3486 14.9981 12.3465C15.0007 12.3443 15.0039 12.3432 15.0073 12.3432C15.0126 12.3432 15.0233 12.3548 15.0233 12.3611C15.0225 12.3642 15.0225 12.3675 15.0233 12.3706C15.0265 12.3783 15.0283 12.3865 15.0286 12.3948C15.0301 12.4115 15.0329 12.428 15.0371 12.4443C15.0392 12.4485 15.0422 12.4522 15.0459 12.4551C15.0496 12.458 15.0539 12.46 15.0585 12.4611H15.0777H15.1043C15.1171 12.4611 15.1171 12.4611 15.131 12.4474C15.136 12.4428 15.1403 12.4375 15.1438 12.4316C15.1438 12.4232 15.1139 12.4074 15.0905 12.4032C15.0862 12.4018 15.0826 12.3988 15.0805 12.3949C15.0783 12.391 15.0777 12.3865 15.0787 12.3822C15.0834 12.3703 15.0916 12.36 15.1022 12.3527C15.1116 12.3477 15.1217 12.3438 15.1321 12.3411L15.1545 12.3348L15.1609 12.3232C15.1663 12.3123 15.1744 12.3028 15.1845 12.2956C15.1945 12.2885 15.2062 12.2838 15.2185 12.2822C15.2281 12.2822 15.2302 12.2822 15.2387 12.2927L15.2483 12.3043C15.2564 12.3129 15.261 12.3241 15.2611 12.3359C15.2611 12.3443 15.2611 12.3559 15.2665 12.3559C15.2803 12.3662 15.2929 12.3783 15.3038 12.3917C15.3038 12.3917 15.3102 12.4064 15.3113 12.4159C15.3123 12.4253 15.3113 12.4338 15.2835 12.4338C15.2732 12.4327 15.2629 12.4327 15.2526 12.4338H15.2419V12.4453C15.2419 12.4611 15.2419 12.4664 15.2633 12.4685H15.2793H15.2878H15.2985C15.2985 12.4685 15.2985 12.4748 15.2985 12.499V12.5264H15.3059H15.3155C15.3164 12.5275 15.3176 12.5284 15.3188 12.529C15.3201 12.5296 15.3216 12.5299 15.323 12.5299C15.3244 12.5299 15.3258 12.5296 15.3271 12.529C15.3284 12.5284 15.3296 12.5275 15.3305 12.5264V12.5148C15.3313 12.5039 15.3313 12.493 15.3305 12.4822C15.3294 12.4699 15.3294 12.4576 15.3305 12.4453C15.3332 12.4339 15.335 12.4223 15.3358 12.4106C15.3346 12.4012 15.3346 12.3916 15.3358 12.3822C15.3371 12.372 15.3371 12.3618 15.3358 12.3516C15.3358 12.3295 15.3358 12.3232 15.3358 12.3201C15.3358 12.3169 15.3358 12.3117 15.3358 12.2895V12.2632L15.3262 12.2559C15.3198 12.2509 15.3166 12.2467 15.3166 12.2432C15.3166 12.2359 15.3166 12.2327 15.3305 12.2295L15.3497 12.2222L15.3614 12.2159C15.3671 12.2102 15.374 12.2059 15.3817 12.2032H15.3891C15.3915 12.2085 15.3927 12.2143 15.3927 12.2201C15.3927 12.2259 15.3915 12.2316 15.3891 12.2369C15.3878 12.2435 15.3878 12.2503 15.3891 12.2569C15.3902 12.2646 15.3902 12.2724 15.3891 12.2801C15.386 12.2953 15.3842 12.3108 15.3838 12.3264C15.385 12.34 15.385 12.3538 15.3838 12.3674C15.3827 12.3737 15.3827 12.3801 15.3838 12.3864C15.3846 12.3972 15.3846 12.4082 15.3838 12.419C15.3838 12.4295 15.3838 12.4464 15.3785 12.4569C15.3793 12.4657 15.3793 12.4745 15.3785 12.4832C15.3775 12.4909 15.3775 12.4987 15.3785 12.5064C15.378 12.5143 15.3762 12.5222 15.3731 12.5295C15.3724 12.5334 15.3724 12.5373 15.3731 12.5411C15.3707 12.5508 15.3655 12.5595 15.3582 12.5664C15.3558 12.5693 15.3523 12.5712 15.3486 12.5717L15.3358 12.5769C15.3237 12.5808 15.3106 12.5808 15.2985 12.5769L15.3187 12.6064ZM17.2281 12.4369C17.2419 12.4306 17.2462 12.4232 17.2409 12.4138C17.2389 12.4097 17.2356 12.4064 17.2316 12.4043C17.2275 12.4023 17.2229 12.4015 17.2185 12.4022C17.2057 12.4022 17.195 12.4117 17.195 12.4211C17.195 12.4306 17.195 12.4295 17.2046 12.4348L17.2163 12.4411H17.2291L17.2281 12.4369ZM17.0467 12.4369C17.0563 12.4369 17.0574 12.4317 17.0574 12.4253C17.0563 12.4191 17.0537 12.4133 17.0498 12.4083C17.0459 12.4034 17.0408 12.3994 17.035 12.3969C17.0211 12.3895 17.0158 12.3895 17.0094 12.3969C17.003 12.4043 17.0094 12.4043 17.0094 12.4138C17.0098 12.418 17.0098 12.4222 17.0094 12.4264C17.0094 12.4264 17.0233 12.4411 17.0286 12.4411H17.0435L17.0467 12.4369ZM16.9657 12.4443C16.9666 12.438 16.9666 12.4316 16.9657 12.4253C16.9641 12.4237 16.9623 12.4223 16.9603 12.4211C16.9518 12.4138 16.9475 12.4148 16.9379 12.4211C16.9351 12.4236 16.9329 12.4267 16.9316 12.4302C16.9303 12.4337 16.9299 12.4374 16.9305 12.4411C16.9305 12.459 16.9305 12.4611 16.9518 12.4611C16.9731 12.4611 16.9667 12.4611 16.9689 12.4538L16.9657 12.4443ZM16.7854 12.478C16.7929 12.478 16.795 12.4695 16.7929 12.4601C16.7922 12.457 16.7907 12.4541 16.7885 12.4518C16.7862 12.4495 16.7834 12.4479 16.7803 12.4471C16.7771 12.4463 16.7739 12.4465 16.7708 12.4474C16.7677 12.4484 16.765 12.4503 16.763 12.4527C16.7625 12.4555 16.7625 12.4583 16.763 12.4611C16.763 12.4611 16.763 12.4611 16.763 12.4685V12.4748C16.7716 12.4779 16.781 12.4779 16.7897 12.4748L16.7854 12.478ZM17.0723 12.5032C17.0739 12.5024 17.0752 12.5012 17.0761 12.4997C17.077 12.4983 17.0775 12.4965 17.0775 12.4948C17.0775 12.4931 17.077 12.4914 17.0761 12.4899C17.0752 12.4884 17.0739 12.4872 17.0723 12.4864C17.0677 12.4835 17.0623 12.4819 17.0569 12.4819C17.0514 12.4819 17.046 12.4835 17.0414 12.4864C17.0339 12.4864 17.0318 12.4916 17.0318 12.4959C17.0311 12.497 17.0308 12.4983 17.0308 12.4995C17.0308 12.5008 17.0311 12.5021 17.0318 12.5032C17.043 12.5063 17.0548 12.5063 17.0659 12.5032H17.0723ZM16.7203 12.6085C16.719 12.6063 16.7183 12.6037 16.7183 12.6011C16.7183 12.5985 16.719 12.596 16.7203 12.5938H16.7289H16.7374H16.7523C16.7625 12.5928 16.7721 12.5885 16.7796 12.5817C16.7871 12.5749 16.7921 12.5658 16.7939 12.5559C16.7946 12.5524 16.7946 12.5488 16.7939 12.5453C16.7732 12.5412 16.7518 12.5412 16.731 12.5453C16.731 12.5453 16.7235 12.5453 16.7171 12.5401L16.7097 12.5327V12.4695L16.7193 12.459L16.7342 12.4401L16.7406 12.4306L16.7513 12.4222C16.7615 12.4135 16.7735 12.4071 16.7865 12.4032H16.795C16.7978 12.4023 16.8007 12.4023 16.8035 12.4032C16.8089 12.4032 16.811 12.4032 16.8163 12.4127C16.8195 12.4175 16.8217 12.4229 16.8227 12.4285C16.8221 12.4334 16.8221 12.4383 16.8227 12.4432C16.8234 12.4502 16.8234 12.4573 16.8227 12.4643C16.8217 12.4695 16.8217 12.4749 16.8227 12.4801C16.8342 12.4837 16.8465 12.4837 16.8579 12.4801C16.8579 12.4801 16.8579 12.4727 16.8579 12.458C16.8566 12.4492 16.8566 12.4404 16.8579 12.4316C16.8584 12.4271 16.8584 12.4225 16.8579 12.418C16.8645 12.4016 16.8751 12.3871 16.8889 12.3759L16.9006 12.3674H16.9081C16.9145 12.3674 16.9166 12.3674 16.9166 12.3527C16.9166 12.338 16.9091 12.3348 16.8953 12.3232C16.8922 12.3212 16.8899 12.3183 16.8889 12.3148C16.8916 12.3036 16.8975 12.2934 16.9059 12.2853L16.9155 12.2727L16.923 12.2664C16.9294 12.2664 16.9315 12.2664 16.9369 12.2664C16.9422 12.2664 16.9443 12.2664 16.9507 12.2895C16.9558 12.3043 16.9593 12.3194 16.9614 12.3348C16.9608 12.3404 16.9608 12.3461 16.9614 12.3516L16.9838 12.358L17.0094 12.3653H17.0201C17.0275 12.3653 17.0382 12.3748 17.0382 12.378C17.0382 12.378 17.0382 12.3811 17.0382 12.378C17.0482 12.3882 17.0565 12.3999 17.0627 12.4127C17.0745 12.4338 17.0734 12.4327 17.0926 12.4327C17.1118 12.4327 17.1097 12.4327 17.1139 12.4264C17.115 12.4226 17.115 12.4186 17.1139 12.4148C17.1139 12.4085 17.1193 12.4001 17.1342 12.3874L17.1491 12.3748C17.1554 12.3686 17.1631 12.3639 17.1715 12.3611L17.1961 12.3695C17.2131 12.3769 17.2185 12.3801 17.2238 12.3864C17.2288 12.3937 17.2363 12.399 17.2449 12.4013C17.2535 12.4036 17.2627 12.4028 17.2707 12.399H17.2793C17.2768 12.3877 17.2729 12.3767 17.2675 12.3664C17.2666 12.3601 17.2666 12.3537 17.2675 12.3474C17.2661 12.3384 17.2636 12.3296 17.2601 12.3211C17.2562 12.3117 17.254 12.3018 17.2537 12.2916C17.2525 12.2796 17.2504 12.2676 17.2473 12.2559C17.2466 12.2485 17.2466 12.2411 17.2473 12.2338C17.2465 12.225 17.2435 12.2166 17.2387 12.2093C17.2338 12.202 17.2273 12.1959 17.2195 12.1917L17.2078 12.1864C17.2043 12.1841 17.2002 12.1829 17.1961 12.1829C17.1919 12.1829 17.1878 12.1841 17.1843 12.1864C17.1815 12.1872 17.1786 12.1872 17.1758 12.1864C17.1758 12.1864 17.1566 12.198 17.1566 12.2022C17.1566 12.2064 17.1566 12.2022 17.1491 12.2022C17.1417 12.2022 17.1406 12.2022 17.1342 12.1938C17.1311 12.1903 17.1285 12.1864 17.1267 12.1822C17.1242 12.1784 17.121 12.1751 17.1171 12.1727C17.1097 12.1664 17.1075 12.1643 17.1075 12.158C17.1075 12.1517 17.1075 12.1495 17.1129 12.1474C17.1182 12.1453 17.1182 12.1474 17.1182 12.1474C17.1182 12.1474 17.1182 12.1474 17.1267 12.1474L17.1534 12.1411C17.18 12.1348 17.2078 12.1348 17.2345 12.1411L17.2473 12.1464C17.26 12.1529 17.2707 12.1627 17.2782 12.1748C17.2777 12.1776 17.2777 12.1804 17.2782 12.1832C17.279 12.1867 17.279 12.1903 17.2782 12.1938C17.2776 12.199 17.2776 12.2043 17.2782 12.2095C17.2833 12.2296 17.2865 12.25 17.2878 12.2706C17.2899 12.2841 17.2928 12.2974 17.2963 12.3106L17.3017 12.3348C17.303 12.3415 17.3055 12.3479 17.3091 12.3538C17.3098 12.3562 17.3098 12.3587 17.3091 12.3611C17.3091 12.3695 17.3326 12.3832 17.3465 12.3832C17.3615 12.3817 17.3757 12.3754 17.387 12.3653C17.392 12.3606 17.3978 12.3567 17.4041 12.3538C17.4078 12.3535 17.4116 12.3543 17.4149 12.3559C17.4183 12.3576 17.4212 12.3601 17.4233 12.3632C17.4285 12.3713 17.4359 12.3779 17.4446 12.3822C17.4553 12.3874 17.4585 12.3948 17.4542 12.4022C17.4521 12.403 17.4498 12.403 17.4478 12.4022L17.4318 12.4074L17.4158 12.4127L17.387 12.4201V12.4211C17.3634 12.4255 17.3402 12.4319 17.3177 12.4401H17.3059C17.291 12.4401 17.2889 12.4401 17.2878 12.4517C17.2793 12.4682 17.2659 12.4817 17.2494 12.4906C17.2387 12.4959 17.2366 12.4969 17.2099 12.4969H17.1737C17.1723 12.4962 17.1711 12.4951 17.1701 12.4938C17.1692 12.4925 17.1686 12.4911 17.1683 12.4895C17.1667 12.4852 17.1637 12.4816 17.1598 12.479C17.1523 12.479 17.1438 12.479 17.1257 12.479H17.1171V12.5001C17.1183 12.5088 17.1183 12.5177 17.1171 12.5264V12.5359C17.1131 12.541 17.1084 12.5456 17.1033 12.5495L17.083 12.5674C17.0723 12.5769 17.0638 12.578 17.0574 12.5674C17.054 12.5661 17.0502 12.5661 17.0467 12.5674C17.0336 12.5653 17.0212 12.5603 17.0105 12.5527C17.0007 12.5434 16.9933 12.5318 16.9891 12.519C16.9896 12.5169 16.9896 12.5148 16.9891 12.5127C16.9891 12.5127 16.9817 12.5127 16.9699 12.5127H16.9454H16.9155L16.8878 12.518H16.8707C16.8569 12.518 16.8526 12.5253 16.8526 12.539C16.8526 12.5527 16.8526 12.5517 16.8526 12.5527C16.8519 12.5555 16.8519 12.5584 16.8526 12.5611C16.8451 12.5754 16.8331 12.5868 16.8185 12.5938L16.7993 12.6032C16.7881 12.606 16.7763 12.606 16.7651 12.6032L16.7203 12.6085ZM16.5401 12.6274V12.6211C16.5435 12.6173 16.5479 12.6144 16.5529 12.6127C16.5677 12.6083 16.5813 12.6004 16.5923 12.5895C16.5977 12.5852 16.602 12.5798 16.6051 12.5738C16.6063 12.5698 16.6085 12.5662 16.6115 12.5632C16.6179 12.5569 16.6179 12.5548 16.6169 12.5338C16.6187 12.5197 16.6153 12.5055 16.6073 12.4938C16.5986 12.4844 16.5881 12.4768 16.5763 12.4717C16.5743 12.4709 16.5725 12.4697 16.571 12.4682C16.5695 12.4666 16.5684 12.4648 16.5677 12.4628C16.567 12.4608 16.5667 12.4587 16.5669 12.4566C16.5671 12.4545 16.5678 12.4524 16.5689 12.4506L16.5827 12.4243L16.5955 12.398C16.5965 12.396 16.598 12.3942 16.5998 12.393C16.6017 12.3918 16.6039 12.3912 16.6062 12.3912C16.6084 12.3912 16.6106 12.3918 16.6125 12.393C16.6144 12.3942 16.6159 12.396 16.6169 12.398C16.6243 12.4067 16.6301 12.4167 16.6339 12.4274C16.6334 12.4295 16.6334 12.4317 16.6339 12.4338C16.641 12.4417 16.6465 12.451 16.6499 12.4611C16.6513 12.4657 16.6535 12.4699 16.6563 12.4738C16.6604 12.4797 16.6626 12.4866 16.6627 12.4938C16.6618 12.4997 16.6618 12.5057 16.6627 12.5117C16.6686 12.5337 16.6686 12.5569 16.6627 12.579C16.6613 12.5826 16.6591 12.5858 16.6563 12.5885L16.6478 12.5969C16.6377 12.6085 16.6248 12.6175 16.6105 12.6232C16.608 12.6223 16.6054 12.6223 16.603 12.6232C16.603 12.6232 16.603 12.6232 16.5699 12.6295C16.5369 12.6359 16.5401 12.6295 16.5358 12.6295L16.5401 12.6274ZM16.3331 12.6411C16.3257 12.6338 16.3246 12.6306 16.3246 12.6232C16.3246 12.6159 16.3246 12.6127 16.3331 12.6053C16.3417 12.598 16.3523 12.5917 16.3758 12.6053C16.3993 12.619 16.4046 12.6169 16.4067 12.6053C16.4089 12.5938 16.4217 12.5906 16.4334 12.5906C16.4367 12.5904 16.44 12.5908 16.4431 12.5919C16.4462 12.593 16.4491 12.5947 16.4515 12.5969C16.459 12.6032 16.459 12.6032 16.4601 12.6169C16.4611 12.6306 16.4601 12.6317 16.4515 12.639C16.4491 12.6419 16.446 12.6441 16.4424 12.6452C16.4387 12.6463 16.4349 12.6464 16.4313 12.6453C16.4258 12.6455 16.4206 12.6438 16.4163 12.6405C16.412 12.6372 16.409 12.6326 16.4078 12.6274C16.4078 12.6201 16.4078 12.618 16.4014 12.6274C16.399 12.6282 16.3963 12.6282 16.3939 12.6274C16.3848 12.6306 16.3764 12.6356 16.3694 12.6422C16.3642 12.644 16.3586 12.644 16.3534 12.6422C16.3495 12.6428 16.3456 12.6424 16.342 12.6409C16.3384 12.6394 16.3353 12.6369 16.3331 12.6338V12.6411ZM16.1422 12.5253C16.1422 12.5253 16.1486 12.5253 16.1422 12.518V12.5032C16.1422 12.4948 16.1422 12.4927 16.1337 12.4927C16.1248 12.4946 16.1166 12.499 16.1102 12.5053C16.1102 12.5053 16.1027 12.518 16.1102 12.5211C16.1177 12.5243 16.1273 12.5369 16.1422 12.5264V12.5253ZM15.9673 12.5906C15.9673 12.5906 15.9673 12.5906 15.9673 12.5464V12.5064L15.9609 12.5011C15.9555 12.5011 15.9534 12.4959 15.9107 12.4938C15.8933 12.4949 15.8759 12.4949 15.8585 12.4938C15.8518 12.492 15.8448 12.492 15.8382 12.4938C15.8297 12.4951 15.8211 12.4951 15.8126 12.4938C15.7785 12.4885 15.7561 12.4938 15.7475 12.5053C15.739 12.5169 15.7475 12.5127 15.7475 12.518C15.7497 12.5215 15.7531 12.5241 15.7571 12.5253H15.7731C15.7848 12.5267 15.7966 12.5267 15.8083 12.5253H15.8595H15.9043C15.9124 12.5233 15.9208 12.5233 15.9289 12.5253H15.9353V12.5464C15.9353 12.5664 15.9353 12.5674 15.9353 12.5717C15.94 12.5763 15.9459 12.5795 15.9523 12.5811H15.9598L15.9673 12.5906ZM15.9481 12.659L15.9353 12.6517C15.9225 12.6462 15.9114 12.6375 15.9033 12.6264C15.8974 12.616 15.8938 12.6045 15.8926 12.5927C15.8926 12.5927 15.8926 12.5864 15.8926 12.5853C15.8651 12.5805 15.8373 12.5774 15.8094 12.5759L15.7337 12.5706C15.6835 12.5706 15.6633 12.5706 15.6569 12.5706C15.6537 12.574 15.6511 12.5779 15.6494 12.5822C15.6465 12.5885 15.643 12.5945 15.6387 12.6001C15.6353 12.6042 15.6324 12.6088 15.6302 12.6138H15.6238C15.6167 12.62 15.6088 12.6253 15.6003 12.6295L15.5897 12.6348C15.5653 12.6392 15.5404 12.6392 15.5161 12.6348H15.5022H15.4905C15.4905 12.6348 15.4905 12.6348 15.4905 12.6253C15.4905 12.6159 15.5011 12.6159 15.5299 12.6159C15.5406 12.6168 15.5514 12.6146 15.5609 12.6095C15.5726 12.6034 15.5834 12.5956 15.5929 12.5864V12.5811C15.5957 12.5779 15.5976 12.5738 15.5982 12.5695C15.5993 12.5641 15.6011 12.5588 15.6035 12.5538C15.6035 12.5443 15.6035 12.538 15.6035 12.5138C15.6035 12.4895 15.5918 12.4832 15.5811 12.4748C15.5705 12.4664 15.5683 12.459 15.5811 12.4453C15.5881 12.4381 15.5945 12.4304 15.6003 12.4222C15.6078 12.4117 15.6089 12.4106 15.6153 12.4106C15.6217 12.4106 15.6238 12.4106 15.6291 12.4232C15.6374 12.438 15.6442 12.4535 15.6494 12.4695C15.6488 12.473 15.6488 12.4766 15.6494 12.4801L15.6558 12.4948C15.6558 12.5053 15.6611 12.5064 15.6803 12.5085C15.6995 12.5106 15.7006 12.5085 15.7017 12.4832C15.7006 12.4766 15.7006 12.4699 15.7017 12.4632C15.7023 12.4612 15.7023 12.459 15.7017 12.4569C15.6987 12.4434 15.694 12.4303 15.6878 12.418C15.6878 12.418 15.6878 12.4032 15.6878 12.3938C15.6895 12.3901 15.6921 12.3869 15.6953 12.3843L15.7059 12.379C15.7116 12.3758 15.718 12.3741 15.7246 12.3741C15.7311 12.3741 15.7376 12.3758 15.7433 12.379C15.7433 12.379 15.7486 12.3853 15.7497 12.4022C15.7507 12.419 15.7497 12.4211 15.7571 12.4264C15.761 12.4274 15.765 12.4274 15.7689 12.4264C15.772 12.4255 15.7753 12.4255 15.7785 12.4264C15.7785 12.4264 15.7902 12.4264 15.8265 12.4264C15.8538 12.424 15.8813 12.424 15.9086 12.4264H15.9737C16.0014 12.4264 16.0025 12.4264 16.0089 12.4348L16.0153 12.4411V12.4695C16.0153 12.5022 16.0153 12.5064 16.0323 12.5064C16.0494 12.5064 16.0483 12.5064 16.0494 12.4874C16.0482 12.4826 16.0482 12.4775 16.0494 12.4727C16.0522 12.4696 16.0543 12.4661 16.0558 12.4622C16.0618 12.4507 16.0711 12.4412 16.0825 12.4348L16.0921 12.4295H16.1038C16.1172 12.4276 16.1302 12.4233 16.1422 12.4169C16.1471 12.4154 16.1523 12.4154 16.1571 12.4169C16.1657 12.4169 16.1689 12.4169 16.1721 12.4169C16.1753 12.4169 16.1785 12.4274 16.1806 12.4569C16.1796 12.4664 16.1796 12.4759 16.1806 12.4853C16.1817 12.4965 16.1817 12.5078 16.1806 12.519V12.5474L16.1731 12.5569L16.1657 12.5664H16.0921H16.011C16.0025 12.5664 16.0003 12.5727 16.0003 12.5885C16.0011 12.5903 16.0015 12.5923 16.0015 12.5943C16.0015 12.5963 16.0011 12.5982 16.0003 12.6001C15.9979 12.6024 15.9961 12.6053 15.995 12.6085C15.9889 12.6177 15.9799 12.6248 15.9694 12.6285H15.9609C15.9531 12.634 15.9444 12.6383 15.9353 12.6411L15.9481 12.659Z" fill="#C09300"/>
<path d="M16.3721 8.59653C16.3924 8.59653 16.3444 8.49127 16.3444 8.49127C16.3977 8.54495 16.5993 8.55758 16.5993 8.55758C16.4788 8.50495 16.3572 8.10706 16.371 7.79021C16.3849 7.47337 16.3252 7.34706 16.2772 7.29969C16.1624 7.22645 16.0297 7.18501 15.8932 7.17969C15.8206 7.17969 15.8324 7.23337 15.8324 7.23337C15.698 7.19969 15.5646 7.18706 15.5038 7.226C15.443 7.26495 15.4345 7.45021 15.4761 7.41758C15.5774 7.33758 15.6649 7.41021 15.7257 7.49758C15.7865 7.58495 15.7758 7.78916 15.698 8.04074C15.628 8.23144 15.5263 8.40931 15.3972 8.56706C15.4998 8.55314 15.5981 8.51721 15.6852 8.46179L15.6478 8.63021C15.7301 8.58957 15.8065 8.53823 15.875 8.47758L15.9998 8.60285C16.0369 8.55833 16.0772 8.51647 16.1204 8.47758C16.1897 8.54392 16.2793 8.58575 16.3753 8.59653H16.3721Z" fill="white"/>
<path fill-rule="evenodd" clip-rule="evenodd" d="M15.8437 7.17292C15.8564 7.16589 15.8727 7.16211 15.8932 7.16211H15.8939C16.034 7.16756 16.1699 7.21007 16.2876 7.28515L16.2893 7.28624L16.2908 7.28766C16.3448 7.34094 16.4042 7.47436 16.3902 7.7924C16.3834 7.94843 16.41 8.12501 16.4532 8.26896C16.4748 8.34092 16.5004 8.40409 16.5276 8.45216C16.5554 8.50112 16.583 8.5311 16.6071 8.54162L16.5981 8.57786L16.5979 8.57785L16.5974 8.57782L16.5957 8.57769C16.5941 8.57759 16.5919 8.57742 16.589 8.57719C16.5833 8.57673 16.575 8.57601 16.565 8.57498C16.545 8.57293 16.5176 8.56962 16.4885 8.56459C16.4595 8.55957 16.4283 8.55276 16.4006 8.54361C16.3948 8.54169 16.389 8.53963 16.3834 8.53741C16.3836 8.53792 16.3838 8.53842 16.3839 8.53893C16.3887 8.55226 16.3933 8.56674 16.3953 8.57837C16.3962 8.5838 16.3969 8.59084 16.3955 8.59736C16.3948 8.60076 16.3931 8.60569 16.3889 8.60994C16.385 8.61386 16.3802 8.61599 16.3753 8.61664L16.3753 8.61685H16.3721V8.61661C16.2784 8.60586 16.1905 8.56673 16.1204 8.50481C16.0828 8.5397 16.0475 8.57693 16.0147 8.61625L16.0011 8.63251L15.8741 8.50503C15.8079 8.56161 15.7348 8.60983 15.6564 8.64853L15.6205 8.66628L15.6569 8.50207C15.5775 8.54601 15.4903 8.57493 15.3998 8.5872L15.3518 8.5937L15.3823 8.55652C15.51 8.40053 15.6105 8.22466 15.6798 8.03611C15.7183 7.91152 15.74 7.79932 15.7447 7.70799C15.7494 7.61565 15.7366 7.54805 15.7099 7.50968C15.6801 7.46687 15.6455 7.43032 15.6081 7.41341C15.5898 7.40512 15.5711 7.40166 15.5519 7.4042C15.5325 7.40674 15.5113 7.41548 15.4881 7.43375C15.4798 7.44029 15.4667 7.44555 15.4534 7.43819C15.443 7.4324 15.4383 7.42147 15.436 7.41374C15.4308 7.39686 15.4301 7.37266 15.4325 7.34821C15.4349 7.32328 15.4407 7.29576 15.4501 7.27153C15.4593 7.24791 15.4731 7.22449 15.4934 7.21148C15.5291 7.18862 15.5828 7.18236 15.6414 7.18489C15.6942 7.18718 15.754 7.19681 15.8144 7.21087C15.8152 7.20741 15.8164 7.20378 15.8181 7.20011C15.8227 7.18999 15.8308 7.18008 15.8437 7.17292ZM16.3555 8.57602C16.3537 8.569 16.351 8.56058 16.3478 8.55161C16.3432 8.5389 16.338 8.52609 16.3339 8.5164C16.3318 8.51156 16.3301 8.50754 16.3288 8.50474L16.3274 8.5015L16.327 8.50067L16.3269 8.50047L16.3581 8.47937C16.3681 8.48945 16.3871 8.49916 16.4128 8.50768C16.438 8.516 16.4671 8.52241 16.4952 8.52726C16.51 8.52982 16.5244 8.53193 16.5375 8.53364C16.5221 8.516 16.5076 8.49455 16.4941 8.47065C16.4651 8.4194 16.4385 8.35343 16.4164 8.27973C16.3721 8.13237 16.3448 7.95158 16.3519 7.79076C16.3655 7.47858 16.3069 7.35855 16.265 7.31585C16.1536 7.24522 16.0251 7.20523 15.8928 7.2C15.8772 7.20005 15.8679 7.20296 15.8625 7.20597C15.8572 7.20888 15.8546 7.21239 15.8531 7.21569C15.8514 7.21928 15.8509 7.22317 15.8509 7.22648C15.8509 7.22807 15.851 7.22936 15.8511 7.23017L15.8512 7.23094L15.8577 7.26063L15.8277 7.25311C15.7612 7.23646 15.6957 7.22517 15.6397 7.22275C15.5827 7.22028 15.5394 7.22718 15.5143 7.24327C15.5042 7.24973 15.4941 7.26407 15.4859 7.28513C15.478 7.30557 15.4728 7.32962 15.4707 7.3518C15.4688 7.37149 15.4695 7.38799 15.4716 7.39846C15.4967 7.38028 15.5218 7.36992 15.5468 7.36663C15.5743 7.36302 15.6003 7.36817 15.6241 7.37897C15.671 7.40021 15.7105 7.44367 15.7415 7.48822C15.7756 7.53722 15.7879 7.61541 15.783 7.70991C15.7781 7.80531 15.7556 7.92085 15.7163 8.04764L15.7161 8.04857C15.6511 8.22567 15.559 8.39182 15.4432 8.5413C15.5254 8.52418 15.6039 8.49234 15.6748 8.44724L15.7139 8.42234L15.6754 8.59587C15.7425 8.55933 15.8052 8.51539 15.8622 8.46485L15.8759 8.45276L15.9987 8.57604C16.0326 8.53682 16.0689 8.49972 16.1074 8.46496L16.1208 8.45294L16.1338 8.46535C16.1947 8.52368 16.2721 8.56219 16.3555 8.57602Z" fill="#C09300"/>
<path fill-rule="evenodd" clip-rule="evenodd" d="M15.8638 7.83203L15.9019 7.83712L15.9018 7.83749L15.9017 7.83858L15.9011 7.84278C15.9006 7.84645 15.8998 7.85184 15.8987 7.85874C15.8966 7.87253 15.8935 7.89236 15.8893 7.91659C15.881 7.96502 15.8686 8.03112 15.8521 8.10171C15.8357 8.17223 15.8152 8.24759 15.7907 8.31441C15.7663 8.38071 15.7373 8.44066 15.7031 8.47873L15.6744 8.45357C15.7036 8.42111 15.7306 8.36684 15.7546 8.30151C15.7783 8.23668 15.7984 8.16296 15.8147 8.09322C15.8309 8.02354 15.8432 7.9582 15.8515 7.91025C15.8556 7.88628 15.8587 7.86669 15.8607 7.8531C15.8618 7.84631 15.8626 7.84102 15.8631 7.83744L15.8637 7.83338L15.8638 7.83235L15.8638 7.83203Z" fill="#C09300"/>
<path fill-rule="evenodd" clip-rule="evenodd" d="M15.9697 7.82214C15.9697 7.82214 15.9697 7.82214 15.9888 7.82311C16.008 7.82407 16.008 7.82407 16.008 7.82408L16.0079 7.82554L16.0077 7.82978C16.0075 7.83348 16.0072 7.83892 16.0067 7.8459C16.0058 7.85984 16.0045 7.87992 16.0026 7.90451C15.9988 7.95368 15.9928 8.02093 15.984 8.09325C15.9753 8.16552 15.9637 8.24312 15.9487 8.31287C15.9337 8.38216 15.9151 8.44542 15.8916 8.48798L15.8578 8.46981C15.8786 8.43237 15.8963 8.37366 15.9111 8.30499C15.9258 8.23678 15.9372 8.16042 15.9459 8.08875C15.9546 8.01712 15.9605 7.95043 15.9643 7.90163C15.9662 7.87724 15.9675 7.85734 15.9684 7.84355C15.9688 7.83665 15.9691 7.83128 15.9694 7.82765L15.9696 7.82352L15.9697 7.82214Z" fill="#C09300"/>
<path fill-rule="evenodd" clip-rule="evenodd" d="M16.0982 8.47784C16.073 8.26743 16.0619 8.0556 16.065 7.84375L16.1034 7.84431C16.1003 8.05448 16.1113 8.26464 16.1364 8.47338L16.0982 8.47784Z" fill="#C09300"/>
<path fill-rule="evenodd" clip-rule="evenodd" d="M16.1844 7.87166L16.2228 7.86938L16.2228 7.86968L16.2229 7.87063L16.2231 7.87442C16.2233 7.87775 16.2237 7.88269 16.2242 7.88904C16.2251 7.90175 16.2267 7.92011 16.2288 7.94267C16.2332 7.98781 16.2401 8.04967 16.2506 8.11657C16.2611 8.18353 16.275 8.25524 16.2932 8.3202C16.3115 8.3855 16.3338 8.44246 16.3603 8.48092L16.3285 8.50222C16.2985 8.45858 16.2749 8.39685 16.2562 8.33031C16.2374 8.26342 16.2232 8.19013 16.2126 8.12235C16.202 8.05452 16.195 7.9919 16.1906 7.94625C16.1884 7.92342 16.1869 7.90481 16.1859 7.89189C16.1854 7.88543 16.185 7.88039 16.1848 7.87696L16.1845 7.87303L16.1845 7.87201L16.1844 7.87166Z" fill="#C09300"/>
<path d="M15.7604 7.59776C15.7574 7.56249 15.7465 7.52832 15.7284 7.49776C15.6676 7.41145 15.5801 7.33882 15.4799 7.41776C15.4799 7.41776 15.514 7.3125 15.5865 7.3125C15.6431 7.3125 15.7732 7.3546 15.8863 7.54618C15.8863 7.54618 15.802 7.52724 15.7796 7.54618C15.7412 7.57882 15.7572 7.60092 15.7572 7.60092L15.7604 7.59776Z" fill="#C09300"/>
<path d="M15.4669 7.28824C15.4725 7.26397 15.486 7.24217 15.5053 7.22613C15.5661 7.18613 15.6994 7.19876 15.8338 7.2335C15.8338 7.2335 15.8221 7.17666 15.8946 7.17981C16.0307 7.185 16.163 7.22608 16.2776 7.29876C16.2956 7.31899 16.3101 7.34213 16.3202 7.36718C16.2904 7.32613 16.2061 7.32824 16.1858 7.33139C16.1539 7.33284 16.1221 7.33706 16.0909 7.34402C16.0672 7.34754 16.0444 7.3554 16.0237 7.36718C16.0109 7.37771 16.0002 7.41666 15.98 7.41666C15.9597 7.41666 15.9501 7.40824 15.9416 7.39876C15.933 7.38929 15.9245 7.36718 15.9138 7.36824C15.8808 7.37455 15.8274 7.34824 15.7592 7.2956C15.736 7.27194 15.7075 7.25414 15.6759 7.24369C15.6444 7.23324 15.6107 7.23047 15.5778 7.2356C15.5558 7.23519 15.5339 7.23994 15.5141 7.24945C15.4943 7.25896 15.477 7.27297 15.4637 7.29034V7.28402L15.4669 7.28824Z" fill="#C09300"/>
<path fill-rule="evenodd" clip-rule="evenodd" d="M15.8528 7.23112L15.8589 7.26079L15.829 7.25307C15.775 7.23909 15.7214 7.22885 15.6732 7.22423C15.6762 7.22508 15.6792 7.226 15.6821 7.22697C15.7162 7.23824 15.747 7.25735 15.7721 7.28272C15.8053 7.3082 15.8341 7.32677 15.8581 7.3382C15.883 7.35004 15.8999 7.35285 15.9103 7.35088L15.9111 7.35072L15.912 7.35063C15.9221 7.34963 15.9297 7.35441 15.9341 7.35813C15.9385 7.36187 15.9419 7.3665 15.9445 7.37014C15.9463 7.37283 15.9482 7.37588 15.9498 7.37845C15.9504 7.37937 15.951 7.38023 15.9515 7.38098C15.9536 7.38437 15.955 7.38633 15.956 7.38742C15.9598 7.3917 15.9627 7.39424 15.9658 7.39595C15.9685 7.39744 15.9725 7.39884 15.9792 7.39895C15.9794 7.39877 15.9798 7.39846 15.9804 7.39795C15.9825 7.39591 15.9851 7.39247 15.9883 7.38728C15.9898 7.38479 15.9913 7.38217 15.993 7.37936L15.9933 7.37873C15.9948 7.37618 15.9964 7.37345 15.9979 7.37086C16.001 7.36577 16.0055 7.35878 16.0115 7.35387L16.0128 7.35283L16.0142 7.35201C16.0368 7.33916 16.0616 7.33056 16.0874 7.32664C16.1192 7.31959 16.1515 7.31528 16.184 7.31376C16.1967 7.31196 16.2241 7.31086 16.2525 7.31524C16.2575 7.31601 16.2628 7.31699 16.2682 7.31823C16.2671 7.31697 16.2661 7.31573 16.265 7.3145C16.1538 7.24455 16.0258 7.20502 15.894 7.19999C15.8783 7.19931 15.869 7.20196 15.8638 7.20476C15.8588 7.20742 15.8562 7.21083 15.8547 7.21432C15.853 7.21813 15.8524 7.22237 15.8524 7.22603C15.8524 7.22779 15.8525 7.22923 15.8526 7.23016L15.8528 7.23112C15.8528 7.23113 15.8528 7.23111 15.8528 7.23112ZM16.3203 7.36843L16.3047 7.37948C16.2945 7.36548 16.2728 7.35672 16.2466 7.35268C16.2212 7.34877 16.197 7.35009 16.1889 7.35136L16.1879 7.35152L16.1868 7.35157C16.156 7.35296 16.1253 7.35704 16.0952 7.36375L16.0938 7.36406C16.0733 7.36711 16.0535 7.37374 16.0354 7.38371C16.0352 7.38399 16.0349 7.38437 16.0345 7.38486C16.0335 7.38622 16.0323 7.38802 16.0309 7.39034C16.0295 7.39252 16.0282 7.39486 16.0267 7.3975L16.0264 7.39805C16.0248 7.40084 16.023 7.40391 16.0211 7.40695C16.0175 7.41281 16.0128 7.41976 16.0069 7.42536C16.0008 7.43105 15.9919 7.43685 15.98 7.43685C15.967 7.43685 15.9563 7.43409 15.9471 7.42907C15.9382 7.4242 15.932 7.41779 15.9273 7.4126C15.924 7.40895 15.9211 7.40459 15.919 7.40121C15.9182 7.39996 15.9175 7.39882 15.9168 7.39775C15.9153 7.39545 15.9141 7.39346 15.9127 7.39145C15.912 7.39046 15.9114 7.38966 15.9109 7.38902C15.8898 7.391 15.866 7.384 15.8414 7.37234C15.8137 7.35915 15.7821 7.33852 15.7474 7.31178L15.7464 7.31096L15.7454 7.31C15.7245 7.28853 15.6986 7.27238 15.6699 7.2629C15.6413 7.25343 15.6107 7.25091 15.5809 7.25557L15.5792 7.25583L15.5775 7.25579C15.5585 7.25544 15.5397 7.25953 15.5226 7.26774C15.5084 7.27455 15.4957 7.28402 15.4853 7.29561L15.4765 7.33353L15.4661 7.31995L15.4446 7.34809V7.22843L15.4616 7.25077C15.4695 7.23643 15.4802 7.22357 15.493 7.21289L15.4938 7.2122L15.4947 7.21161C15.5305 7.1881 15.5843 7.18157 15.6429 7.18411C15.6957 7.18639 15.7554 7.19621 15.8157 7.21067C15.8166 7.20696 15.8178 7.20306 15.8195 7.19912C15.8241 7.18879 15.8322 7.17858 15.8454 7.17147C15.8584 7.16451 15.875 7.16124 15.8955 7.16213C16.035 7.16746 16.1706 7.20956 16.288 7.28407L16.2903 7.2855L16.292 7.28747C16.3116 7.30933 16.3272 7.33433 16.3381 7.36139L16.3203 7.36843Z" fill="#C09300"/>
<path d="M15.9652 7.36935C15.9747 7.36935 15.9837 7.36564 15.9904 7.35903C15.9971 7.35241 16.0009 7.34344 16.0009 7.33409C16.0009 7.32474 15.9971 7.31577 15.9904 7.30916C15.9837 7.30254 15.9747 7.29883 15.9652 7.29883C15.9557 7.29883 15.9466 7.30254 15.9399 7.30916C15.9332 7.31577 15.9294 7.32474 15.9294 7.33409C15.9294 7.34344 15.9332 7.35241 15.9399 7.35903C15.9466 7.36564 15.9557 7.36935 15.9652 7.36935Z" fill="white"/>
<path fill-rule="evenodd" clip-rule="evenodd" d="M16.0066 8.78906L16.0151 8.79632C16.0964 8.86576 16.2447 8.9246 16.3979 8.9661C16.5506 9.0075 16.7053 9.03088 16.7975 9.03088H16.8566L16.8349 9.05234V9.16867C16.8245 9.31664 16.7989 9.4632 16.7586 9.6061C16.6361 10.0486 16.3727 10.4404 16.0072 10.7237L15.9986 10.7304L15.99 10.7237C15.6246 10.4408 15.3611 10.0493 15.2386 9.60715C15.1983 9.46425 15.1727 9.31769 15.1624 9.16972L15.1623 9.16877L15.1623 9.03088H15.2018C15.2922 9.03088 15.4479 9.00467 15.6034 8.96178C15.7591 8.91883 15.9119 8.8599 15.9977 8.79576L16.0066 8.78906ZM16.8071 9.05825H16.7975C16.702 9.05825 16.5447 9.03426 16.3905 8.99249C16.2417 8.95218 16.0931 8.89457 16.0055 8.82408C15.9141 8.88886 15.7621 8.94642 15.6109 8.98814C15.4544 9.0313 15.2959 9.05825 15.2018 9.05825H15.1901V9.1683C15.2003 9.31428 15.2255 9.45887 15.2653 9.59984C15.3853 10.0329 15.6422 10.4168 15.9986 10.6956C16.355 10.4164 16.6119 10.0322 16.7319 9.59885C16.7716 9.45787 16.7969 9.31323 16.8071 9.16725V9.05825Z" fill="#C09300"/>
</g>
<defs>
<clipPath id="clip0_11_1221">
<rect width="32" height="20" fill="white"/>
</clipPath>
</defs>
</svg>
