<svg width="43" height="23" viewBox="0 0 43 23" fill="none" xmlns="http://www.w3.org/2000/svg">
<mask id="mask0_69_3645" style="mask-type:luminance" maskUnits="userSpaceOnUse" x="0" y="0" width="43" height="23">
<path d="M38.208 0H4.00679C1.7939 0 0 1.5841 0 3.53818V19.4019C0 21.356 1.7939 22.9401 4.00679 22.9401H38.208C40.4208 22.9401 42.2147 21.356 42.2147 19.4019V3.53818C42.2147 1.5841 40.4208 0 38.208 0Z" fill="white"/>
</mask>
<g mask="url(#mask0_69_3645)">
<path d="M42.4347 10.7533C42.4347 13.7491 41.087 16.6223 38.688 18.7407C36.2891 20.8591 33.0353 22.0492 29.6427 22.0492C26.25 22.0492 22.9963 20.8591 20.5973 18.7407C18.1983 16.6223 16.8506 13.7491 16.8506 10.7533C16.8506 7.75738 18.1983 4.8842 20.5973 2.76579C22.9963 0.647385 26.25 -0.542725 29.6427 -0.542725C33.0353 -0.542725 36.2891 0.647385 38.688 2.76579C41.087 4.8842 42.4347 7.75738 42.4347 10.7533Z" fill="#FFB600"/>
<path d="M29.6427 -0.542725C33.0329 -0.53581 36.2821 0.65652 38.6794 2.77343C41.0767 4.89034 42.4269 7.7595 42.4347 10.7533C42.4347 13.7491 41.087 16.6223 38.688 18.7407C36.2891 20.8591 33.0353 22.0492 29.6427 22.0492C26.25 22.0492 22.9963 20.8591 20.5973 18.7407C18.1983 16.6223 16.8506 13.7491 16.8506 10.7533" fill="#F7981D"/>
<path d="M29.6426 -0.542725C33.0328 -0.53581 36.282 0.65652 38.6793 2.77343C41.0766 4.89034 42.4268 7.7595 42.4347 10.7533C42.436 12.237 42.1061 13.7064 41.4637 15.0775C40.8213 16.4485 39.8791 17.6942 38.691 18.7434C37.5029 19.7926 36.0921 20.6246 34.5395 21.1918C32.9869 21.7591 31.3228 22.0504 29.6426 22.0492" fill="#FF8500"/>
<path d="M12.4511 -0.542725C9.05844 -0.526866 5.81185 0.678452 3.42557 2.80807C1.03929 4.93769 -0.291217 7.81717 -0.273258 10.8131C-0.255299 13.8089 1.10966 16.6758 3.52134 18.783C5.93302 20.8902 9.19387 22.0651 12.5865 22.0492C15.7615 22.0371 18.8207 20.9947 21.1819 19.1203C21.6433 18.7515 22.0719 18.3519 22.4641 17.9251H19.8284C19.491 17.5622 19.1749 17.1843 18.8812 16.7929H23.4161C23.7044 16.4128 23.9535 16.0107 24.1606 15.5914H18.1367C17.9157 15.2082 17.7344 14.8082 17.595 14.3962H24.6366C25.0695 13.2385 25.2979 12.0289 25.3137 10.8099C25.2939 10.0081 25.2034 9.20884 25.0428 8.41947H17.1895C17.2703 8.01455 17.3833 7.61516 17.5277 7.22428H24.5668C24.4275 6.81226 24.2462 6.41223 24.0251 6.02908H18.0654C18.2874 5.61839 18.536 5.21934 18.8099 4.83389H23.3448C23.0674 4.39777 22.726 3.9959 22.3294 3.63869H19.8284C20.2215 3.23217 20.6502 2.8536 21.1106 2.50647C18.7729 0.598562 15.6983 -0.449092 12.5152 -0.422427C12.5184 -0.542725 12.5184 -0.542725 12.4511 -0.542725Z" fill="#FF5050"/>
<path d="M-0.205074 10.7533C-0.206444 12.237 0.123498 13.7064 0.765875 15.0775C1.40825 16.4485 2.35046 17.6942 3.53858 18.7434C4.72671 19.7926 6.13744 20.6246 7.69007 21.1918C9.24269 21.7591 10.9067 22.0504 12.587 22.0492C15.762 22.0371 18.8211 20.9947 21.1824 19.1203C21.6438 18.7515 22.0724 18.3519 22.4645 17.9251H19.8289C19.4915 17.5622 19.1754 17.1843 18.8817 16.7929H23.4166C23.7046 16.4144 23.9537 16.014 24.161 15.5963H18.1372C17.9162 15.2132 17.7348 14.8131 17.5955 14.4011H24.637C25.07 13.2435 25.2984 12.0339 25.3142 10.8148C25.2944 10.013 25.2038 9.2138 25.0433 8.42443H17.19C17.2707 8.0195 17.3838 7.62011 17.5282 7.22923H24.5673C24.428 6.81721 24.2466 6.41718 24.0256 6.03404H18.0659C18.2879 5.62335 18.5364 5.22429 18.8104 4.83884H23.3452C23.0678 4.40273 22.7264 4.00086 22.3299 3.64365H19.8289C20.222 3.23713 20.6507 2.85855 21.1111 2.51143C18.7733 0.603516 15.6988 -0.444138 12.5157 -0.417472H12.4484" fill="#E52836"/>
<path d="M12.5869 22.0492C15.7619 22.0371 18.821 20.9947 21.1822 19.1203C21.6436 18.7515 22.0723 18.3519 22.4644 17.9251H19.8288C19.4914 17.5622 19.1752 17.1843 18.8815 16.7929H23.4164C23.7044 16.4144 23.9536 16.014 24.1609 15.5963H18.1371C17.916 15.2132 17.7347 14.8131 17.5954 14.4011H24.6345C25.0675 13.2435 25.2959 12.0339 25.3116 10.8148C25.2919 10.013 25.2013 9.2138 25.0408 8.42443H17.1875C17.2682 8.0195 17.3812 7.62011 17.5256 7.22923H24.5648C24.4254 6.81721 24.2441 6.41718 24.0231 6.03404H18.069C18.2909 5.62335 18.5395 5.22429 18.8134 4.83884H23.3483C23.0709 4.40273 22.7295 4.00086 22.333 3.64365H19.8288C20.2218 3.23713 20.6506 2.85855 21.1109 2.51143C18.7732 0.603516 15.6987 -0.444138 12.5156 -0.417472H12.4482" fill="#CB2026"/>
<path d="M17.1211 13.6213L17.3239 12.6051C17.2125 12.6308 17.0996 12.6506 16.9857 12.6646C16.5121 12.6646 16.444 12.4254 16.5121 12.3058L16.9184 10.214H17.6612L17.864 9.0818H17.1884L17.3239 8.36426H15.9704C15.9704 8.36426 15.1578 12.3086 15.1578 12.787C15.1373 12.9195 15.1506 13.0544 15.1968 13.1818C15.2429 13.3091 15.3207 13.4258 15.4245 13.5232C15.5283 13.6206 15.6554 13.6963 15.7966 13.7447C15.9377 13.7932 16.0894 13.8131 16.2404 13.8031C16.5455 13.8004 16.8462 13.7383 17.1211 13.6213Z" fill="white"/>
<path d="M17.5942 11.7092C17.5601 11.9913 17.5979 12.2765 17.7049 12.544C17.8119 12.8115 17.9853 13.0544 18.2125 13.255C18.4396 13.4556 18.7147 13.6087 19.0177 13.7032C19.3206 13.7977 19.6436 13.8311 19.963 13.801C20.4458 13.8283 20.9298 13.7674 21.3846 13.6219L21.6555 12.4897C21.206 12.6644 20.7243 12.7656 20.2339 12.7883C18.7449 12.7883 19.0158 11.8323 19.0158 11.8323H21.7909C21.887 11.4784 21.9548 11.119 21.9937 10.7567C22.0129 10.5248 21.9753 10.2919 21.8835 10.074C21.7917 9.85599 21.6477 9.65805 21.4615 9.49361C21.2753 9.32917 21.0512 9.20208 20.8043 9.121C20.5575 9.03992 20.2938 9.00674 20.0311 9.02372C18.6095 8.89989 17.5942 10.2147 17.5942 11.7092ZM19.9638 9.97266C20.7083 9.97266 20.5728 10.7511 20.5728 10.8091H19.0839C19.0839 10.7511 19.2194 9.97266 19.9638 9.97266Z" fill="white"/>
<path d="M28.5607 13.622L28.8316 12.3072C28.4717 12.4675 28.0817 12.5687 27.6808 12.6058C26.7336 12.6058 26.3273 11.9484 26.3273 11.2309C26.3273 9.79652 27.1399 9.01954 28.0903 9.01954C28.5271 9.03261 28.9502 9.15723 29.3084 9.37831L29.5111 8.12296C29.0148 7.94687 28.4884 7.84591 27.9541 7.82434C26.3971 7.82434 24.8408 9.01954 24.8408 11.2918C24.8408 12.7856 25.6534 13.8017 27.2778 13.8017C27.7115 13.7825 28.1416 13.7222 28.5607 13.622Z" fill="white"/>
<path d="M9.6764 8.90002C9.12338 8.89641 8.57382 8.97733 8.05205 9.1392L7.8493 10.1554C8.32386 9.99271 8.82921 9.91153 9.33823 9.91618C9.81183 9.91618 10.2197 9.97563 10.2197 10.3344C10.2197 10.5736 10.1524 10.633 10.1524 10.633H9.54338C8.39263 10.633 7.10645 11.0512 7.10645 12.4262C7.10645 13.5018 7.91902 13.741 8.38862 13.741C8.9242 13.734 9.43504 13.5407 9.81023 13.2031L9.74291 13.6815H10.961L11.5027 10.3945C11.5185 10.1843 11.4809 9.97362 11.3927 9.77785C11.3045 9.58208 11.1679 9.40617 10.9929 9.26295C10.8179 9.11974 10.6089 9.01284 10.3811 8.95005C10.1534 8.88726 9.91259 8.87017 9.6764 8.90002ZM9.94726 11.589C9.94726 11.7681 9.81183 12.7212 9.00005 12.7212C8.9284 12.7229 8.85712 12.7117 8.79055 12.6882C8.72398 12.6648 8.66351 12.6296 8.61283 12.5848C8.56215 12.5401 8.52232 12.4867 8.49575 12.4279C8.46919 12.3691 8.45646 12.3062 8.45834 12.2429C8.45834 11.9443 8.66108 11.5253 9.6764 11.5253C9.76309 11.5572 9.85416 11.5782 9.94726 11.589Z" fill="white"/>
<path d="M12.7892 13.7409C13.0429 13.7798 13.3031 13.7683 13.5512 13.7073C13.7992 13.6463 14.0287 13.5373 14.2231 13.3883C14.4175 13.2393 14.5719 13.0539 14.6751 12.8456C14.7784 12.6373 14.8278 12.4114 14.8198 12.1841C14.8198 10.6903 13.1955 10.9889 13.1955 10.391C13.1955 10.0924 13.4663 9.97277 13.9399 9.97277C14.1427 9.97277 14.8871 10.0322 14.8871 10.0322L15.0899 8.9566C14.6699 8.86939 14.2391 8.82921 13.8077 8.83701C12.7924 8.83701 11.7771 9.19578 11.7771 10.3938C11.7771 11.7687 13.4687 11.6492 13.4687 12.187C13.4687 12.5457 12.9951 12.6052 12.6562 12.6052C12.2427 12.596 11.8326 12.5358 11.4381 12.4261L11.2354 13.5017C11.2995 13.6213 11.6384 13.7409 12.7892 13.7409Z" fill="white"/>
<path d="M39.795 7.94751L39.5241 9.56092C39.366 9.39114 39.1712 9.25084 38.9511 9.14818C38.7309 9.04553 38.4899 8.98256 38.2419 8.96297C37.0239 8.96297 35.9404 10.2778 35.9404 11.8317C35.9404 12.7877 36.4821 13.8039 37.6321 13.8039C37.871 13.803 38.1073 13.7602 38.3274 13.6781C38.5475 13.596 38.747 13.4762 38.9143 13.3255L38.847 13.7437H40.2012L41.2166 8.00624L39.795 7.94751ZM39.1859 11.1149C39.1859 11.7723 38.8478 12.6087 38.1033 12.6087C37.6297 12.6087 37.3588 12.2499 37.3588 11.6527C37.3588 10.6967 37.8324 10.0959 38.4415 10.0959C38.9151 10.0959 39.1859 10.3945 39.1859 11.1121V11.1149Z" fill="white"/>
<path d="M2.29888 13.6794L3.11145 9.37622L3.24608 13.6794H4.19409L5.95707 9.37622L5.20941 13.6794H6.63022L7.71365 7.94751H5.47947L4.12597 11.4701L4.05866 7.94751H2.09613L1.0127 13.6794H2.29888Z" fill="white"/>
<path d="M23.2805 13.6814C23.6868 11.7093 23.7541 10.0951 24.7021 10.3945C24.779 9.91739 24.9388 9.45364 25.1757 9.01953H24.9048C24.2958 9.01953 23.8222 9.73707 23.8222 9.73707L23.9576 9.07968H22.6754L21.7939 13.7416H23.2829L23.2805 13.6814Z" fill="white"/>
<path d="M31.6725 8.9C31.1195 8.89639 30.5699 8.97731 30.0481 9.13918L29.8454 10.1553C30.32 9.99269 30.8253 9.91151 31.3343 9.91616C31.8079 9.91616 32.2158 9.9756 32.2158 10.3344C32.2158 10.5736 32.1485 10.633 32.1485 10.633H31.5395C30.3887 10.633 29.1025 11.0512 29.1025 12.4261C29.1025 13.5017 29.9151 13.7409 30.3847 13.7409C30.9203 13.734 31.4311 13.5407 31.8063 13.2031L31.739 13.6815H32.9571L33.4988 10.3945C33.5189 10.1834 33.4843 9.97091 33.3975 9.77332C33.3108 9.57573 33.1742 9.39818 32.9982 9.25413C32.8222 9.11009 32.6113 9.00334 32.3816 8.94198C32.1519 8.88062 31.9094 8.86626 31.6725 8.9ZM32.0107 11.589C32.0107 11.768 31.8752 12.7212 31.0635 12.7212C30.9918 12.7229 30.9205 12.7116 30.854 12.6882C30.7874 12.6647 30.7269 12.6296 30.6762 12.5848C30.6256 12.54 30.5857 12.4867 30.5592 12.4279C30.5326 12.3691 30.5199 12.3061 30.5217 12.2429C30.5217 11.9442 30.7245 11.5253 31.7398 11.5253C31.9434 11.5897 31.9434 11.589 32.0107 11.589Z" fill="white"/>
<path d="M34.6516 13.6814C35.0578 11.7093 35.1252 10.0951 36.0732 10.3945C36.1501 9.91739 36.3099 9.45364 36.5468 9.01953H36.2759C35.6669 9.01953 35.1933 9.73707 35.1933 9.73707L35.3287 9.07968H34.0465L33.165 13.7416H34.654L34.6516 13.6814Z" fill="white"/>
<path d="M15.023 12.7849C15.0025 12.9174 15.0158 13.0523 15.062 13.1797C15.1081 13.307 15.1859 13.4237 15.2897 13.5211C15.3935 13.6185 15.5206 13.6942 15.6618 13.7426C15.803 13.7911 15.9546 13.811 16.1056 13.801C16.4543 13.8026 16.7997 13.7417 17.121 13.622L17.3237 12.6058C17.2124 12.6315 17.0995 12.6514 16.9855 12.6653C16.5119 12.6653 16.4438 12.4261 16.5119 12.3065L16.9182 10.2147H17.6627L17.8654 9.08253H17.1883L17.3237 8.36499" fill="#DCE5E5"/>
<path d="M18.2715 11.7093C18.2715 13.3828 18.8805 13.801 19.9632 13.801C20.4459 13.8284 20.9299 13.7674 21.3848 13.622L21.6556 12.4898C21.2061 12.6645 20.7244 12.7657 20.234 12.7884C18.7451 12.7884 19.0159 11.8324 19.0159 11.8324H21.791C21.8871 11.4785 21.9549 11.1191 21.9938 10.7568C22.0137 10.5248 21.9767 10.2917 21.8854 10.0734C21.7941 9.85514 21.6506 9.65682 21.4647 9.49195C21.2787 9.32708 21.0547 9.19954 20.8079 9.11802C20.5611 9.03649 20.2973 9.0029 20.0345 9.01953C18.6097 8.89994 18.2715 10.2147 18.2715 11.7093ZM19.9632 9.97272C20.7076 9.97272 20.8446 10.7511 20.8446 10.8091H19.0817C19.0841 10.7511 19.2187 9.97272 19.9632 9.97272Z" fill="#DCE5E5"/>
<path d="M28.5602 13.622L28.831 12.3072C28.4711 12.4675 28.0812 12.5687 27.6803 12.6058C26.7331 12.6058 26.3268 11.9484 26.3268 11.2309C26.3268 9.79652 27.1394 9.01954 28.0898 9.01954C28.5265 9.03261 28.9496 9.15723 29.3078 9.37831L29.5106 8.12296C29.0143 7.94685 28.4879 7.8459 27.9535 7.82434C26.3965 7.82434 25.5166 9.01954 25.5166 11.2918C25.5166 12.7856 25.652 13.8017 27.2796 13.8017C27.7125 13.7823 28.1418 13.7221 28.5602 13.622Z" fill="#DCE5E5"/>
<path d="M7.8493 10.2154C8.32364 10.0517 8.829 9.9696 9.33823 9.97335C9.81183 9.97335 10.2197 10.0328 10.2197 10.3916C10.2197 10.6307 10.1524 10.6902 10.1524 10.6902H9.54338C8.39263 10.6902 7.10645 11.1084 7.10645 12.4833C7.10645 13.5589 7.91902 13.7981 8.38862 13.7981C8.9242 13.7911 9.43504 13.5979 9.81023 13.2603L9.74291 13.7387H10.961L11.5027 10.4517C11.5027 9.07678 10.1492 9.01733 9.60748 9.01733M10.6228 11.5875C10.4768 11.8787 10.2526 12.134 9.96951 12.3313C9.68644 12.5286 9.35311 12.6619 8.99845 12.7197C8.9268 12.7213 8.85552 12.7101 8.78895 12.6866C8.72238 12.6632 8.66191 12.628 8.61123 12.5833C8.56055 12.5385 8.52071 12.4851 8.49415 12.4263C8.46759 12.3675 8.45486 12.3046 8.45673 12.2413C8.45673 11.9427 8.65948 11.5238 9.6748 11.5238C9.9886 11.5698 10.3063 11.5918 10.6244 11.5896L10.6228 11.5875Z" fill="#DCE5E5"/>
<path d="M11.3008 13.6213C11.8112 13.7238 12.3351 13.7641 12.8578 13.7409C13.1115 13.7798 13.3718 13.7683 13.6198 13.7073C13.8678 13.6463 14.0973 13.5373 14.2918 13.3883C14.4862 13.2393 14.6406 13.0539 14.7438 12.8456C14.847 12.6373 14.8964 12.4114 14.8885 12.1841C14.8885 10.6903 13.2641 10.9889 13.2641 10.391C13.2641 10.0924 13.535 9.97277 14.0086 9.97277C14.2113 9.97277 14.9558 10.0322 14.9558 10.0322L15.1585 8.9566C14.7385 8.86939 14.3077 8.82921 13.8763 8.83701C12.861 8.83701 12.5229 9.19578 12.5229 10.3938C12.5229 11.7687 13.5382 11.6492 13.5382 12.187C13.5382 12.5457 13.0646 12.6052 12.7256 12.6052" fill="#DCE5E5"/>
<path d="M39.5247 9.55736C39.3666 9.38758 39.1718 9.24728 38.9517 9.14463C38.7316 9.04197 38.4905 8.97901 38.2426 8.95941C37.0245 8.95941 36.6182 10.2742 36.6182 11.8282C36.6182 12.7842 36.4828 13.8003 37.6335 13.8003C37.8724 13.7994 38.1088 13.7567 38.3289 13.6745C38.5489 13.5924 38.7484 13.4726 38.9157 13.322L38.8484 13.7402H40.2019L41.2172 8.00269M39.4542 11.1106C39.4542 11.768 38.8452 12.6044 38.1007 12.6044C37.6271 12.6044 37.3562 12.2457 37.3562 11.6484C37.3562 10.6924 37.8299 10.0916 38.4389 10.0916C38.5841 10.0927 38.7275 10.1209 38.8596 10.1741C38.9917 10.2274 39.1097 10.3047 39.2057 10.4008C39.3018 10.497 39.3739 10.61 39.4172 10.7324C39.4606 10.8548 39.4743 10.9839 39.4574 11.1113L39.4542 11.1106Z" fill="#DCE5E5"/>
<path d="M2.29888 13.6794L3.11145 9.37622L3.24608 13.6794H4.19409L5.95707 9.37622L5.20941 13.6794H6.63022L7.71365 7.94751H6.02118L4.12597 11.4701L4.05866 7.94751H3.3142L1.0127 13.6794H2.29888Z" fill="#DCE5E5"/>
<path d="M21.8584 13.6814H23.28C23.6863 11.7093 23.7536 10.0951 24.7016 10.3945C24.7786 9.91739 24.9383 9.45364 25.1752 9.01953H24.9044C24.2953 9.01953 23.8217 9.73707 23.8217 9.73707L23.9572 9.07968" fill="#DCE5E5"/>
<path d="M29.8446 10.2154C30.3192 10.0517 30.8248 9.96951 31.3343 9.97335C31.8079 9.97335 32.2158 10.0328 32.2158 10.3916C32.2158 10.6307 32.1485 10.6902 32.1485 10.6902H31.5395C30.3887 10.6902 29.1025 11.1084 29.1025 12.4833C29.1025 13.5589 29.9151 13.7981 30.3847 13.7981C30.9203 13.7911 31.4311 13.5979 31.8063 13.2603L31.739 13.7387H32.9571L33.4988 10.4517C33.4988 9.07678 32.1453 9.01733 31.6036 9.01733M32.6189 11.5875C32.4729 11.8787 32.2487 12.134 31.9656 12.3313C31.6825 12.5286 31.3492 12.6619 30.9945 12.7197C30.9229 12.7213 30.8516 12.7101 30.785 12.6866C30.7185 12.6632 30.658 12.628 30.6073 12.5833C30.5566 12.5385 30.5168 12.4851 30.4902 12.4263C30.4637 12.3675 30.451 12.3046 30.4528 12.2413C30.4528 11.9427 30.6556 11.5238 31.6709 11.5238C31.9847 11.568 32.3019 11.59 32.6197 11.5896L32.6189 11.5875Z" fill="#DCE5E5"/>
<path d="M33.2285 13.6814H34.6501C35.0564 11.7093 35.1237 10.0951 36.0717 10.3945C36.1487 9.91739 36.3084 9.45364 36.5453 9.01953H36.2745C35.6654 9.01953 35.1918 9.73707 35.1918 9.73707L35.3273 9.07968" fill="#DCE5E5"/>
</g>
</svg>
