<svg width="32" height="20" viewBox="0 0 32 20" fill="none" xmlns="http://www.w3.org/2000/svg">
<g clip-path="url(#clip0_11_975)">
<path d="M32 0H0V20H32V0Z" fill="#006C35"/>
<path d="M13.7933 4.44659C13.766 4.44963 13.74 4.45941 13.7176 4.47501C13.6521 4.52032 13.5971 4.57886 13.5563 4.64673C13.5155 4.7146 13.4897 4.79026 13.4808 4.8687C13.4808 4.97396 13.4562 4.97396 13.5245 5.03712C13.5736 5.10765 13.6237 5.10028 13.7229 5.0487C13.7476 5.03341 13.7689 5.01328 13.7854 4.98957C13.8019 4.96585 13.8133 4.93904 13.8189 4.9108C13.8424 4.79396 13.6941 4.96659 13.6749 4.83607C13.6557 4.70554 13.7368 4.66554 13.8274 4.54765C13.8274 4.49291 13.8274 4.44238 13.7944 4.44238L13.7933 4.44659ZM15.2461 4.45396C15.2184 4.45396 15.1842 4.49291 15.1394 4.57712C15.0946 4.66133 14.9592 4.80028 15.0648 5.07712C15.1626 5.32475 15.1914 5.59375 15.148 5.85607C15.1037 5.93041 15.053 6.00085 14.9965 6.06659C14.957 6.11004 14.9031 6.13823 14.8445 6.14613C14.7859 6.15404 14.7264 6.14114 14.6765 6.10975C14.6243 6.08476 14.5793 6.04714 14.5457 6.0004C14.5121 5.95366 14.4911 5.8993 14.4845 5.84238C14.492 5.55396 14.509 5.08238 14.4557 4.98238C14.4465 4.95722 14.4309 4.93482 14.4103 4.91735C14.3898 4.89987 14.365 4.88792 14.3384 4.88263C14.3119 4.87734 14.2844 4.8789 14.2586 4.88715C14.2328 4.89541 14.2096 4.91008 14.1912 4.92975C13.9245 5.16975 13.7933 5.57607 13.7122 5.89922C13.6386 6.13501 13.5597 6.06659 13.4989 5.97186C13.3645 5.84765 13.3549 4.87396 13.1928 5.03396C12.9325 5.7708 13.3421 6.57291 13.6258 6.49396C13.8306 6.57817 13.9608 6.19291 14.044 5.77186C14.1016 5.65396 14.1453 5.64028 14.1741 5.70133C14.1666 6.26133 14.2146 6.38659 14.3608 6.55607C14.4451 6.63058 14.5539 6.67265 14.6671 6.67458C14.7803 6.67652 14.8904 6.63819 14.9773 6.56659L15.2322 6.31607C15.2593 6.2871 15.2968 6.26977 15.3367 6.2678C15.3766 6.26583 15.4157 6.27938 15.4456 6.30554C15.5234 6.37501 15.5128 6.49501 15.6792 6.57817C15.8189 6.63291 16.1165 6.59186 16.1858 6.47291C16.2786 6.31607 16.301 6.26238 16.3448 6.20238C16.4109 6.11501 16.525 6.15396 16.525 6.18133C16.5144 6.22975 16.4482 6.27817 16.493 6.36554C16.572 6.42449 16.5901 6.38659 16.637 6.37396C16.8024 6.29607 16.9261 5.94238 16.9261 5.94238C16.9336 5.8108 16.8578 5.82028 16.8088 5.84765C16.7597 5.87501 16.7416 5.89922 16.6776 5.93712C16.5965 5.9487 16.4408 6.00133 16.3576 5.88344C16.2786 5.74133 16.2776 5.54238 16.2178 5.39922C16.2178 5.3887 16.1112 5.17396 16.2104 5.16028C16.2594 5.16975 16.3661 5.19607 16.3821 5.1087C16.4333 5.02344 16.2754 4.78238 16.1592 4.66028C16.1374 4.63466 16.1104 4.61388 16.0799 4.5993C16.0495 4.58471 16.0162 4.57666 15.9824 4.57567C15.9485 4.57467 15.9148 4.58076 15.8835 4.59353C15.8522 4.6063 15.824 4.62546 15.8008 4.64975C15.7101 4.73186 15.724 4.82344 15.7058 4.90975C15.6908 4.97088 15.6902 5.03462 15.7043 5.09599C15.7184 5.15735 15.7466 5.21466 15.7869 5.26344C15.8776 5.43922 16.0408 5.66449 15.9864 5.98133C15.9583 6.02421 15.9193 6.05898 15.8732 6.0821C15.8271 6.10521 15.7756 6.11584 15.724 6.11291C15.6546 6.09817 15.5405 6.06765 15.4797 5.62765C15.4338 5.29396 15.4914 4.82659 15.3474 4.60765C15.3154 4.52554 15.2877 4.44449 15.2408 4.4508L15.2461 4.45396ZM14.7864 4.48975C14.7426 4.48975 14.6946 4.54344 14.6552 4.63922C14.6178 4.78903 14.595 4.942 14.5869 5.09607C14.5602 5.20975 14.7074 5.25817 14.7746 5.11186C14.8406 4.95405 14.8768 4.78566 14.8813 4.61501C14.8653 4.5287 14.8269 4.48659 14.7842 4.48975H14.7864ZM16.4845 4.52028C16.4397 4.52028 16.4045 4.54975 16.3906 4.61501C16.3738 4.73608 16.3796 4.85917 16.4077 4.97817C16.4612 5.09065 16.5309 5.19489 16.6146 5.28765C16.909 5.67817 17.1917 6.06975 17.468 6.47607C17.5106 6.77712 17.5426 7.07186 17.5629 7.36554C17.6111 8.07196 17.6168 8.78057 17.58 9.48765C17.7026 9.48765 17.9 9.29291 17.9672 9.00133C18.012 8.59712 17.9512 7.77291 17.9469 7.53396C17.9469 7.43501 17.9384 7.31712 17.9309 7.19291C18.2509 7.70554 18.557 8.24554 18.86 8.84554C18.9666 8.79396 18.9464 8.18028 18.8813 8.09396C18.6392 7.57922 18.3042 7.0708 18.1976 6.87501C18.1592 6.80449 18.028 6.60765 17.8776 6.38028C17.8488 6.05607 17.8178 5.78133 17.7976 5.69922C17.7474 5.35607 17.9405 5.73817 17.9138 5.53922C17.8509 5.19712 17.66 4.96449 17.4338 4.6508C17.3613 4.54554 17.3624 4.52765 17.2504 4.67607C17.1938 4.79934 17.1774 4.93689 17.2034 5.06975C17.1736 5.02765 17.1373 4.97712 17.085 4.91501C16.8898 4.74975 16.8781 4.74028 16.716 4.60554C16.6521 4.55573 16.5743 4.52635 16.493 4.52133L16.4845 4.52028ZM21.5192 4.57186C21.4978 4.57186 21.4744 4.57922 21.4477 4.61817C21.4145 4.64608 21.3877 4.68076 21.3693 4.71982C21.3509 4.75888 21.3412 4.80141 21.341 4.84449C21.3538 5.02554 21.3858 5.20975 21.3986 5.3908L21.4125 5.46344C21.3978 5.44477 21.3821 5.42685 21.3656 5.40975C21.0093 5.04028 21.5298 5.34975 21.2973 5.06344C21.1719 4.91325 21.0307 4.77669 20.876 4.65607C20.7917 4.60238 20.7405 4.50028 20.7128 4.67396C20.6984 4.82722 20.6945 4.98124 20.701 5.13501C20.7216 5.24081 20.7698 5.33949 20.8408 5.42133C21.0786 5.70975 21.3218 6.01712 21.5661 6.33712C21.6173 6.9908 21.6312 7.58975 21.6834 8.24344C21.676 8.52344 21.5885 8.89501 21.5064 8.92975C21.5064 8.92975 21.3805 9.00133 21.293 8.92238C21.2322 8.89817 20.9869 8.51817 20.9869 8.51817C20.9695 8.49529 20.947 8.47673 20.9211 8.46394C20.8951 8.45115 20.8666 8.44449 20.8376 8.44449C20.8086 8.44449 20.78 8.45115 20.7541 8.46394C20.7282 8.47673 20.7056 8.49529 20.6882 8.51817C20.4418 8.75291 20.3309 9.19291 20.1634 9.49607C20.1208 9.56344 19.9992 9.62133 19.8637 9.49607C19.5202 9.03291 19.7208 8.37396 19.6781 8.5487C19.372 8.8887 19.5074 9.45291 19.5768 9.57396C19.6781 9.77291 19.7592 9.90028 19.9554 9.99501C19.9832 10.0199 20.016 10.0386 20.0517 10.0501C20.0874 10.0615 20.1251 10.0654 20.1624 10.0614C20.1996 10.0574 20.2356 10.0457 20.268 10.027C20.3004 10.0083 20.3283 9.98305 20.3501 9.95291C20.5304 9.7687 20.5325 9.29817 20.6168 9.20554C20.6227 9.17625 20.637 9.14925 20.658 9.12776C20.679 9.10626 20.7058 9.09118 20.7353 9.0843C20.7647 9.07742 20.7955 9.07904 20.8241 9.08897C20.8526 9.09889 20.8777 9.1167 20.8962 9.14028C20.9619 9.23279 21.0499 9.30768 21.1522 9.35817C21.2253 9.43182 21.3232 9.47647 21.4274 9.48365C21.5316 9.49083 21.6348 9.46004 21.7176 9.39712C21.8604 9.31751 21.9677 9.18791 22.0184 9.03396C22.1026 8.8108 22.061 7.63817 22.0418 6.98659C22.1688 7.16238 22.2936 7.34238 22.4184 7.52449C22.4742 8.08127 22.4945 8.64098 22.4792 9.20028C22.4664 9.30554 22.8589 8.88449 22.8568 8.67396C22.8568 8.49607 22.8568 8.33607 22.8568 8.18554C23.0477 8.48554 23.2322 8.7908 23.4061 9.10028C23.5128 9.04344 23.4776 8.44028 23.4061 8.35712C23.2237 8.05501 22.9901 7.72554 22.8088 7.47607C22.7725 7.16028 22.7245 6.78133 22.7021 6.66554C22.668 6.48554 22.6328 6.21607 22.5805 6.00238C22.5554 5.87889 22.5408 5.75354 22.5368 5.62765C22.5581 5.56765 22.6434 5.62765 22.6776 5.56028C22.7373 5.49607 22.4717 4.82344 22.3373 4.62554C22.2893 4.53922 22.2018 4.5687 22.093 4.70975C21.9928 4.80238 22.029 5.01396 22.0674 5.21501C22.1666 5.72765 22.2562 6.24975 22.3266 6.7708C22.1965 6.58028 22.0376 6.34975 21.8808 6.12659C21.8808 6.10554 21.8605 6.02133 21.8605 6.02133C21.8605 6.02133 21.8392 5.60028 21.821 5.50449C21.821 5.46449 21.8082 5.45291 21.8498 5.45817C21.8725 5.48032 21.8993 5.49785 21.9288 5.50975C21.9736 5.51817 22.013 5.44238 21.9864 5.37291L21.5682 4.60975C21.5532 4.59203 21.5332 4.57919 21.5106 4.57291L21.5192 4.57186ZM8.52611 4.58554C8.44931 4.58554 8.36398 4.6308 8.39704 4.72238C8.37784 4.77186 8.54851 4.94133 8.57838 5.03817C8.60504 5.10449 8.55171 5.31712 8.60824 5.33712C8.66478 5.35712 8.73091 5.18975 8.75758 5.03291C8.77251 4.94765 8.75758 4.65396 8.55918 4.59291H8.52718L8.52611 4.58554ZM23.3272 4.58554C23.309 4.58554 23.2877 4.61501 23.2546 4.68449C23.1707 4.85838 23.1445 5.05401 23.18 5.24344C23.3732 6.44548 23.494 7.65779 23.5416 8.87396C23.5307 8.97631 23.5064 9.07681 23.469 9.17291C23.3678 9.32082 23.2501 9.45711 23.1181 9.57923C23.0008 9.66554 22.7522 9.74659 22.6712 9.8108C22.413 9.95817 22.412 10.1266 22.621 10.1329C22.9805 10.0919 23.405 10.0624 23.6984 9.62659C23.8011 9.42157 23.8606 9.19812 23.8733 8.96975C23.901 7.78028 23.8584 6.61712 23.677 5.75817C23.656 5.65912 23.6446 5.55831 23.6429 5.45712C23.6664 5.39817 23.7837 5.46344 23.8253 5.39501C23.8872 5.33291 23.5213 4.8687 23.3986 4.67396C23.373 4.62449 23.357 4.58344 23.3346 4.58554H23.3272ZM19.5597 4.60554C19.5448 4.60554 19.5234 4.6308 19.4829 4.68344C19.3891 4.93563 19.3559 5.20588 19.3858 5.47291C19.644 6.80028 19.9074 8.0108 19.8658 9.27396C19.9885 9.27396 20.1293 8.99817 20.1858 8.72449C20.2023 8.4478 20.1938 8.1702 20.1602 7.89501C20.1506 7.67291 19.9053 5.87291 19.8562 5.70554C19.7965 5.38975 20.0941 5.66344 20.0621 5.47922C19.9554 5.24659 19.7026 4.90765 19.6226 4.70554C19.5928 4.65186 19.5885 4.60028 19.564 4.60028L19.5597 4.60554ZM10.3864 4.6308C10.3682 4.63472 10.3516 4.64377 10.3385 4.65686C10.3254 4.66994 10.3165 4.68649 10.3128 4.70449C10.3053 4.73186 10.3245 4.77817 10.3 4.79291C10.2754 4.80765 10.2296 4.79291 10.2317 4.72028C10.2285 4.69628 10.2185 4.67366 10.2029 4.65501C10.1916 4.64756 10.178 4.64421 10.1645 4.64554C10.14 4.64554 10.141 4.65291 10.1272 4.67291C10.1194 4.69353 10.1147 4.71516 10.1133 4.73712C10.1133 4.76449 10.0994 4.77396 10.0781 4.77817C10.0568 4.78238 10.061 4.77817 10.0418 4.7687C10.0226 4.75922 10.0184 4.75186 10.0184 4.73186C10.0182 4.70857 10.0143 4.68547 10.0066 4.66344C9.99544 4.65123 9.98042 4.64307 9.96398 4.64028C9.86798 4.64028 9.85731 4.74554 9.86691 4.78975C9.85944 4.79712 9.85624 4.98975 9.98638 5.04344C10.1624 5.12554 10.4909 5.0908 10.477 4.81186C10.477 4.78765 10.4717 4.70659 10.4696 4.68133C10.4642 4.66458 10.453 4.65022 10.438 4.64079C10.423 4.63136 10.4051 4.62745 10.3874 4.62975L10.3864 4.6308ZM12.7405 4.6308C12.6847 4.63375 12.6301 4.64846 12.5805 4.67396C12.5239 4.72199 12.4873 4.78895 12.4776 4.86199C12.468 4.93503 12.486 5.00901 12.5282 5.06975C12.6178 5.1108 12.7064 5.20028 12.6466 5.2487C12.3949 5.51396 11.7389 5.95817 11.7058 6.03922H11.7122C11.8747 6.06046 12.0394 6.06046 12.2018 6.03922C12.3426 5.98765 13.0125 5.23291 13.0125 5.23291C12.9773 5.20344 12.9464 5.18238 12.9058 5.15291C12.8653 5.12344 12.8728 5.08975 12.9058 5.05817C13.0712 4.96344 13.0189 4.75291 12.9325 4.65817C12.8701 4.62971 12.8017 4.61636 12.733 4.61922L12.7405 4.6308ZM18.8952 4.6308C18.877 4.6308 18.8557 4.65922 18.8237 4.72765C18.7325 4.89977 18.6887 5.09252 18.6968 5.28659C18.8685 6.45817 18.9208 7.48238 19.0328 8.65501C19.0424 8.7687 19.0253 8.93291 18.9485 8.99817C18.6669 9.29396 18.2594 9.65291 17.8136 9.81712C17.7656 9.86975 17.932 10.095 18.1464 10.095C18.5058 10.054 18.8216 9.85501 19.1149 9.3308C19.2332 9.15482 19.3084 8.95409 19.3346 8.74449C19.372 7.74703 19.2911 6.74868 19.0936 5.76975C19.0816 5.69964 19.0853 5.62781 19.1042 5.55922C19.1277 5.53186 19.2109 5.55922 19.2482 5.49186C19.3101 5.42975 19.084 4.91712 18.956 4.71923C18.9304 4.66975 18.9144 4.62975 18.892 4.63291L18.8952 4.6308ZM9.36024 4.66659C9.33354 4.67163 9.30862 4.68339 9.28787 4.70072C9.26713 4.71806 9.25128 4.74038 9.24184 4.76554C9.23075 4.94836 9.23467 5.13177 9.25358 5.31396C9.32765 5.60341 9.3797 5.89791 9.40931 6.19501C9.42104 6.61607 9.16611 6.37501 9.17784 6.1687C9.23651 5.90028 9.22051 5.47817 9.16824 5.37186C9.11598 5.26554 9.07864 5.23817 8.97731 5.25607C8.89731 5.25607 8.69038 5.47396 8.63171 5.84238C8.60227 5.9604 8.57913 6.07986 8.56238 6.20028C8.53358 6.39607 8.40664 6.52659 8.32024 6.17922C8.24344 5.92344 8.19544 5.29396 8.06744 5.44238C8.03011 5.93396 7.98638 6.79923 8.40984 6.8887C8.92184 6.93712 8.63918 6.03396 8.82478 5.86975C8.85998 5.7887 8.92504 5.78765 8.93144 5.88975V6.65712C8.93144 6.90659 9.09251 6.98028 9.22158 7.03186C9.35598 7.02133 9.44451 7.02554 9.49784 7.15396C9.51918 7.59607 9.54051 8.03852 9.56184 8.48133C9.56184 8.48133 9.87224 8.56975 9.88184 7.73501C9.89678 7.24554 9.78264 6.83396 9.84984 6.73922C9.84984 6.64554 9.97358 6.64133 10.0578 6.68659C10.1922 6.78028 10.2509 6.89712 10.4589 6.8487C10.7789 6.76238 10.9666 6.6108 10.9709 6.3708C10.9626 6.13564 10.9139 5.90358 10.8269 5.68449C10.8408 5.64344 10.7661 5.53501 10.78 5.49396C10.8365 5.58238 10.9229 5.57501 10.9421 5.49396C10.8877 5.31922 10.8045 5.1508 10.669 5.07817C10.557 4.98028 10.3928 5.00133 10.333 5.20449C10.3053 5.43817 10.4194 5.71607 10.5912 5.94133C10.6452 6.05638 10.6677 6.18344 10.6562 6.30975C10.6142 6.33439 10.5646 6.34296 10.5166 6.33384C10.4686 6.32472 10.4257 6.29855 10.396 6.26028C10.396 6.26028 10.1442 6.07396 10.1442 6.03291C10.2114 5.61186 10.1581 5.56238 10.1218 5.44449C10.0962 5.28238 10.0152 5.23396 9.95544 5.12133C9.89251 5.05501 9.80718 5.05501 9.76664 5.12133C9.65998 5.31186 9.70798 5.72133 9.78798 5.90449C9.84558 6.07291 9.93518 6.17817 9.89464 6.17817C9.86051 6.27291 9.78798 6.2508 9.73571 6.14133C9.67379 5.907 9.64366 5.66559 9.64611 5.42344C9.62371 5.23396 9.59918 4.82975 9.47331 4.72765C9.46228 4.70964 9.44658 4.69488 9.42782 4.68488C9.40907 4.67489 9.38794 4.67003 9.36664 4.6708L9.36024 4.66659ZM11.1586 4.66659C11.133 4.66659 11.1053 4.68449 11.0722 4.69186C11.0073 4.70934 10.9521 4.75153 10.9187 4.80916C10.8853 4.8668 10.8765 4.93516 10.8941 4.99923C11.0232 5.7708 11.1074 6.36028 11.2354 7.13186C11.2557 7.22238 11.1789 7.34238 11.0797 7.3287C10.9112 7.21607 10.8664 6.9887 10.5826 6.99817C10.3746 6.99817 10.1378 7.22344 10.108 7.43922C10.0671 7.60523 10.0671 7.77848 10.108 7.94449C10.2541 8.11817 10.428 8.09922 10.5826 8.06028C10.7085 8.0087 10.813 7.88659 10.8568 7.91607C10.8845 7.96344 10.8568 8.36554 10.2616 8.67501C9.89784 8.83607 9.60771 8.87501 9.45198 8.58133C9.35491 8.39817 9.45944 7.70028 9.22158 7.86133C8.51864 9.6508 10.8685 9.89922 11.1309 7.93501C11.148 7.87922 11.1992 7.82449 11.2376 7.83817C11.2536 7.84449 11.2685 7.86659 11.2738 7.90659C11.2194 9.68449 9.46051 9.80659 9.15651 9.24765C9.08184 9.11607 9.05944 8.82659 9.04984 8.64659C9.04945 8.57645 9.02416 8.50867 8.97838 8.45501C8.90691 8.40238 8.81091 8.54028 8.79064 8.78028C8.76891 8.92307 8.76176 9.06766 8.76931 9.21186C8.86318 10.6161 11.133 10.0129 11.501 8.85291C11.6834 8.25291 11.501 7.80028 11.5586 7.74554H11.5746C11.7997 7.98449 12.1165 7.77607 12.1848 7.69291C12.1937 7.68139 12.2049 7.67181 12.2178 7.66477C12.2306 7.65773 12.2448 7.65338 12.2594 7.65199C12.274 7.65061 12.2888 7.65222 12.3027 7.65673C12.3167 7.66123 12.3295 7.66853 12.3405 7.67817C12.5165 7.80238 12.8237 7.74449 12.8888 7.52449C12.9294 7.30471 12.9547 7.08243 12.9645 6.85923C12.8773 6.87658 12.7943 6.91055 12.7202 6.95922C12.7116 6.96794 12.7057 6.97889 12.7032 6.9908C12.6936 7.05396 12.684 7.11817 12.6744 7.18133C12.6751 7.18621 12.6751 7.19118 12.6744 7.19607C12.669 7.20433 12.6617 7.21119 12.653 7.21607C12.6125 7.23817 12.5464 7.22554 12.5378 7.16765C12.4834 6.92343 12.2594 6.89186 12.1229 7.27291C12.0312 7.34659 11.8648 7.36028 11.8466 7.2508C11.869 6.99712 11.7656 6.96238 11.5576 7.08238C11.4904 6.57922 11.4242 6.09922 11.3581 5.59607C11.4445 5.59607 11.5245 5.65607 11.6034 5.55817C11.5181 5.29501 11.3368 4.75923 11.2344 4.70975L11.2194 4.69501L11.213 4.68975H11.2066H11.1938C11.1847 4.68791 11.1753 4.68791 11.1661 4.68975L11.1586 4.66659ZM18.1709 4.66659C18.0813 4.66659 17.981 4.72028 18.0205 4.8308C17.9981 4.89186 18.2136 5.09712 18.2488 5.20975C18.3117 5.38238 18.2008 5.54765 18.2658 5.57186C18.3309 5.59607 18.4088 5.39291 18.4408 5.20344C18.477 5.04975 18.3661 4.73501 18.2082 4.6708C18.1958 4.66957 18.1833 4.66957 18.1709 4.6708V4.66659ZM12.7085 4.85607C12.734 4.85778 12.7585 4.86674 12.7789 4.88187C12.7993 4.897 12.8149 4.91765 12.8237 4.94133C12.8493 4.99712 12.8365 5.04659 12.7938 5.06133C12.7512 5.07607 12.6968 5.03396 12.6712 4.97817C12.6456 4.92238 12.6584 4.86765 12.701 4.85712L12.7085 4.85607ZM22.8418 5.11501C22.8191 5.11263 22.7961 5.11609 22.7752 5.12508C22.7542 5.13407 22.7359 5.14827 22.7222 5.1663C22.7084 5.18432 22.6996 5.20556 22.6967 5.22793C22.6937 5.25031 22.6967 5.27306 22.7053 5.29396C22.685 5.35922 22.8802 5.58238 22.9122 5.70449C22.941 5.7908 22.8685 6.0708 22.9282 6.09607C22.988 6.12133 23.0594 5.90344 23.0882 5.69712C23.1042 5.58449 23.02 5.18975 22.8749 5.11922C22.8636 5.11792 22.8521 5.11792 22.8408 5.11922L22.8418 5.11501ZM17.2386 5.26344C17.2461 5.29607 17.2536 5.32975 17.2589 5.36344C17.276 5.43607 17.2898 5.5087 17.3058 5.58028C17.2408 5.49186 17.1874 5.42133 17.164 5.39607C17.0178 5.22449 17.164 5.28344 17.2386 5.26344ZM18.5293 5.89501C18.5111 5.89925 18.4945 5.90854 18.4815 5.92178C18.4684 5.93502 18.4595 5.95167 18.4557 5.96975C18.4482 5.99712 18.4696 6.04238 18.444 6.05607C18.4184 6.06975 18.3725 6.06238 18.3746 5.98554C18.3713 5.96077 18.3609 5.93743 18.3448 5.91817C18.3335 5.91064 18.3199 5.90728 18.3064 5.9087C18.2818 5.9087 18.2829 5.91607 18.269 5.93607C18.2618 5.95679 18.2575 5.9784 18.2562 6.00028C18.2562 6.02765 18.2434 6.03712 18.2232 6.04133C18.2029 6.04554 18.204 6.04133 18.1858 6.03186C18.1677 6.02238 18.1624 6.01501 18.1624 5.99501C18.1622 5.97173 18.1583 5.94863 18.1506 5.92659C18.1394 5.91464 18.1243 5.90684 18.108 5.90449C18.012 5.90449 18.0013 6.00975 18.012 6.05291C18.0045 6.06028 18.0002 6.25501 18.1304 6.30765C18.3064 6.38975 18.636 6.35396 18.6221 6.07501C18.6221 6.0508 18.6157 5.96975 18.6125 5.94449C18.6071 5.92753 18.5958 5.91303 18.5805 5.90358C18.5653 5.89412 18.5471 5.89034 18.5293 5.89291V5.89501ZM12.636 5.95291C12.6066 5.95274 12.5779 5.96156 12.5538 5.97817C12.4771 6.02752 12.4223 6.10375 12.4003 6.19147C12.3783 6.27919 12.3909 6.37187 12.4354 6.4508C12.4643 6.48768 12.5038 6.51506 12.5487 6.52934C12.5937 6.54363 12.6419 6.54413 12.6872 6.5308C12.8397 6.54975 12.9293 6.24975 12.9293 6.24975C12.9293 6.24975 12.9293 6.16554 12.7533 6.32449C12.6776 6.33817 12.6669 6.31186 12.6466 6.26975C12.6283 6.19072 12.6366 6.10797 12.6701 6.03396C12.6872 5.98659 12.6701 5.95712 12.6338 5.95396L12.636 5.95291ZM20.9666 5.9908C20.918 5.98906 20.8704 6.00522 20.8332 6.03615C20.7959 6.06708 20.7716 6.11057 20.765 6.15817C20.765 6.22659 20.796 6.26344 20.7906 6.32659C20.7821 6.36238 20.7448 6.38554 20.6562 6.34344C20.6701 6.3308 20.5986 6.23186 20.5986 6.23186C20.5293 6.1908 20.4376 6.23186 20.3768 6.27291C20.3552 6.31323 20.3423 6.35749 20.3388 6.40294C20.3353 6.44839 20.3414 6.49406 20.3565 6.53712C20.4557 6.71817 20.796 7.02659 20.9581 7.0287C20.9581 6.86554 20.9773 6.6487 20.9858 6.51396C20.9858 6.46344 21.0018 6.4087 21.0509 6.39396C21.1 6.37923 21.1864 6.44344 21.1864 6.39396C21.1844 6.27888 21.1536 6.16606 21.0968 6.06554C21.0818 6.04443 21.0621 6.02705 21.0391 6.01481C21.0161 6.00256 20.9906 5.99578 20.9645 5.99501L20.9666 5.9908ZM14.0706 6.55817H14.0642C14.0382 6.5845 14.0104 6.60912 13.981 6.63186C13.9042 6.71712 13.8914 6.77712 13.8957 6.94765C13.8957 6.96554 14.0408 7.35186 14.1592 7.62238C14.2392 7.90449 14.3138 8.22659 14.2594 8.53186C14.0549 8.93729 13.7306 9.27201 13.3293 9.49186C13.1437 9.5508 12.9826 9.5308 12.94 9.49186C12.9041 9.46827 12.8752 9.43562 12.8565 9.39729C12.8377 9.35897 12.8297 9.31638 12.8333 9.27396C13.1416 9.06344 13.4925 8.8908 13.7677 8.32028C13.8488 8.10238 13.8744 7.9708 13.7933 7.63396C13.7713 7.51652 13.7171 7.40729 13.6365 7.31817C13.6888 7.29291 13.8253 7.39186 13.8498 7.32975C13.8091 7.14527 13.7163 6.97593 13.5821 6.84133C13.5624 6.81778 13.538 6.79849 13.5104 6.78463C13.4828 6.77078 13.4526 6.76266 13.4217 6.76079C13.3908 6.75891 13.3598 6.76332 13.3307 6.77373C13.3016 6.78415 13.275 6.80035 13.2525 6.82133C13.1394 6.88344 13.1149 7.10659 13.1693 7.30133C13.2301 7.4487 13.3933 7.47396 13.5096 7.76975C13.5096 7.7887 13.549 7.9908 13.4914 8.07186C13.4434 8.21817 12.8333 8.69291 12.7896 8.72238H12.781C12.781 8.7108 12.781 8.68028 12.781 8.63186C12.781 8.54238 12.8141 8.34133 12.812 8.30659C12.6104 8.43501 12.5432 8.83291 12.5069 8.94554C11.996 9.29396 11.4157 9.55291 11.0818 9.90659C10.908 10.175 12.2808 9.59817 12.4408 9.5287C12.4706 9.56133 12.4738 9.67607 12.5645 9.78028C12.6526 9.88498 12.7692 9.96276 12.9004 10.0045C13.0317 10.0463 13.1723 10.0503 13.3058 10.0161C13.8008 9.83922 14.0856 9.50659 14.3725 9.13712C14.4141 9.07712 14.4792 9.03186 14.5389 9.07712C14.7384 9.51817 15.3133 9.83186 16.0578 9.86344C16.2296 9.65291 16.1474 9.55501 16.0781 9.51186C16.0568 9.49817 15.708 9.36344 15.6514 9.2308C15.6173 9.10659 15.7005 8.99607 15.8648 8.91501C16.3395 8.8713 16.8088 8.78283 17.2664 8.6508C17.2843 8.48409 17.337 8.32283 17.421 8.17712C17.4395 8.14274 17.4667 8.11371 17.5 8.09291C17.5006 8.08872 17.5006 8.08447 17.5 8.08028L17.4232 8.03501L15.8989 8.0287C15.8841 8.0237 15.8701 8.01661 15.8573 8.00765C15.8708 7.99477 15.8873 7.98537 15.9053 7.98028C16.269 7.93186 16.9154 7.82659 16.9592 7.21291C16.9528 6.89712 16.8205 6.68659 16.4258 6.62554C16.3544 6.63443 16.2854 6.65734 16.2231 6.69293C16.1607 6.72852 16.1062 6.77607 16.0628 6.83277C16.0194 6.88947 15.9879 6.95418 15.9701 7.02308C15.9524 7.09198 15.9489 7.16369 15.9597 7.23396C15.9458 7.31607 15.9885 7.47922 15.9021 7.49712C15.3421 7.54765 14.7288 7.89396 14.7106 8.14133H14.685C14.6577 8.12708 14.6356 8.10462 14.622 8.07719C14.6084 8.04976 14.6039 8.01878 14.6093 7.9887C14.5825 7.53662 14.4512 7.09659 14.2253 6.70238C14.1464 6.62449 14.1122 6.59712 14.0898 6.58975H14.0792L14.0706 6.55817ZM15.5288 6.78449C15.5106 6.78841 15.4939 6.79746 15.4809 6.81054C15.4678 6.82362 15.4589 6.84017 15.4552 6.85817C15.4477 6.88554 15.469 6.93186 15.4434 6.94659C15.4178 6.96133 15.372 6.95291 15.3741 6.87607C15.3707 6.8513 15.3604 6.82796 15.3442 6.8087C15.3334 6.80115 15.3201 6.79778 15.3069 6.79922C15.2824 6.79922 15.2813 6.80659 15.2685 6.82659C15.2613 6.84732 15.257 6.86892 15.2557 6.8908C15.2557 6.91817 15.2429 6.92765 15.2226 6.93186C15.2024 6.93607 15.2056 6.93186 15.1864 6.92238C15.1672 6.91291 15.1608 6.90554 15.1608 6.88554C15.1609 6.86232 15.1573 6.83922 15.1501 6.81712C15.1384 6.80522 15.123 6.79746 15.1064 6.79501C15.0104 6.79501 14.9997 6.90028 15.0104 6.94344C15.0029 6.9508 14.9986 7.14554 15.1288 7.19817C15.3048 7.28028 15.7229 7.23186 15.6205 6.96554C15.6205 6.94133 15.6141 6.86028 15.6109 6.83501C15.6055 6.81806 15.5942 6.80356 15.5789 6.7941C15.5637 6.78465 15.5455 6.78087 15.5277 6.78344L15.5288 6.78449ZM21.4157 7.02238C21.4108 7.02109 21.4057 7.02109 21.4008 7.02238C21.4008 7.02238 20.588 7.59291 20.5677 7.61291C20.4866 7.68344 20.5272 7.9287 20.5677 7.90344C20.6264 7.92554 21.4445 7.37712 21.4285 7.31396C21.4637 7.31396 21.4818 7.03186 21.4157 7.02028V7.02238ZM16.2957 7.10659C16.3375 7.10546 16.3786 7.11644 16.4141 7.13817C16.4749 7.17291 16.5122 7.22554 16.508 7.26344V7.27291L16.4994 7.28238C16.4744 7.29565 16.4459 7.30152 16.4176 7.29928C16.3892 7.29704 16.3621 7.28679 16.3394 7.26975C16.3144 7.25852 16.2926 7.24109 16.2764 7.21915C16.2601 7.1972 16.2499 7.17148 16.2466 7.14449C16.2478 7.14004 16.2496 7.13578 16.252 7.13186L16.2584 7.12554C16.2696 7.11727 16.2829 7.11217 16.2968 7.1108L16.2957 7.10659ZM9.17358 7.24659C8.74691 7.25396 8.13464 7.79186 8.11864 8.0887C8.56344 7.87817 8.99971 7.67501 9.45198 7.45712C9.37944 7.35186 9.45198 7.25291 9.17358 7.24659ZM10.5389 7.43291C10.5627 7.4333 10.5858 7.44102 10.6049 7.45499C10.624 7.46895 10.6382 7.48847 10.6456 7.5108C10.654 7.53314 10.6563 7.55729 10.6521 7.58077C10.648 7.60426 10.6377 7.62625 10.6221 7.64449C10.604 7.66659 10.5421 7.65817 10.4984 7.65817C10.4774 7.65917 10.4565 7.65474 10.4378 7.64533C10.4191 7.63591 10.4032 7.62183 10.3917 7.60449C10.3768 7.55712 10.4226 7.50975 10.444 7.47396L10.4536 7.46344C10.4745 7.44603 10.5 7.43505 10.5272 7.43186L10.5389 7.43291ZM21.2589 7.59923C21.2373 7.6017 21.2166 7.60906 21.1984 7.62073C21.1802 7.63241 21.165 7.64809 21.1539 7.66654C21.1429 7.68499 21.1363 7.70571 21.1347 7.72708C21.1331 7.74846 21.1366 7.76991 21.1448 7.78975C21.1245 7.85501 21.2514 8.08449 21.2781 8.2108C21.3069 8.29712 21.2418 8.54238 21.3005 8.5687C21.3592 8.59501 21.4989 8.42344 21.4936 8.20449C21.5096 8.09186 21.453 7.67817 21.3101 7.60659C21.2929 7.60325 21.2751 7.60325 21.2578 7.60659L21.2589 7.59923ZM12.1602 8.00028C12.0941 8.00028 12.0354 8.03922 12.0621 8.13186C12.0621 8.19817 12.2488 8.28028 12.2605 8.43396C12.2882 8.49817 12.22 8.70133 12.2765 8.72133C12.333 8.74133 12.4013 8.58028 12.428 8.4287C12.4429 8.34554 12.3629 8.05712 12.2253 8.00765C12.2037 8.00468 12.1818 8.00468 12.1602 8.00765V8.00028ZM14.8845 8.36765H14.9016C15.113 8.40619 15.3268 8.43046 15.5416 8.44028C15.7186 8.45186 15.8061 8.58765 15.6408 8.64554C15.4754 8.70343 15.3208 8.74344 15.3208 8.97712C15.3432 9.04339 15.3432 9.11506 15.3208 9.18133V9.18765H15.3122H15.3048H15.2973C15.2589 9.19291 15.2024 9.15712 15.1597 9.13501C15.046 9.07099 14.9484 8.98229 14.8745 8.87561C14.8006 8.76893 14.7522 8.64707 14.733 8.51923C14.7322 8.49801 14.7357 8.47685 14.7433 8.45702C14.751 8.43718 14.7627 8.41909 14.7776 8.40383C14.7926 8.38858 14.8105 8.37648 14.8304 8.36827C14.8502 8.36006 14.8715 8.35591 14.893 8.35607L14.8845 8.36765ZM8.22851 8.65712C8.21784 8.65712 8.19651 8.6887 8.16878 8.72449C7.91811 9.11817 7.89571 9.70659 8.03438 9.88238C8.06873 9.92178 8.11323 9.95128 8.16317 9.96777C8.21312 9.98426 8.26665 9.98713 8.31811 9.97607C8.47598 9.9087 8.54531 9.59396 8.50691 9.47923C8.45464 9.39817 8.41304 9.38554 8.36078 9.45396C8.25411 9.67607 8.20398 9.52449 8.19438 9.40028C8.1819 9.19203 8.19263 8.98306 8.22638 8.77712C8.24024 8.6887 8.23918 8.65817 8.22638 8.65922L8.22851 8.65712ZM16.7682 9.17501C16.748 9.17371 16.7278 9.1777 16.7096 9.18659C16.6216 9.24122 16.5422 9.30824 16.4738 9.38554C16.4397 9.41186 16.4429 9.43396 16.4536 9.47923C16.4802 9.54028 16.5282 9.52133 16.5816 9.49291C16.653 9.48344 16.6882 9.52975 16.6818 9.61396C16.671 9.63838 16.6666 9.66513 16.6693 9.69167C16.6719 9.71821 16.6813 9.74365 16.6968 9.76554C16.7157 9.78514 16.741 9.79764 16.7682 9.8009C16.7954 9.80416 16.823 9.79799 16.8461 9.78344C17.0113 9.7079 17.1834 9.64833 17.3602 9.60554C17.4232 9.60554 17.4189 9.43922 17.3208 9.43291C17.1855 9.42623 17.0521 9.46603 16.9432 9.54554C16.8642 9.56344 16.8504 9.51607 16.8365 9.47291C16.8162 9.36765 16.8824 9.29186 16.8685 9.21291C16.8408 9.19161 16.8075 9.17847 16.7725 9.17501H16.7682ZM22.236 9.37607C22.204 9.37607 22.1709 9.38133 22.1229 9.38554C22.0749 9.38975 22.0525 9.41922 22.0429 9.48133C22.0429 9.57607 22.1058 9.57186 22.1656 9.6087C22.1764 9.61856 22.185 9.63052 22.191 9.64383C22.1969 9.65715 22.1999 9.67153 22.1999 9.68607C22.1999 9.7006 22.1969 9.71498 22.191 9.7283C22.185 9.74161 22.1764 9.75358 22.1656 9.76344C22.109 9.81501 22.0674 9.84344 22.0109 9.89501C21.9842 9.94028 21.9672 10.0098 22.0493 10.0319C22.2018 10.074 22.5528 9.8487 22.5528 9.84344C22.5709 9.82936 22.584 9.80984 22.5899 9.78783C22.5959 9.76581 22.5945 9.74247 22.5858 9.72133C22.5528 9.68344 22.4792 9.70659 22.4269 9.70028C22.4034 9.70028 22.3202 9.6887 22.3618 9.62028C22.3891 9.58324 22.4106 9.54245 22.4258 9.49922C22.4493 9.44765 22.4258 9.41291 22.3426 9.38449C22.3076 9.3774 22.2718 9.37423 22.236 9.37501V9.37607ZM19.9469 13.9403C19.8985 13.9483 19.8538 13.9709 19.8187 14.0048C19.7837 14.0387 19.76 14.0825 19.751 14.1301C19.7419 14.1777 19.7478 14.2269 19.768 14.2711C19.7882 14.3153 19.8216 14.3523 19.8637 14.3771C17.197 14.3771 13.0946 14.3319 12.2157 14.3319C11.724 14.3319 10.1688 14.274 10.1378 14.274C10.4717 14.755 10.9549 14.854 11.5874 14.8634C12.7736 14.8634 18.2701 14.8487 19.8338 14.8487C19.7945 14.9426 19.7828 15.0455 19.7999 15.1456C19.8171 15.2458 19.8625 15.3391 19.9309 15.415H19.9373H19.948C20.0546 15.4392 20.0973 15.3655 20.1314 15.3098C20.2989 15.3245 21.245 15.3382 21.3314 15.3098C21.3901 15.395 21.4477 15.475 21.5597 15.4613C21.7549 15.4203 21.9085 15.3992 21.9128 15.0087C21.9128 15.0087 21.8925 14.3434 21.4498 14.3855C21.3432 14.4013 21.0509 14.4298 21.0509 14.4298C20.7106 14.3898 20.461 14.3855 20.0792 14.3719C20.1144 14.3276 20.1762 14.1487 20.1005 14.0834C20.0744 14.0646 20.0418 14.0566 20.0098 14.0613H20.0002L19.9938 14.055C19.9746 14.0276 19.964 13.9592 19.9512 13.9424H19.9469V13.9403ZM20.1282 14.8876C20.5176 14.9066 20.8834 14.8876 21.2738 14.9098C21.2975 14.9368 21.3097 14.9718 21.3079 15.0074C21.3061 15.0431 21.2905 15.0767 21.2642 15.1013H21.2578H21.2472L20.9208 15.0919C20.9215 15.0859 20.9215 15.0799 20.9208 15.074C20.8909 14.9866 20.6733 14.9919 20.6221 15.0613V15.0676C20.6218 15.0708 20.6218 15.074 20.6221 15.0771C20.6218 15.0806 20.6218 15.0841 20.6221 15.0876C20.4567 15.0971 20.2909 15.0932 20.1261 15.0761C20.076 15.014 20.0813 14.9024 20.141 14.8761L20.1282 14.8876Z" fill="white"/>
</g>
<defs>
<clipPath id="clip0_11_975">
<rect width="32" height="20" fill="white"/>
</clipPath>
</defs>
</svg>
