<svg width="44" height="23" viewBox="0 0 44 23" fill="none" xmlns="http://www.w3.org/2000/svg">
<mask id="mask0_69_3630" style="mask-type:luminance" maskUnits="userSpaceOnUse" x="0" y="0" width="44" height="23">
<path d="M39.0197 0H4.00679C1.7939 0 0 1.5841 0 3.53818V19.4019C0 21.356 1.7939 22.9401 4.00679 22.9401H39.0197C41.2326 22.9401 43.0265 21.356 43.0265 19.4019V3.53818C43.0265 1.5841 41.2326 0 39.0197 0Z" fill="white"/>
</mask>
<g mask="url(#mask0_69_3630)">
<path d="M40.8561 20.5412C40.8561 21.0784 40.6144 21.5935 40.1843 21.9733C39.7542 22.3531 39.1709 22.5665 38.5626 22.5665H4.35501C3.74674 22.5665 3.16338 22.3531 2.73327 21.9733C2.30316 21.5935 2.06152 21.0784 2.06152 20.5412V0.965926C2.06152 0.428796 2.30316 -0.0863351 2.73327 -0.466143C3.16338 -0.845952 3.74674 -1.05933 4.35501 -1.05933H38.5634C39.1717 -1.05933 39.755 -0.845952 40.1851 -0.466143C40.6152 -0.0863351 40.8569 0.428796 40.8569 0.965926L40.8561 20.5412Z" fill="white"/>
<path d="M10.6717 10.8898L9.76138 7.0311C9.69534 6.80752 9.54015 6.61249 9.32433 6.48184C9.10852 6.35119 8.84656 6.2937 8.58659 6.31992H4.40991L4.37305 6.49612C7.62496 7.19244 9.77741 8.87095 10.6717 10.8898Z" fill="#F79F1A"/>
<path d="M20.3498 6.39697H17.6516L15.9688 15.1306H18.6629L20.3498 6.39697Z" fill="#059BBF"/>
<path d="M12.3171 15.1221L16.5643 6.40332H13.7051L11.0646 12.3602L10.7825 11.4608C9.92585 9.98206 8.63714 8.73241 7.0498 7.84123L9.4635 15.1249L12.3171 15.1221Z" fill="#059BBF"/>
<path d="M28.0458 12.2753C28.0554 11.2846 27.335 10.5275 25.7811 9.90263C24.8371 9.49928 24.2586 9.23038 24.2682 8.82065C24.2682 8.45905 24.7554 8.07056 25.8116 8.07056C26.503 8.05717 27.1899 8.17116 27.8286 8.40527L28.069 8.50363L28.4344 6.61142C27.6594 6.36512 26.8412 6.24175 26.0175 6.24699C23.3538 6.24699 21.4786 7.43086 21.4618 9.12848C21.445 10.3838 22.8025 11.083 23.8242 11.5019C24.8732 11.9265 25.2258 12.201 25.2186 12.5839C25.2122 13.1691 24.3828 13.433 23.6071 13.433C22.7321 13.4559 21.8631 13.2992 21.0684 12.9752L20.7238 12.8337L20.3447 14.791C21.3055 15.1041 22.3225 15.2613 23.3466 15.2552C26.1842 15.2587 28.0257 14.0904 28.0458 12.2753Z" fill="#059BBF"/>
<path d="M31.2507 13.8215H34.7029C34.7831 14.1258 35.0315 15.1306 35.0315 15.1306H37.5325L35.3472 6.40616H33.2637C32.9711 6.37294 32.6744 6.42579 32.4193 6.55652C32.1642 6.68726 31.965 6.88859 31.8525 7.12936L27.8457 15.1334H30.6793C30.6793 15.1334 31.1457 14.0578 31.2507 13.8215ZM33.0986 9.59193C33.085 9.61599 33.3222 9.08668 33.4576 8.75834L33.6403 9.51126C33.6403 9.51126 34.1548 11.5974 34.263 12.034H32.0264C32.2492 11.5323 33.0986 9.59264 33.0986 9.59264V9.59193Z" fill="#059BBF"/>
<path d="M38.5634 -1.05933H4.35501C3.74674 -1.05933 3.16338 -0.845952 2.73327 -0.466143C2.30316 -0.0863352 2.06152 0.428796 2.06152 0.965926L2.06152 3.0676H40.8561V0.965926C40.8561 0.428918 40.6145 -0.0861051 40.1846 -0.465893C39.7547 -0.845681 39.1715 -1.05914 38.5634 -1.05933Z" fill="#059BBF"/>
<path d="M38.5634 22.5665H4.35501C3.74674 22.5665 3.16338 22.3531 2.73327 21.9733C2.30316 21.5935 2.06152 21.0784 2.06152 20.5413V18.4396H40.8561V20.5413C40.8561 21.0783 40.6145 21.5933 40.1846 21.9731C39.7547 22.3529 39.1715 22.5663 38.5634 22.5665Z" fill="#F79F1A"/>
<path opacity="0.15" d="M3.69149 20.5412V0.965928C3.69149 0.69973 3.75091 0.436143 3.86637 0.190243C3.98183 -0.0556563 4.15106 -0.279044 4.36437 -0.467143C4.57767 -0.655242 4.83089 -0.804362 5.10951 -0.905974C5.38814 -1.00759 5.68672 -1.0597 5.98818 -1.05932H4.35501C3.74674 -1.05932 3.16338 -0.84595 2.73327 -0.466141C2.30316 -0.0863331 2.06152 0.428798 2.06152 0.965928L2.06152 20.5412C2.06152 21.0784 2.30316 21.5935 2.73327 21.9733C3.16338 22.3531 3.74674 22.5665 4.35501 22.5665H5.98818C5.68672 22.5669 5.38814 22.5148 5.10951 22.4131C4.83089 22.3115 4.57767 22.1624 4.36437 21.9743C4.15106 21.7862 3.98183 21.5628 3.86637 21.3169C3.75091 21.071 3.69149 20.8074 3.69149 20.5412Z" fill="#202121"/>
</g>
</svg>
